<svg width="1205" height="295" viewBox="0 0 1205 295" fill="none" xmlns="http://www.w3.org/2000/svg">
<path d="M493.808 121.4V157.176C494.021 158.413 494.683 159.331 495.792 159.928L510.32 159.992C515.013 159.992 517.36 157.901 517.36 153.72V151.544H520.24V163H480.56V160.12H485.104C486.299 159.949 487.173 159.331 487.728 158.264V121.72C487.6 120.995 487.28 120.355 486.768 119.8C486.213 119.288 485.531 118.968 484.72 118.84H480.56V115.96H501.36V118.968H496.112C495.387 119.096 494.619 119.907 493.808 121.4ZM571.389 160.12H574.909V163H555.517V160.12H559.357C560.253 160.12 560.893 159.864 561.277 159.352C561.618 158.84 561.789 158.392 561.789 158.008V157.176L548.925 125.048L535.805 157.176V157.944C535.805 158.371 536.061 158.84 536.573 159.352C537.042 159.864 537.597 160.12 538.237 160.12H542.077V163H525.373V160.12H528.573C529.298 160.12 530.002 159.8 530.685 159.16C531.367 158.477 531.837 157.816 532.093 157.176L550.013 112.888L567.869 157.176C568.551 158.883 569.725 159.864 571.389 160.12ZM538.301 146.488L539.453 143.48H559.485L560.573 146.488H538.301ZM593.317 126.456V155.832C593.317 158.691 595.216 160.12 599.013 160.12H600.421V163H581.605V160.12L583.205 160.056C586.917 159.928 588.773 158.52 588.773 155.832V121.272C588.602 120.291 587.6 119.651 585.765 119.352H581.605V116.472H593.445L621.221 149.304V123.832C621.221 120.845 619.429 119.352 615.845 119.352H614.053V116.472H632.869V119.416H631.205C627.578 119.416 625.765 120.888 625.765 123.832V164.92L593.317 126.456ZM661.183 115.064C667.412 115.064 671.722 116.259 674.111 118.648C675.903 116.813 677.055 114.957 677.567 113.08H680.127V130.232C679.146 127.885 677.844 125.837 676.223 124.088C672.81 120.376 668.948 118.52 664.639 118.52C664.596 118.52 664.554 118.52 664.511 118.52C659.348 118.52 654.719 120.973 650.623 125.88C648.02 128.995 646.719 132.963 646.719 137.784C646.719 144.397 648.191 149.688 651.135 153.656C654.079 157.667 658.218 159.672 663.551 159.672C668.671 159.672 672.639 158.456 675.455 156.024V146.488C675.071 144.312 674.068 143.224 672.447 143.224H668.351V140.28H686.911V143.224H683.007C681.386 143.224 680.575 144.312 680.575 146.488V157.944C676.564 161.784 670.484 163.704 662.335 163.704C658.964 163.704 655.956 163.085 653.311 161.848C650.623 160.611 648.319 158.861 646.399 156.6C644.479 154.339 642.922 151.544 641.727 148.216C640.532 144.888 639.935 141.667 639.935 138.552C639.935 130.701 643.263 124.237 649.919 119.16C653.546 116.429 657.3 115.064 661.183 115.064ZM694.018 118.52H690.498V115.64H710.21V118.52H706.37C705.474 118.52 704.855 118.755 704.514 119.224C704.13 119.736 703.938 120.205 703.938 120.632V145.08C703.938 154.509 708.204 159.224 716.738 159.224C725.1 159.224 729.474 154.509 729.858 145.08V120.696C729.858 120.269 729.666 119.821 729.282 119.352C728.855 118.925 728.258 118.648 727.49 118.52H723.65V115.64H740.354V118.52H737.154C736.556 118.605 735.831 118.947 734.978 119.544C734.082 120.184 733.634 120.824 733.634 121.464V145.08C733.634 157.027 727.938 163 716.546 163C703.874 163 697.538 157.027 697.538 145.08V121.464C697.538 119.843 696.364 118.861 694.018 118.52ZM791.514 160.12H795.034V163H775.642V160.12H779.482C780.378 160.12 781.018 159.864 781.402 159.352C781.743 158.84 781.914 158.392 781.914 158.008V157.176L769.05 125.048L755.93 157.176V157.944C755.93 158.371 756.186 158.84 756.698 159.352C757.167 159.864 757.722 160.12 758.362 160.12H762.202V163H745.498V160.12H748.698C749.423 160.12 750.127 159.8 750.81 159.16C751.492 158.477 751.962 157.816 752.218 157.176L770.138 112.888L787.994 157.176C788.676 158.883 789.85 159.864 791.514 160.12ZM758.426 146.488L759.578 143.48H779.61L780.698 146.488H758.426ZM821.058 115.064C827.287 115.064 831.597 116.259 833.986 118.648C835.778 116.813 836.93 114.957 837.442 113.08H840.002V130.232C839.021 127.885 837.719 125.837 836.098 124.088C832.685 120.376 828.823 118.52 824.514 118.52C824.471 118.52 824.429 118.52 824.386 118.52C819.223 118.52 814.594 120.973 810.498 125.88C807.895 128.995 806.594 132.963 806.594 137.784C806.594 144.397 808.066 149.688 811.01 153.656C813.954 157.667 818.093 159.672 823.426 159.672C828.546 159.672 832.514 158.456 835.33 156.024V146.488C834.946 144.312 833.943 143.224 832.322 143.224H828.226V140.28H846.786V143.224H842.882C841.261 143.224 840.45 144.312 840.45 146.488V157.944C836.439 161.784 830.359 163.704 822.21 163.704C818.839 163.704 815.831 163.085 813.186 161.848C810.498 160.611 808.194 158.861 806.274 156.6C804.354 154.339 802.797 151.544 801.602 148.216C800.407 144.888 799.81 141.667 799.81 138.552C799.81 130.701 803.138 124.237 809.794 119.16C813.421 116.429 817.175 115.064 821.058 115.064ZM862.981 136.376H876.677C878.81 135.693 879.877 134.285 879.877 132.152V129.272H882.757V146.424H879.877V143.16C879.877 141.496 878.81 140.216 876.677 139.32H862.981V157.176C863.194 158.413 863.855 159.331 864.965 159.928L883.205 159.992C885.423 159.693 886.533 158.499 886.533 156.408V152.888H889.413V163H849.733V160.12H854.277C855.471 159.949 856.346 159.331 856.901 158.264V121.72C856.773 120.995 856.453 120.355 855.941 119.8C855.386 119.288 854.703 118.968 853.893 118.84H849.733V115.96H888.389V126.136H885.509V122.232C885.338 121.037 884.271 119.949 882.309 118.968H865.285C864.559 119.096 863.791 119.907 862.981 121.4V136.376ZM937.925 117.816L939.397 118.84C940.165 118.115 940.677 116.451 940.933 113.848H944.132L944.773 128.632L940.933 123.192C939.525 121.784 938.159 120.781 936.837 120.184C935.471 119.587 933.551 119.267 931.077 119.224C928.602 119.224 926.575 120.099 924.997 121.848C923.375 123.597 922.565 125.453 922.565 127.416C922.565 130.445 925.786 133.069 932.229 135.288C936.965 136.952 940.207 138.381 941.957 139.576C946.053 142.307 948.101 146.083 948.101 150.904C948.101 153.251 947.503 155.32 946.309 157.112C945.071 158.947 943.855 160.248 942.661 161.016C939.674 162.979 935.877 163.96 931.269 163.96C928.666 163.96 926.106 163.235 923.589 161.784L920.581 159.608C919.77 159.565 919.301 160.888 919.173 163.576H916.293L915.653 148.792L919.429 154.232C923.354 158.285 926.575 160.312 929.093 160.312C929.221 160.312 929.349 160.312 929.477 160.312C932.933 160.184 935.77 159.139 937.989 157.176C940.165 155.213 941.253 153.144 941.253 150.968C941.253 147.597 939.482 145.165 935.941 143.672C931.375 141.752 926.789 139.789 922.181 137.784C918.084 135.992 916.036 132.877 916.036 128.44V128.184C916.036 126.093 916.527 124.195 917.509 122.488C918.447 120.781 919.685 119.459 921.22 118.52C924.335 116.643 927.237 115.704 929.925 115.704C932.613 115.747 935.279 116.451 937.925 117.816ZM976.172 159.8C983.425 159.8 988.673 157.816 991.916 153.848L993.196 152.12L995.052 153.656C993.388 155.832 992.236 157.197 991.596 157.752C990.913 158.349 990.209 158.925 989.484 159.48C988.716 160.035 987.99 160.483 987.308 160.824C986.582 161.165 986.07 161.421 985.772 161.592L984.812 161.976C981.74 163.128 978.518 163.704 975.148 163.704C971.777 163.704 968.769 163.085 966.124 161.848C963.436 160.611 961.132 158.861 959.212 156.6C957.292 154.339 955.734 151.544 954.54 148.216C953.345 144.888 952.748 141.667 952.748 138.552C952.748 130.701 956.076 124.237 962.732 119.16C966.529 116.301 970.454 114.936 974.508 115.064C980.566 115.235 984.705 116.429 986.924 118.648C988.716 116.813 989.868 114.957 990.38 113.08H992.94V130.232C991.958 127.885 990.657 125.837 989.036 124.088C985.58 120.333 981.676 118.477 977.324 118.52C975.574 118.52 973.932 118.776 972.396 119.288C970.817 119.843 969.26 120.696 967.724 121.848C966.145 123 964.716 124.344 963.436 125.88C962.156 127.416 961.196 129.229 960.556 131.32C959.873 133.411 959.532 135.565 959.532 137.784C959.532 143.885 961.132 149.069 964.332 153.336C967.532 157.645 971.478 159.8 976.172 159.8ZM1014.07 140.856V158.2C1014.37 159.48 1015.35 160.12 1017.02 160.12H1021.18V163H1000.83V160.12H1005.37C1006.52 159.949 1007.4 159.309 1007.99 158.2V121.272C1007.82 120.291 1006.82 119.651 1004.99 119.352H1000.83V116.472H1021.18V119.352H1016.7C1015.55 119.523 1014.67 120.163 1014.07 121.272V137.848H1038.2V121.272C1038.03 120.291 1037.03 119.651 1035.19 119.352H1031.03V116.472H1051.39V119.352H1046.91C1045.75 119.523 1044.88 120.163 1044.28 121.272V158.2C1044.58 159.48 1045.56 160.12 1047.23 160.12H1051.39V163H1031.03V160.12H1035.58C1036.73 159.949 1037.6 159.309 1038.2 158.2V140.856H1014.07ZM1081.68 118.712H1079.57C1075.94 118.712 1072.57 120.803 1069.46 124.984C1066.34 129.165 1064.79 134.243 1064.79 140.216C1064.79 146.189 1066.45 151.117 1069.78 155C1073.11 158.883 1077.12 160.824 1081.81 160.824C1086.46 160.824 1090.3 158.84 1093.33 154.872C1096.32 150.947 1097.81 145.869 1097.81 139.64C1097.81 133.411 1096.17 128.355 1092.88 124.472C1089.55 120.632 1085.82 118.712 1081.68 118.712ZM1060.5 152.12C1058.28 148.451 1057.17 144.397 1057.17 139.96C1057.17 135.523 1058.28 131.427 1060.5 127.672C1062.72 123.96 1065.64 120.973 1069.27 118.712C1072.89 116.451 1076.9 115.32 1081.3 115.32C1085.69 115.32 1089.7 116.387 1093.33 118.52C1096.91 120.653 1099.84 123.576 1102.1 127.288C1104.32 131.043 1105.43 135.224 1105.43 139.832C1105.43 144.483 1104.32 148.643 1102.1 152.312C1099.84 155.981 1096.91 158.883 1093.33 161.016C1089.7 163.192 1085.69 164.28 1081.3 164.28C1076.9 164.28 1072.89 163.171 1069.27 160.952C1065.64 158.733 1062.72 155.789 1060.5 152.12ZM1133.81 118.712H1131.7C1128.07 118.712 1124.7 120.803 1121.58 124.984C1118.47 129.165 1116.91 134.243 1116.91 140.216C1116.91 146.189 1118.58 151.117 1121.9 155C1125.23 158.883 1129.24 160.824 1133.94 160.824C1138.59 160.824 1142.43 158.84 1145.46 154.872C1148.44 150.947 1149.94 145.869 1149.94 139.64C1149.94 133.411 1148.29 128.355 1145.01 124.472C1141.68 120.632 1137.95 118.712 1133.81 118.712ZM1112.62 152.12C1110.4 148.451 1109.3 144.397 1109.3 139.96C1109.3 135.523 1110.4 131.427 1112.62 127.672C1114.84 123.96 1117.76 120.973 1121.39 118.712C1125.02 116.451 1129.03 115.32 1133.42 115.32C1137.82 115.32 1141.83 116.387 1145.46 118.52C1149.04 120.653 1151.96 123.576 1154.22 127.288C1156.44 131.043 1157.55 135.224 1157.55 139.832C1157.55 144.483 1156.44 148.643 1154.22 152.312C1151.96 155.981 1149.04 158.883 1145.46 161.016C1141.83 163.192 1137.82 164.28 1133.42 164.28C1129.03 164.28 1125.02 163.171 1121.39 160.952C1117.76 158.733 1114.84 155.789 1112.62 152.12ZM1175.31 121.4V157.176C1175.52 158.413 1176.18 159.331 1177.29 159.928L1191.82 159.992C1196.51 159.992 1198.86 157.901 1198.86 153.72V151.544H1201.74V163H1162.06V160.12H1166.6C1167.8 159.949 1168.67 159.331 1169.23 158.264V121.72C1169.1 120.995 1168.78 120.355 1168.27 119.8C1167.71 119.288 1167.03 118.968 1166.22 118.84H1162.06V115.96H1182.86V118.968H1177.61C1176.89 119.096 1176.12 119.907 1175.31 121.4Z" fill="#2B3A3E"/>
<path d="M50 116C50 129.807 38.8071 141 25 141H0V116C0 102.193 11.1929 91 25 91C38.8071 91 50 102.193 50 116Z" fill="#C95A38"/>
<path d="M50 166C50 152.193 61.1929 141 75 141H100V166C100 179.807 88.8071 191 75 191C61.1929 191 50 179.807 50 166Z" fill="#C95A38"/>
<path d="M0 166C0 179.807 11.1929 191 25 191H50V166C50 152.193 38.8071 141 25 141C11.1929 141 0 152.193 0 166Z" fill="#C95A38"/>
<path d="M100 116C100 102.193 88.8071 91 75 91H50V116C50 129.807 61.1929 141 75 141C88.8071 141 100 129.807 100 116Z" fill="#C95A38"/>
<path d="M149.112 117.816L150.584 118.84C151.352 118.115 151.864 116.451 152.12 113.848H155.32L155.96 128.632L152.12 123.192C150.712 121.784 149.347 120.781 148.024 120.184C146.659 119.587 144.739 119.267 142.264 119.224C139.789 119.224 137.763 120.099 136.184 121.848C134.563 123.597 133.752 125.453 133.752 127.416C133.752 130.445 136.973 133.069 143.416 135.288C148.152 136.952 151.395 138.381 153.144 139.576C157.24 142.307 159.288 146.083 159.288 150.904C159.288 153.251 158.691 155.32 157.496 157.112C156.259 158.947 155.043 160.248 153.848 161.016C150.861 162.979 147.064 163.96 142.456 163.96C139.853 163.96 137.293 163.235 134.776 161.784L131.768 159.608C130.957 159.565 130.488 160.888 130.36 163.576H127.48L126.84 148.792L130.616 154.232C134.541 158.285 137.763 160.312 140.28 160.312C140.408 160.312 140.536 160.312 140.664 160.312C144.12 160.184 146.957 159.139 149.176 157.176C151.352 155.213 152.44 153.144 152.44 150.968C152.44 147.597 150.669 145.165 147.128 143.672C142.563 141.752 137.976 139.789 133.368 137.784C129.272 135.992 127.224 132.877 127.224 128.44V128.184C127.224 126.093 127.715 124.195 128.696 122.488C129.635 120.781 130.872 119.459 132.408 118.52C135.523 116.643 138.424 115.704 141.112 115.704C143.8 115.747 146.467 116.451 149.112 117.816ZM209.951 160.12H213.471V163H194.079V160.12H197.919C198.815 160.12 199.455 159.864 199.839 159.352C200.18 158.84 200.351 158.392 200.351 158.008V157.176L187.487 125.048L174.367 157.176V157.944C174.367 158.371 174.623 158.84 175.135 159.352C175.604 159.864 176.159 160.12 176.799 160.12H180.639V163H163.935V160.12H167.135C167.86 160.12 168.564 159.8 169.247 159.16C169.93 158.477 170.399 157.816 170.655 157.176L188.575 112.888L206.431 157.176C207.114 158.883 208.287 159.864 209.951 160.12ZM176.863 146.488L178.015 143.48H198.047L199.135 146.488H176.863ZM231.496 143.992V158.2C231.794 159.48 232.776 160.12 234.44 160.12H238.6V163H218.248V160.12H222.792C223.986 159.949 224.861 159.331 225.416 158.264V121.272C225.245 120.291 224.242 119.651 222.408 119.352H218.248V116.472H238.6V119.352H234.12C232.968 119.523 232.093 120.163 231.496 121.272V139.96L252.04 122.552C252.21 122.083 252.296 121.677 252.296 121.336C252.296 120.397 251.57 119.736 250.12 119.352H247.432V116.472H265.352V119.416H263.048C260.189 120.184 257.586 121.571 255.24 123.576L240.456 136.248L261.96 158.072C263.282 159.395 265.074 160.056 267.336 160.056H269.448V163H248.904V160.12L251.847 160.056C253.341 159.587 254.088 159.181 254.088 158.84C254.088 158.499 253.768 157.752 253.128 156.6L236.552 139.64L231.496 143.992ZM278.08 118.52H274.56V115.64H294.272V118.52H290.432C289.536 118.52 288.917 118.755 288.576 119.224C288.192 119.736 288 120.205 288 120.632V145.08C288 154.509 292.267 159.224 300.8 159.224C309.163 159.224 313.536 154.509 313.92 145.08V120.696C313.92 120.269 313.728 119.821 313.344 119.352C312.917 118.925 312.32 118.648 311.552 118.52H307.712V115.64H324.416V118.52H321.216C320.619 118.605 319.893 118.947 319.04 119.544C318.144 120.184 317.696 120.824 317.696 121.464V145.08C317.696 157.027 312 163 300.608 163C287.936 163 281.6 157.027 281.6 145.08V121.464C281.6 119.843 280.427 118.861 278.08 118.52ZM343.192 121.336V138.424H351.448C357.763 138.424 360.92 135.203 360.92 128.76C360.92 122.787 358.936 119.544 354.968 119.032C353.645 118.861 351.619 118.776 348.888 118.776C346.157 118.776 344.536 119.011 344.024 119.48C343.469 119.992 343.192 120.611 343.192 121.336ZM373.4 160.12H376.984V163H356.632V160.12H361.112C362.008 160.12 362.456 159.907 362.456 159.48C362.456 159.181 362.285 158.819 361.944 158.392L348.888 141.304H343.192V158.264C343.192 159.501 344.152 160.12 346.072 160.12H350.296V163H329.56V160.12H334.168C334.808 160.12 335.427 159.928 336.024 159.544C336.579 159.203 336.856 158.776 336.856 158.264V121.656C336.856 120.931 336.579 120.269 336.024 119.672C335.427 119.075 334.68 118.776 333.784 118.776H329.56V115.896H352.792C362.776 115.896 367.768 120.227 367.768 128.888C367.768 136.184 363.672 140.259 355.48 141.112L368.664 158.392C369.645 159.544 371.224 160.12 373.4 160.12ZM427.389 160.12H430.909V163H411.517V160.12H415.357C416.253 160.12 416.893 159.864 417.277 159.352C417.618 158.84 417.789 158.392 417.789 158.008V157.176L404.925 125.048L391.805 157.176V157.944C391.805 158.371 392.061 158.84 392.573 159.352C393.042 159.864 393.597 160.12 394.237 160.12H398.077V163H381.373V160.12H384.573C385.298 160.12 386.002 159.8 386.685 159.16C387.367 158.477 387.837 157.816 388.093 157.176L406.013 112.888L423.869 157.176C424.551 158.883 425.725 159.864 427.389 160.12ZM394.301 146.488L395.453 143.48H415.485L416.573 146.488H394.301Z" fill="#2B3A3E"/>
<path d="M465.84 25.72C465.28 25.8 464.973 25.72 464.92 25.48C464.867 25.24 465 24.8533 465.32 24.32C467.667 20.5867 469.533 16.3867 470.92 11.72C473.773 12.84 475.187 13.6133 475.16 14.04C474.84 14.28 474.307 14.4 473.56 14.4C471.773 18.24 469.2 22.0133 465.84 25.72ZM458.36 12.48C458.173 12.2933 458.093 12.0667 458.12 11.8C458.147 11.6133 458.267 11.52 458.48 11.52C458.667 11.52 458.867 11.5467 459.08 11.6C459.293 11.6533 459.853 12.08 460.76 12.88C463.24 14.8 464.56 16.6267 464.72 18.36C464.72 18.5733 464.72 18.8133 464.72 19.08C464.72 19.3467 464.693 19.6 464.64 19.84C464.347 20.6133 463.907 21 463.32 21C463.08 21 462.8 20.9333 462.48 20.8C462.16 20.6667 461.907 20.16 461.72 19.28C461.213 16.48 460.093 14.2133 458.36 12.48ZM450.4 13.6C450.213 13.4133 450.133 13.1867 450.16 12.92C450.24 12.6 450.56 12.5333 451.12 12.72C451.333 12.7733 451.893 13.2 452.8 14C455.333 15.9467 456.653 17.7733 456.76 19.48C456.787 19.6933 456.8 19.9333 456.8 20.2C456.8 20.4667 456.76 20.72 456.68 20.96C456.413 21.7333 455.973 22.12 455.36 22.12C455.147 22.12 454.867 22.0533 454.52 21.92C454.2 21.7867 453.947 21.28 453.76 20.4C453.333 18 452.213 15.7333 450.4 13.6ZM450.24 47.44C449.68 47.4667 449.387 47.36 449.36 47.12C449.307 46.9067 449.467 46.6133 449.84 46.24C459.973 43.8133 465.68 38.08 466.96 29.04C467.973 29.12 469.12 29.16 470.4 29.16C468.8 39.32 462.08 45.4133 450.24 47.44ZM455.4 35.12C455.32 34.8267 455.44 34.64 455.76 34.56C456.08 34.48 456.453 34.52 456.88 34.68L458.16 35.16C464.293 37.32 468.987 39.7333 472.24 42.4C473.413 43.3867 474 44.4667 474 45.64C474 46.2 473.867 46.7867 473.6 47.4C473.28 47.6133 472.96 47.72 472.64 47.72C471.813 47.72 470.987 47.1067 470.16 45.88C467.173 41.72 462.373 38.32 455.76 35.68C455.6 35.6267 455.48 35.44 455.4 35.12ZM452.48 38.6L454.24 35.52C455.867 31.9733 457.147 28.1467 458.08 24.04L458.48 22.28C458.507 22.12 458.667 22.0667 458.96 22.12C459.227 22.1733 459.947 22.3867 461.12 22.76C462.293 23.1333 462.88 23.4267 462.88 23.64C462.88 24.04 462.347 24.3333 461.28 24.52C460.32 28.76 459.067 32.5467 457.52 35.88L456.24 38.8C456.133 39.04 456.053 39.1733 456 39.2C455.547 39.76 455.04 40.04 454.48 40.04C453.92 40.04 453.427 39.9467 453 39.76C452.573 39.6 452.36 39.4 452.36 39.16C452.36 38.8933 452.4 38.7067 452.48 38.6ZM451.96 30.2L450.04 28.08C452.067 28.4 453.773 28.56 455.16 28.56L469.8 28.56L472.16 25.88C474.187 27.96 475.2 29.08 475.2 29.24C475.2 29.56 474.88 29.7067 474.24 29.68L454.28 29.68L451.96 30.2ZM445.84 26.2V43.32C446 45.4533 446.08 46.6 446.08 46.76C446 47.2933 445.187 47.56 443.64 47.56C443.08 47.56 442.76 47.2533 442.68 46.64L442.88 43.32V29.24C441.36 33.2933 439.72 36.3867 437.96 38.52C437.693 38.6267 437.48 38.68 437.32 38.68C437.16 38.68 437.08 38.6267 437.08 38.52C437.08 38.4133 437.213 38.04 437.48 37.4C440.04 31.1067 441.587 25.76 442.12 21.36H440.2C439.507 21.44 439.027 21.56 438.76 21.72C438.493 21.88 438.333 21.96 438.28 21.96L437 19.76C438.653 20 439.96 20.1333 440.92 20.16H442.88V13.92C442.747 12.72 442.68 12.08 442.68 12C442.68 11.92 442.8 11.88 443.04 11.88C443.253 11.88 443.973 11.9733 445.2 12.16C446.427 12.3467 447.04 12.5467 447.04 12.76L445.84 14.04V20.16L446.36 20.2L448.24 17.8C449.36 18.8933 450.333 19.92 451.16 20.88C451.16 21.2 450.867 21.36 450.28 21.36H445.84V24.44C447.627 25.5067 448.827 26.5867 449.44 27.68C450.027 28.4 450.32 29.4 450.32 30.68C450.32 32.52 449.947 33.44 449.2 33.44C448.693 33.44 448.2 32.5333 447.72 30.72C447.24 28.9067 446.613 27.4 445.84 26.2ZM460.64 87.68H466.32C466.427 85.3867 466.533 83.0933 466.64 80.8C466.64 80.72 466.587 80.56 466.48 80.32H462L460.64 87.68ZM474.08 88.76H455.64C454.28 88.76 453.32 88.8267 452.76 88.96L451.56 87.24C452.84 87.5333 454 87.68 455.04 87.68H457.24L458.56 80.32H456.32L453.92 80.64C453.12 79.5733 452.72 79.0267 452.72 79C452.773 78.8933 452.813 78.8533 452.84 78.88C452.867 78.9333 453.24 79.0267 453.96 79.16C454.68 79.32 455.427 79.4 456.2 79.4H458.76L459.92 73.6H456.2C455.16 73.6 454.2 73.6667 453.32 73.8L452.12 72.08C453.533 72.3733 454.693 72.52 455.6 72.52H468C468.587 71.9333 469.307 71.24 470.16 70.44C472.187 71.8267 473.2 72.7067 473.2 73.08C473.2 73.3733 472.907 73.5467 472.32 73.6H463.36L462.2 79.36H465.28C465.653 79.2 466.12 78.8 466.68 78.16C467.24 77.5467 467.6 77.24 467.76 77.24C468.24 77.24 468.947 77.6 469.88 78.32C470.813 79.04 471.28 79.56 471.28 79.88C471.28 80.0133 471.013 80.2667 470.48 80.64C469.947 81.04 469.68 81.3733 469.68 81.64L469.36 87.68H470.4C471.12 86.88 471.773 86.1867 472.36 85.6C474.12 86.9867 475 87.8667 475 88.24C475 88.5333 474.693 88.7067 474.08 88.76ZM458.24 92.68H466.8C467.147 92.52 467.6 92.0933 468.16 91.4C468.72 90.7067 469.08 90.36 469.24 90.36C469.373 90.36 470.013 90.7867 471.16 91.64C472.28 92.4933 472.84 93.1467 472.84 93.6C472.84 93.7333 472.56 94 472 94.4C471.44 94.8 471.16 95.12 471.16 95.36V101.68L471.4 105.76C471.32 106.293 470.373 106.56 468.56 106.56C468.373 106.56 468.2 106.467 468.04 106.28C467.88 106.093 467.8 105.787 467.8 105.36C467.8 104.933 467.84 104.12 467.92 102.92H457.92C458.027 103.933 458.08 104.653 458.08 105.08V105.76C458 106.293 457.053 106.56 455.24 106.56C454.733 106.56 454.48 106.227 454.48 105.56L454.64 101.68V92.88L454.44 91.08C454.413 90.92 454.48 90.84 454.64 90.84C454.8 90.84 455.347 91.1067 456.28 91.64C457.187 92.2 457.84 92.5467 458.24 92.68ZM467.96 101.84V94.36C467.96 94.12 467.88 93.8933 467.72 93.68H457.84V101.84H467.96ZM438.76 92.04L442.72 93.76H446.64L448.56 91.56C450.8 93.0533 451.92 93.96 451.92 94.28L450.8 95.72V100.2L451.04 103.56C450.987 104.093 450.187 104.36 448.64 104.36H448.2C447.72 104.333 447.48 104.04 447.48 103.48C447.48 103.267 447.507 103.013 447.56 102.72H442.28C442.387 103.76 442.44 104.653 442.44 105.4C442.44 106.173 441.44 106.56 439.44 106.56C438.96 106.56 438.693 106.24 438.64 105.6L438.84 101.64V94.96C438.84 94.0267 438.773 93.44 438.64 93.2C438.507 92.96 438.547 92.5733 438.76 92.04ZM447.36 94.6H442.28C442.28 95.0267 442.267 95.2533 442.24 95.28V101.76H447.6V95.72C447.6 95.2133 447.52 94.84 447.36 94.6ZM451.4 78.48H440.92L438.72 78.68L437 77.16C438.52 77.32 439.627 77.4 440.32 77.4H447.56L449.92 75.24C451.653 77.0533 452.52 78.0533 452.52 78.24C452.52 78.4267 452.373 78.52 452.08 78.52C451.787 78.52 451.56 78.5067 451.4 78.48ZM446.72 82.52L449.08 80.36L451.92 83.32C451.92 83.4267 451.6 83.5067 450.96 83.56H442.56L439.4 83.8L438.08 82.04C439.147 82.3067 440.387 82.4667 441.8 82.52H446.72ZM446.72 87.72L449.08 85.56L451.92 88.52C451.92 88.6267 451.6 88.7067 450.96 88.76H442.56L439.28 88.96L438.08 87.24C440.053 87.5067 441.333 87.6667 441.92 87.72H446.72ZM445.32 72.72L447.68 70.56L450.52 73.52C450.52 73.6267 450.2 73.7067 449.56 73.76H443.92L440.84 74L439.44 72.24C440.933 72.56 442.12 72.72 443 72.72H445.32ZM461.88 137.36C461.32 137.44 461 137.32 460.92 137C460.84 136.707 460.987 136.36 461.36 135.96C462.907 133.533 464.067 131.267 464.84 129.16C468.067 129.88 469.707 130.467 469.76 130.92L467.48 131.84C466.093 133.653 464.227 135.493 461.88 137.36ZM446.68 133.72L444.32 130.28C444.347 130.04 444.493 129.92 444.76 129.92C445 129.92 445.333 130.04 445.76 130.28C448.64 131.88 450.093 133.347 450.12 134.68C450.12 136.147 449.787 136.88 449.12 136.88C448.907 136.88 448.64 136.787 448.32 136.6C447.973 136.44 447.427 135.48 446.68 133.72ZM443.36 137.48H469.44L471.76 135.08C474.053 136.707 475.2 137.867 475.2 138.56C475.2 138.72 474.933 138.8 474.4 138.8L468.8 143.08C468.507 143.187 468.267 143.093 468.08 142.8L469.28 138.8H443.16C442.947 141.307 442.213 142.733 440.96 143.08C440.587 143.187 440.253 143.24 439.96 143.24C439.187 143.24 438.8 142.827 438.8 142C438.8 141.173 439.427 140.133 440.68 138.88C441.267 138.293 441.867 136.987 442.48 134.96C442.56 134.693 442.64 134.547 442.72 134.52C442.773 134.52 442.813 134.52 442.84 134.52C443.08 134.52 443.227 134.96 443.28 135.84L443.36 137.48ZM454.28 133.04L451.92 129.6C451.947 129.387 452.093 129.28 452.36 129.28C452.6 129.28 452.933 129.387 453.36 129.6C456.267 131.2 457.72 132.693 457.72 134.08C457.72 135.493 457.387 136.2 456.72 136.2C456.507 136.2 456.24 136.107 455.92 135.92C455.573 135.76 455.027 134.8 454.28 133.04ZM461.72 144.64H450.08C449.28 144.667 448.653 144.773 448.2 144.96C447.747 145.147 447.467 145.24 447.36 145.24C447.253 145.267 447.147 145.227 447.04 145.12L445.36 143.36C445.307 143.2 445.387 143.08 445.6 143C447.147 143.267 449.36 143.4 452.24 143.4C455.12 143.427 458.347 143.44 461.92 143.44C463.36 142.267 464.213 141.68 464.48 141.68H464.52C466.28 143.333 467.16 144.507 467.16 145.2C464.387 146.693 461.613 148.2 458.84 149.72C459.187 149.827 459.36 149.947 459.36 150.08C459.36 150.213 459.16 150.4 458.76 150.64C458.333 150.88 458.12 151.133 458.12 151.4V152.68H467.88C468.04 152.68 468.387 152.427 468.92 151.92C469.427 151.44 469.76 151.08 469.92 150.84C470.08 150.627 470.32 150.52 470.64 150.52C470.933 150.52 471.187 150.613 471.4 150.8C473.533 152.587 474.6 153.547 474.6 153.68C474.6 153.84 474.293 153.92 473.68 153.92H458.12V162.72C458.12 163.333 457.853 163.96 457.32 164.6C456.787 165.267 456.28 165.6 455.8 165.6C455.293 165.6 454.907 165.48 454.64 165.24C452.72 163.4 450.467 162.44 447.88 162.36C447.507 162.253 447.32 162.093 447.32 161.88C447.32 161.667 447.493 161.52 447.84 161.44L455 162.12L455.28 161.44V153.92H442.12C441.32 153.973 440.68 154.08 440.2 154.24C439.693 154.427 439.413 154.507 439.36 154.48C438.507 153.653 437.853 152.987 437.4 152.48C437.4 152.32 437.467 152.24 437.6 152.24C439.147 152.507 441.013 152.653 443.2 152.68H455.28V151.28C455.28 150.88 455.24 150.467 455.16 150.04C455.08 149.64 455.067 149.387 455.12 149.28C455.147 149.2 455.253 149.16 455.44 149.16C455.627 149.16 456.08 149.227 456.8 149.36C458.453 147.76 460.093 146.187 461.72 144.64ZM461.88 196.36C461.32 196.44 461 196.32 460.92 196C460.84 195.707 460.987 195.36 461.36 194.96C462.907 192.533 464.067 190.267 464.84 188.16C468.067 188.88 469.707 189.467 469.76 189.92L467.48 190.84C466.093 192.653 464.227 194.493 461.88 196.36ZM446.68 192.72L444.32 189.28C444.347 189.04 444.493 188.92 444.76 188.92C445 188.92 445.333 189.04 445.76 189.28C448.64 190.88 450.093 192.347 450.12 193.68C450.12 195.147 449.787 195.88 449.12 195.88C448.907 195.88 448.64 195.787 448.32 195.6C447.973 195.44 447.427 194.48 446.68 192.72ZM443.36 196.48H469.44L471.76 194.08C474.053 195.707 475.2 196.867 475.2 197.56C475.2 197.72 474.933 197.8 474.4 197.8L468.8 202.08C468.507 202.187 468.267 202.093 468.08 201.8L469.28 197.8H443.16C442.947 200.307 442.213 201.733 440.96 202.08C440.587 202.187 440.253 202.24 439.96 202.24C439.187 202.24 438.8 201.827 438.8 201C438.8 200.173 439.427 199.133 440.68 197.88C441.267 197.293 441.867 195.987 442.48 193.96C442.56 193.693 442.64 193.547 442.72 193.52C442.773 193.52 442.813 193.52 442.84 193.52C443.08 193.52 443.227 193.96 443.28 194.84L443.36 196.48ZM454.28 192.04L451.92 188.6C451.947 188.387 452.093 188.28 452.36 188.28C452.6 188.28 452.933 188.387 453.36 188.6C456.267 190.2 457.72 191.693 457.72 193.08C457.72 194.493 457.387 195.2 456.72 195.2C456.507 195.2 456.24 195.107 455.92 194.92C455.573 194.76 455.027 193.8 454.28 192.04ZM461.72 203.64H450.08C449.28 203.667 448.653 203.773 448.2 203.96C447.747 204.147 447.467 204.24 447.36 204.24C447.253 204.267 447.147 204.227 447.04 204.12L445.36 202.36C445.307 202.2 445.387 202.08 445.6 202C447.147 202.267 449.36 202.4 452.24 202.4C455.12 202.427 458.347 202.44 461.92 202.44C463.36 201.267 464.213 200.68 464.48 200.68H464.52C466.28 202.333 467.16 203.507 467.16 204.2C464.387 205.693 461.613 207.2 458.84 208.72C459.187 208.827 459.36 208.947 459.36 209.08C459.36 209.213 459.16 209.4 458.76 209.64C458.333 209.88 458.12 210.133 458.12 210.4V211.68H467.88C468.04 211.68 468.387 211.427 468.92 210.92C469.427 210.44 469.76 210.08 469.92 209.84C470.08 209.627 470.32 209.52 470.64 209.52C470.933 209.52 471.187 209.613 471.4 209.8C473.533 211.587 474.6 212.547 474.6 212.68C474.6 212.84 474.293 212.92 473.68 212.92H458.12V221.72C458.12 222.333 457.853 222.96 457.32 223.6C456.787 224.267 456.28 224.6 455.8 224.6C455.293 224.6 454.907 224.48 454.64 224.24C452.72 222.4 450.467 221.44 447.88 221.36C447.507 221.253 447.32 221.093 447.32 220.88C447.32 220.667 447.493 220.52 447.84 220.44L455 221.12L455.28 220.44V212.92H442.12C441.32 212.973 440.68 213.08 440.2 213.24C439.693 213.427 439.413 213.507 439.36 213.48C438.507 212.653 437.853 211.987 437.4 211.48C437.4 211.32 437.467 211.24 437.6 211.24C439.147 211.507 441.013 211.653 443.2 211.68H455.28V210.28C455.28 209.88 455.24 209.467 455.16 209.04C455.08 208.64 455.067 208.387 455.12 208.28C455.147 208.2 455.253 208.16 455.44 208.16C455.627 208.16 456.08 208.227 456.8 208.36C458.453 206.76 460.093 205.187 461.72 203.64ZM446.44 261.72V279.32C446.6 281.453 446.68 282.6 446.68 282.76C446.6 283.293 445.787 283.56 444.24 283.56C443.68 283.56 443.36 283.253 443.28 282.64L443.48 279.32V265.24C441.827 269.293 440.027 272.64 438.08 275.28C437.813 275.387 437.6 275.44 437.44 275.44C437.28 275.44 437.2 275.36 437.2 275.2C437.2 275.067 437.333 274.72 437.6 274.16C440.507 267.867 442.213 262.267 442.72 257.36H440.4C439.707 257.44 439.227 257.56 438.96 257.72C438.693 257.88 438.533 257.96 438.48 257.96L437.2 255.76C438.853 256 440.16 256.133 441.12 256.16H443.48V249.92C443.347 248.72 443.28 248.08 443.28 248C443.28 247.92 443.4 247.88 443.64 247.88C443.853 247.88 444.573 247.973 445.8 248.16C447.027 248.347 447.64 248.547 447.64 248.76L446.44 250.04V256.16L447.16 256.2L449.04 253.8C450.56 255 451.533 256.027 451.96 256.88C451.96 257.2 451.667 257.36 451.08 257.36H446.44V259.96C448.12 261.027 449.32 261.947 450.04 262.72C450.627 263.44 450.92 264.44 450.92 265.72C450.92 267.533 450.453 268.44 449.52 268.44C449.253 268.44 448.787 267.4 448.12 265.32C447.48 263.267 446.92 262.067 446.44 261.72ZM475.2 280.64C473.867 281.787 472.88 282.88 472.24 283.92C464.32 279.28 459.093 273.12 456.56 265.44C456.613 264.64 456.8 264.24 457.12 264.24C457.28 264.24 457.467 264.347 457.68 264.56C460.613 272 466.453 277.36 475.2 280.64ZM450.36 283.76C449.853 283.973 449.6 283.853 449.6 283.4C449.6 282.867 449.773 282.44 450.12 282.12C457.533 278.467 462.8 272.067 465.92 262.92C468.827 264.04 470.253 264.827 470.2 265.28C469.667 265.387 469.147 265.48 468.64 265.56C464.107 274.573 458.013 280.64 450.36 283.76ZM465.56 258.24C465.533 257.92 465.747 257.773 466.2 257.8C466.893 257.827 467.747 258.213 468.76 258.96C471.933 261.253 473.52 263.453 473.52 265.56C473.52 266.707 473 267.28 471.96 267.28C471.453 267.28 471.053 266.853 470.76 266C469.613 262.507 467.947 260.12 465.76 258.84C465.627 258.76 465.56 258.56 465.56 258.24ZM452.32 268.52C452.16 268.573 451.973 268.6 451.76 268.6C451.547 268.6 451.387 268.467 451.28 268.2C451.173 267.933 451.28 267.587 451.6 267.16C454.027 263.88 455.64 260.68 456.44 257.56C459.72 257.987 461.373 258.427 461.4 258.88L459.24 259.92C457.427 262.96 455.12 265.827 452.32 268.52ZM474 255.76C467.813 255.76 461.627 255.76 455.44 255.76C454.773 255.76 453.88 255.947 452.76 256.32L450.8 254.48L451.08 254.04C452.6 254.28 454.427 254.413 456.56 254.44H460.8V249.88L460.6 248.08C460.573 247.893 460.667 247.8 460.88 247.8C463.733 248.067 465.173 248.373 465.2 248.72C465.2 248.853 465 249.027 464.6 249.24C464.2 249.48 464 249.733 464 250V254.44H468.68L471 252.04C473.56 253.667 474.84 254.827 474.84 255.52C474.84 255.68 474.56 255.76 474 255.76Z" fill="#C95A38"/>
</svg>
