<svg width="1205" height="354" viewBox="0 0 1205 354" fill="none" xmlns="http://www.w3.org/2000/svg">
<path d="M493.808 134.4V170.176C494.021 171.413 494.683 172.331 495.792 172.928L510.32 172.992C515.013 172.992 517.36 170.901 517.36 166.72V164.544H520.24V176H480.56V173.12H485.104C486.299 172.949 487.173 172.331 487.728 171.264V134.72C487.6 133.995 487.28 133.355 486.768 132.8C486.213 132.288 485.531 131.968 484.72 131.84H480.56V128.96H501.36V131.968H496.112C495.387 132.096 494.619 132.907 493.808 134.4ZM571.389 173.12H574.909V176H555.517V173.12H559.357C560.253 173.12 560.893 172.864 561.277 172.352C561.618 171.84 561.789 171.392 561.789 171.008V170.176L548.925 138.048L535.805 170.176V170.944C535.805 171.371 536.061 171.84 536.573 172.352C537.042 172.864 537.597 173.12 538.237 173.12H542.077V176H525.373V173.12H528.573C529.298 173.12 530.002 172.8 530.685 172.16C531.367 171.477 531.837 170.816 532.093 170.176L550.013 125.888L567.869 170.176C568.551 171.883 569.725 172.864 571.389 173.12ZM538.301 159.488L539.453 156.48H559.485L560.573 159.488H538.301ZM593.317 139.456V168.832C593.317 171.691 595.216 173.12 599.013 173.12H600.421V176H581.605V173.12L583.205 173.056C586.917 172.928 588.773 171.52 588.773 168.832V134.272C588.602 133.291 587.6 132.651 585.765 132.352H581.605V129.472H593.445L621.221 162.304V136.832C621.221 133.845 619.429 132.352 615.845 132.352H614.053V129.472H632.869V132.416H631.205C627.578 132.416 625.765 133.888 625.765 136.832V177.92L593.317 139.456ZM661.183 128.064C667.412 128.064 671.722 129.259 674.111 131.648C675.903 129.813 677.055 127.957 677.567 126.08H680.127V143.232C679.146 140.885 677.844 138.837 676.223 137.088C672.81 133.376 668.948 131.52 664.639 131.52C664.596 131.52 664.554 131.52 664.511 131.52C659.348 131.52 654.719 133.973 650.623 138.88C648.02 141.995 646.719 145.963 646.719 150.784C646.719 157.397 648.191 162.688 651.135 166.656C654.079 170.667 658.218 172.672 663.551 172.672C668.671 172.672 672.639 171.456 675.455 169.024V159.488C675.071 157.312 674.068 156.224 672.447 156.224H668.351V153.28H686.911V156.224H683.007C681.386 156.224 680.575 157.312 680.575 159.488V170.944C676.564 174.784 670.484 176.704 662.335 176.704C658.964 176.704 655.956 176.085 653.311 174.848C650.623 173.611 648.319 171.861 646.399 169.6C644.479 167.339 642.922 164.544 641.727 161.216C640.532 157.888 639.935 154.667 639.935 151.552C639.935 143.701 643.263 137.237 649.919 132.16C653.546 129.429 657.3 128.064 661.183 128.064ZM694.018 131.52H690.498V128.64H710.21V131.52H706.37C705.474 131.52 704.855 131.755 704.514 132.224C704.13 132.736 703.938 133.205 703.938 133.632V158.08C703.938 167.509 708.204 172.224 716.738 172.224C725.1 172.224 729.474 167.509 729.858 158.08V133.696C729.858 133.269 729.666 132.821 729.282 132.352C728.855 131.925 728.258 131.648 727.49 131.52H723.65V128.64H740.354V131.52H737.154C736.556 131.605 735.831 131.947 734.978 132.544C734.082 133.184 733.634 133.824 733.634 134.464V158.08C733.634 170.027 727.938 176 716.546 176C703.874 176 697.538 170.027 697.538 158.08V134.464C697.538 132.843 696.364 131.861 694.018 131.52ZM791.514 173.12H795.034V176H775.642V173.12H779.482C780.378 173.12 781.018 172.864 781.402 172.352C781.743 171.84 781.914 171.392 781.914 171.008V170.176L769.05 138.048L755.93 170.176V170.944C755.93 171.371 756.186 171.84 756.698 172.352C757.167 172.864 757.722 173.12 758.362 173.12H762.202V176H745.498V173.12H748.698C749.423 173.12 750.127 172.8 750.81 172.16C751.492 171.477 751.962 170.816 752.218 170.176L770.138 125.888L787.994 170.176C788.676 171.883 789.85 172.864 791.514 173.12ZM758.426 159.488L759.578 156.48H779.61L780.698 159.488H758.426ZM821.058 128.064C827.287 128.064 831.597 129.259 833.986 131.648C835.778 129.813 836.93 127.957 837.442 126.08H840.002V143.232C839.021 140.885 837.719 138.837 836.098 137.088C832.685 133.376 828.823 131.52 824.514 131.52C824.471 131.52 824.429 131.52 824.386 131.52C819.223 131.52 814.594 133.973 810.498 138.88C807.895 141.995 806.594 145.963 806.594 150.784C806.594 157.397 808.066 162.688 811.01 166.656C813.954 170.667 818.093 172.672 823.426 172.672C828.546 172.672 832.514 171.456 835.33 169.024V159.488C834.946 157.312 833.943 156.224 832.322 156.224H828.226V153.28H846.786V156.224H842.882C841.261 156.224 840.45 157.312 840.45 159.488V170.944C836.439 174.784 830.359 176.704 822.21 176.704C818.839 176.704 815.831 176.085 813.186 174.848C810.498 173.611 808.194 171.861 806.274 169.6C804.354 167.339 802.797 164.544 801.602 161.216C800.407 157.888 799.81 154.667 799.81 151.552C799.81 143.701 803.138 137.237 809.794 132.16C813.421 129.429 817.175 128.064 821.058 128.064ZM862.981 149.376H876.677C878.81 148.693 879.877 147.285 879.877 145.152V142.272H882.757V159.424H879.877V156.16C879.877 154.496 878.81 153.216 876.677 152.32H862.981V170.176C863.194 171.413 863.855 172.331 864.965 172.928L883.205 172.992C885.423 172.693 886.533 171.499 886.533 169.408V165.888H889.413V176H849.733V173.12H854.277C855.471 172.949 856.346 172.331 856.901 171.264V134.72C856.773 133.995 856.453 133.355 855.941 132.8C855.386 132.288 854.703 131.968 853.893 131.84H849.733V128.96H888.389V139.136H885.509V135.232C885.338 134.037 884.271 132.949 882.309 131.968H865.285C864.559 132.096 863.791 132.907 862.981 134.4V149.376ZM937.925 130.816L939.397 131.84C940.165 131.115 940.677 129.451 940.933 126.848H944.132L944.773 141.632L940.933 136.192C939.525 134.784 938.159 133.781 936.837 133.184C935.471 132.587 933.551 132.267 931.077 132.224C928.602 132.224 926.575 133.099 924.997 134.848C923.375 136.597 922.565 138.453 922.565 140.416C922.565 143.445 925.786 146.069 932.229 148.288C936.965 149.952 940.207 151.381 941.957 152.576C946.053 155.307 948.101 159.083 948.101 163.904C948.101 166.251 947.503 168.32 946.309 170.112C945.071 171.947 943.855 173.248 942.661 174.016C939.674 175.979 935.877 176.96 931.269 176.96C928.666 176.96 926.106 176.235 923.589 174.784L920.581 172.608C919.77 172.565 919.301 173.888 919.173 176.576H916.293L915.653 161.792L919.429 167.232C923.354 171.285 926.575 173.312 929.093 173.312C929.221 173.312 929.349 173.312 929.477 173.312C932.933 173.184 935.77 172.139 937.989 170.176C940.165 168.213 941.253 166.144 941.253 163.968C941.253 160.597 939.482 158.165 935.941 156.672C931.375 154.752 926.789 152.789 922.181 150.784C918.084 148.992 916.036 145.877 916.036 141.44V141.184C916.036 139.093 916.527 137.195 917.509 135.488C918.447 133.781 919.685 132.459 921.22 131.52C924.335 129.643 927.237 128.704 929.925 128.704C932.613 128.747 935.279 129.451 937.925 130.816ZM976.172 172.8C983.425 172.8 988.673 170.816 991.916 166.848L993.196 165.12L995.052 166.656C993.388 168.832 992.236 170.197 991.596 170.752C990.913 171.349 990.209 171.925 989.484 172.48C988.716 173.035 987.99 173.483 987.308 173.824C986.582 174.165 986.07 174.421 985.772 174.592L984.812 174.976C981.74 176.128 978.518 176.704 975.148 176.704C971.777 176.704 968.769 176.085 966.124 174.848C963.436 173.611 961.132 171.861 959.212 169.6C957.292 167.339 955.734 164.544 954.54 161.216C953.345 157.888 952.748 154.667 952.748 151.552C952.748 143.701 956.076 137.237 962.732 132.16C966.529 129.301 970.454 127.936 974.508 128.064C980.566 128.235 984.705 129.429 986.924 131.648C988.716 129.813 989.868 127.957 990.38 126.08H992.94V143.232C991.958 140.885 990.657 138.837 989.036 137.088C985.58 133.333 981.676 131.477 977.324 131.52C975.574 131.52 973.932 131.776 972.396 132.288C970.817 132.843 969.26 133.696 967.724 134.848C966.145 136 964.716 137.344 963.436 138.88C962.156 140.416 961.196 142.229 960.556 144.32C959.873 146.411 959.532 148.565 959.532 150.784C959.532 156.885 961.132 162.069 964.332 166.336C967.532 170.645 971.478 172.8 976.172 172.8ZM1014.07 153.856V171.2C1014.37 172.48 1015.35 173.12 1017.02 173.12H1021.18V176H1000.83V173.12H1005.37C1006.52 172.949 1007.4 172.309 1007.99 171.2V134.272C1007.82 133.291 1006.82 132.651 1004.99 132.352H1000.83V129.472H1021.18V132.352H1016.7C1015.55 132.523 1014.67 133.163 1014.07 134.272V150.848H1038.2V134.272C1038.03 133.291 1037.03 132.651 1035.19 132.352H1031.03V129.472H1051.39V132.352H1046.91C1045.75 132.523 1044.88 133.163 1044.28 134.272V171.2C1044.58 172.48 1045.56 173.12 1047.23 173.12H1051.39V176H1031.03V173.12H1035.58C1036.73 172.949 1037.6 172.309 1038.2 171.2V153.856H1014.07ZM1081.68 131.712H1079.57C1075.94 131.712 1072.57 133.803 1069.46 137.984C1066.34 142.165 1064.79 147.243 1064.79 153.216C1064.79 159.189 1066.45 164.117 1069.78 168C1073.11 171.883 1077.12 173.824 1081.81 173.824C1086.46 173.824 1090.3 171.84 1093.33 167.872C1096.32 163.947 1097.81 158.869 1097.81 152.64C1097.81 146.411 1096.17 141.355 1092.88 137.472C1089.55 133.632 1085.82 131.712 1081.68 131.712ZM1060.5 165.12C1058.28 161.451 1057.17 157.397 1057.17 152.96C1057.17 148.523 1058.28 144.427 1060.5 140.672C1062.72 136.96 1065.64 133.973 1069.27 131.712C1072.89 129.451 1076.9 128.32 1081.3 128.32C1085.69 128.32 1089.7 129.387 1093.33 131.52C1096.91 133.653 1099.84 136.576 1102.1 140.288C1104.32 144.043 1105.43 148.224 1105.43 152.832C1105.43 157.483 1104.32 161.643 1102.1 165.312C1099.84 168.981 1096.91 171.883 1093.33 174.016C1089.7 176.192 1085.69 177.28 1081.3 177.28C1076.9 177.28 1072.89 176.171 1069.27 173.952C1065.64 171.733 1062.72 168.789 1060.5 165.12ZM1133.81 131.712H1131.7C1128.07 131.712 1124.7 133.803 1121.58 137.984C1118.47 142.165 1116.91 147.243 1116.91 153.216C1116.91 159.189 1118.58 164.117 1121.9 168C1125.23 171.883 1129.24 173.824 1133.94 173.824C1138.59 173.824 1142.43 171.84 1145.46 167.872C1148.44 163.947 1149.94 158.869 1149.94 152.64C1149.94 146.411 1148.29 141.355 1145.01 137.472C1141.68 133.632 1137.95 131.712 1133.81 131.712ZM1112.62 165.12C1110.4 161.451 1109.3 157.397 1109.3 152.96C1109.3 148.523 1110.4 144.427 1112.62 140.672C1114.84 136.96 1117.76 133.973 1121.39 131.712C1125.02 129.451 1129.03 128.32 1133.42 128.32C1137.82 128.32 1141.83 129.387 1145.46 131.52C1149.04 133.653 1151.96 136.576 1154.22 140.288C1156.44 144.043 1157.55 148.224 1157.55 152.832C1157.55 157.483 1156.44 161.643 1154.22 165.312C1151.96 168.981 1149.04 171.883 1145.46 174.016C1141.83 176.192 1137.82 177.28 1133.42 177.28C1129.03 177.28 1125.02 176.171 1121.39 173.952C1117.76 171.733 1114.84 168.789 1112.62 165.12ZM1175.31 134.4V170.176C1175.52 171.413 1176.18 172.331 1177.29 172.928L1191.82 172.992C1196.51 172.992 1198.86 170.901 1198.86 166.72V164.544H1201.74V176H1162.06V173.12H1166.6C1167.8 172.949 1168.67 172.331 1169.23 171.264V134.72C1169.1 133.995 1168.78 133.355 1168.27 132.8C1167.71 132.288 1167.03 131.968 1166.22 131.84H1162.06V128.96H1182.86V131.968H1177.61C1176.89 132.096 1176.12 132.907 1175.31 134.4Z" fill="#2B3A3E"/>
<path d="M50 129C50 142.807 38.8071 154 25 154H0V129C0 115.193 11.1929 104 25 104C38.8071 104 50 115.193 50 129Z" fill="#C95A38"/>
<path d="M50 179C50 165.193 61.1929 154 75 154H100V179C100 192.807 88.8071 204 75 204C61.1929 204 50 192.807 50 179Z" fill="#C95A38"/>
<path d="M0 179C0 192.807 11.1929 204 25 204H50V179C50 165.193 38.8071 154 25 154C11.1929 154 0 165.193 0 179Z" fill="#C95A38"/>
<path d="M100 129C100 115.193 88.8071 104 75 104H50V129C50 142.807 61.1929 154 75 154C88.8071 154 100 142.807 100 129Z" fill="#C95A38"/>
<path d="M149.112 130.816L150.584 131.84C151.352 131.115 151.864 129.451 152.12 126.848H155.32L155.96 141.632L152.12 136.192C150.712 134.784 149.347 133.781 148.024 133.184C146.659 132.587 144.739 132.267 142.264 132.224C139.789 132.224 137.763 133.099 136.184 134.848C134.563 136.597 133.752 138.453 133.752 140.416C133.752 143.445 136.973 146.069 143.416 148.288C148.152 149.952 151.395 151.381 153.144 152.576C157.24 155.307 159.288 159.083 159.288 163.904C159.288 166.251 158.691 168.32 157.496 170.112C156.259 171.947 155.043 173.248 153.848 174.016C150.861 175.979 147.064 176.96 142.456 176.96C139.853 176.96 137.293 176.235 134.776 174.784L131.768 172.608C130.957 172.565 130.488 173.888 130.36 176.576H127.48L126.84 161.792L130.616 167.232C134.541 171.285 137.763 173.312 140.28 173.312C140.408 173.312 140.536 173.312 140.664 173.312C144.12 173.184 146.957 172.139 149.176 170.176C151.352 168.213 152.44 166.144 152.44 163.968C152.44 160.597 150.669 158.165 147.128 156.672C142.563 154.752 137.976 152.789 133.368 150.784C129.272 148.992 127.224 145.877 127.224 141.44V141.184C127.224 139.093 127.715 137.195 128.696 135.488C129.635 133.781 130.872 132.459 132.408 131.52C135.523 129.643 138.424 128.704 141.112 128.704C143.8 128.747 146.467 129.451 149.112 130.816ZM209.951 173.12H213.471V176H194.079V173.12H197.919C198.815 173.12 199.455 172.864 199.839 172.352C200.18 171.84 200.351 171.392 200.351 171.008V170.176L187.487 138.048L174.367 170.176V170.944C174.367 171.371 174.623 171.84 175.135 172.352C175.604 172.864 176.159 173.12 176.799 173.12H180.639V176H163.935V173.12H167.135C167.86 173.12 168.564 172.8 169.247 172.16C169.93 171.477 170.399 170.816 170.655 170.176L188.575 125.888L206.431 170.176C207.114 171.883 208.287 172.864 209.951 173.12ZM176.863 159.488L178.015 156.48H198.047L199.135 159.488H176.863ZM231.496 156.992V171.2C231.794 172.48 232.776 173.12 234.44 173.12H238.6V176H218.248V173.12H222.792C223.986 172.949 224.861 172.331 225.416 171.264V134.272C225.245 133.291 224.242 132.651 222.408 132.352H218.248V129.472H238.6V132.352H234.12C232.968 132.523 232.093 133.163 231.496 134.272V152.96L252.04 135.552C252.21 135.083 252.296 134.677 252.296 134.336C252.296 133.397 251.57 132.736 250.12 132.352H247.432V129.472H265.352V132.416H263.048C260.189 133.184 257.586 134.571 255.24 136.576L240.456 149.248L261.96 171.072C263.282 172.395 265.074 173.056 267.336 173.056H269.448V176H248.904V173.12L251.847 173.056C253.341 172.587 254.088 172.181 254.088 171.84C254.088 171.499 253.768 170.752 253.128 169.6L236.552 152.64L231.496 156.992ZM278.08 131.52H274.56V128.64H294.272V131.52H290.432C289.536 131.52 288.917 131.755 288.576 132.224C288.192 132.736 288 133.205 288 133.632V158.08C288 167.509 292.267 172.224 300.8 172.224C309.163 172.224 313.536 167.509 313.92 158.08V133.696C313.92 133.269 313.728 132.821 313.344 132.352C312.917 131.925 312.32 131.648 311.552 131.52H307.712V128.64H324.416V131.52H321.216C320.619 131.605 319.893 131.947 319.04 132.544C318.144 133.184 317.696 133.824 317.696 134.464V158.08C317.696 170.027 312 176 300.608 176C287.936 176 281.6 170.027 281.6 158.08V134.464C281.6 132.843 280.427 131.861 278.08 131.52ZM343.192 134.336V151.424H351.448C357.763 151.424 360.92 148.203 360.92 141.76C360.92 135.787 358.936 132.544 354.968 132.032C353.645 131.861 351.619 131.776 348.888 131.776C346.157 131.776 344.536 132.011 344.024 132.48C343.469 132.992 343.192 133.611 343.192 134.336ZM373.4 173.12H376.984V176H356.632V173.12H361.112C362.008 173.12 362.456 172.907 362.456 172.48C362.456 172.181 362.285 171.819 361.944 171.392L348.888 154.304H343.192V171.264C343.192 172.501 344.152 173.12 346.072 173.12H350.296V176H329.56V173.12H334.168C334.808 173.12 335.427 172.928 336.024 172.544C336.579 172.203 336.856 171.776 336.856 171.264V134.656C336.856 133.931 336.579 133.269 336.024 132.672C335.427 132.075 334.68 131.776 333.784 131.776H329.56V128.896H352.792C362.776 128.896 367.768 133.227 367.768 141.888C367.768 149.184 363.672 153.259 355.48 154.112L368.664 171.392C369.645 172.544 371.224 173.12 373.4 173.12ZM427.389 173.12H430.909V176H411.517V173.12H415.357C416.253 173.12 416.893 172.864 417.277 172.352C417.618 171.84 417.789 171.392 417.789 171.008V170.176L404.925 138.048L391.805 170.176V170.944C391.805 171.371 392.061 171.84 392.573 172.352C393.042 172.864 393.597 173.12 394.237 173.12H398.077V176H381.373V173.12H384.573C385.298 173.12 386.002 172.8 386.685 172.16C387.367 171.477 387.837 170.816 388.093 170.176L406.013 125.888L423.869 170.176C424.551 171.883 425.725 172.864 427.389 173.12ZM394.301 159.488L395.453 156.48H415.485L416.573 159.488H394.301Z" fill="#2B3A3E"/>
<path d="M435.68 19.12H447.2V21.92H435.68V19.12ZM441.08 11.4H443.76V48.16H441.08V11.4ZM441 20.92L442.84 21.56C442.573 23.16 442.213 24.84 441.76 26.6C441.333 28.3333 440.84 30.04 440.28 31.72C439.747 33.3733 439.16 34.92 438.52 36.36C437.907 37.8 437.253 39.0267 436.56 40.04C436.453 39.7467 436.307 39.4267 436.12 39.08C435.96 38.7067 435.773 38.3467 435.56 38C435.373 37.6533 435.2 37.36 435.04 37.12C435.653 36.2133 436.253 35.1333 436.84 33.88C437.453 32.6267 438.027 31.2667 438.56 29.8C439.12 28.3333 439.6 26.84 440 25.32C440.427 23.8 440.76 22.3333 441 20.92ZM443.52 22.32C443.76 22.5867 444.107 23.0533 444.56 23.72C445.013 24.3867 445.493 25.12 446 25.92C446.533 26.6933 447.013 27.4267 447.44 28.12C447.893 28.7867 448.2 29.2667 448.36 29.56L446.56 31.72C446.347 31.24 446.04 30.6133 445.64 29.84C445.267 29.0667 444.853 28.2667 444.4 27.44C443.947 26.6133 443.507 25.84 443.08 25.12C442.68 24.4 442.36 23.84 442.12 23.44L443.52 22.32ZM450.6 41.44L452.64 39.64C454.187 40.0133 455.813 40.4533 457.52 40.96C459.253 41.44 460.973 41.9733 462.68 42.56C464.387 43.12 466 43.7067 467.52 44.32C469.04 44.9333 470.36 45.52 471.48 46.08L469.2 48.04C468.187 47.5067 466.947 46.9333 465.48 46.32C464.04 45.7067 462.467 45.1067 460.76 44.52C459.053 43.9067 457.32 43.3333 455.56 42.8C453.827 42.2667 452.173 41.8133 450.6 41.44ZM447.16 34.68H472.48V37.08H447.16V34.68ZM464.68 35.8H467.8C467.32 37.56 466.64 39.12 465.76 40.48C464.907 41.84 463.72 43.0267 462.2 44.04C460.68 45.0267 458.747 45.8533 456.4 46.52C454.053 47.2133 451.173 47.76 447.76 48.16C447.68 47.8133 447.507 47.4 447.24 46.92C447 46.4667 446.773 46.0933 446.56 45.8C449.787 45.48 452.467 45.04 454.6 44.48C456.76 43.92 458.507 43.2267 459.84 42.4C461.173 41.5733 462.213 40.6267 462.96 39.56C463.733 38.4667 464.307 37.2133 464.68 35.8ZM450.6 41.44C451.267 40.5333 451.96 39.5067 452.68 38.36C453.4 37.2133 454.093 36.04 454.76 34.84C455.427 33.6133 455.987 32.44 456.44 31.32L459.24 31.88C458.787 32.9733 458.227 34.12 457.56 35.32C456.92 36.4933 456.267 37.6133 455.6 38.68C454.96 39.72 454.347 40.64 453.76 41.44H450.6ZM448.12 12.64L458.64 12.64V26.24H456.56V14.88H450.2V26.24H448.12V12.64ZM452.48 16.4H454.56C454.533 18.7467 454.44 20.8 454.28 22.56C454.12 24.32 453.813 25.84 453.36 27.12C452.933 28.4 452.307 29.4933 451.48 30.4C450.653 31.28 449.56 32.0533 448.2 32.72C448.067 32.4533 447.853 32.1467 447.56 31.8C447.293 31.4267 447.04 31.1333 446.8 30.92C448.08 30.3867 449.08 29.7333 449.8 28.96C450.547 28.1867 451.107 27.24 451.48 26.12C451.853 25 452.107 23.6533 452.24 22.08C452.373 20.48 452.453 18.5867 452.48 16.4ZM453.16 27.72L454.6 26.48C455.32 26.9333 456.107 27.48 456.96 28.12C457.813 28.7333 458.493 29.2667 459 29.72L457.52 31.2C457.04 30.72 456.387 30.1467 455.56 29.48C454.733 28.8133 453.933 28.2267 453.16 27.72ZM464.68 16.36L466.76 16.36C466.733 18.76 466.64 20.84 466.48 22.6C466.32 24.36 466.013 25.8667 465.56 27.12C465.133 28.3733 464.48 29.44 463.6 30.32C462.72 31.1733 461.547 31.92 460.08 32.56C460 32.2933 459.827 32 459.56 31.68C459.293 31.3333 459.027 31.0533 458.76 30.84C460.093 30.28 461.147 29.64 461.92 28.92C462.693 28.1733 463.267 27.2533 463.64 26.16C464.04 25.0667 464.307 23.72 464.44 22.12C464.573 20.52 464.653 18.6 464.68 16.36ZM465.2 28L466.84 26.84C467.693 27.5333 468.587 28.3067 469.52 29.16C470.453 30.0133 471.173 30.76 471.68 31.4L470 32.72C469.493 32.08 468.773 31.3067 467.84 30.4C466.933 29.4933 466.053 28.6933 465.2 28ZM460.2 12.64H470.84V26.24H468.72V14.88H462.28V26.24H460.2V12.64ZM450.32 72.48V75.16H457.76V72.36L457.56 70.6C457.56 70.5733 457.56 70.56 457.56 70.56C457.56 70.4 457.667 70.32 457.88 70.32C458.12 70.32 458.893 70.4133 460.2 70.6C461.507 70.7867 462.16 70.9867 462.16 71.2L460.96 72.48V75.16H467.04C467.893 74.3867 468.733 73.64 469.56 72.92C471.453 74.2533 472.4 75.2 472.4 75.76C472.4 76.1333 472.08 76.32 471.44 76.32H460.96V77.72L461.2 79.8C461.12 80.3333 460.173 80.6 458.36 80.6C457.907 80.6 457.64 80.2933 457.56 79.68L457.76 77.72V76.32H450.32V77.72L450.56 79.8C450.48 80.3333 449.533 80.6 447.72 80.6C447.267 80.6 447 80.2933 446.92 79.68L447.12 77.72V76.32H439.88C438.893 76.32 438.067 76.4533 437.4 76.72L435.56 75.16L435.8 74.84C437.16 75.0533 438.667 75.16 440.32 75.16H447.12V72.36L446.92 70.6C446.92 70.5733 446.92 70.56 446.92 70.56C446.92 70.4 447.027 70.32 447.24 70.32C447.48 70.32 448.253 70.4133 449.56 70.6C450.867 70.7867 451.52 70.9867 451.52 71.2L450.32 72.48ZM436.84 96.32C436.653 96.3733 436.48 96.4 436.32 96.4C436.133 96.4 436.04 96.2933 436.04 96.08C436.04 95.92 436.133 95.7467 436.32 95.56C440.773 91.1067 444.053 86.2267 446.16 80.92C449.28 81.8533 450.813 82.6667 450.76 83.36V83.4L448.72 83.84C447.627 85.4667 446.493 86.9867 445.32 88.4C446.947 88.56 447.76 88.72 447.76 88.88C447.76 89.0133 447.56 89.1867 447.16 89.4C446.733 89.64 446.52 89.8933 446.52 90.16V102.32L446.76 105.32C446.76 105.347 446.747 105.493 446.72 105.76C446.667 106.293 445.733 106.56 443.92 106.56C443.733 106.56 443.56 106.467 443.4 106.28C443.24 106.093 443.147 105.867 443.12 105.6L443.32 102.32V90.72C441.853 92.3733 439.693 94.24 436.84 96.32ZM460.04 103.2H467.24C468.547 103.2 469.253 101.213 469.36 97.24L469.44 94.4C469.6 94.1067 469.773 93.96 469.96 93.96C470.12 93.96 470.293 94.1067 470.48 94.4L470.72 101.36C470.747 101.787 470.827 102.347 470.96 103.04C471.547 103.6 471.84 103.88 471.84 103.88C471.84 104.147 471.813 104.373 471.76 104.56C471.36 105.68 470.187 106.24 468.24 106.24H459.04C456.693 106.24 455.52 104.827 455.52 102L455.48 83.6L455.28 81.84C455.253 81.6533 455.373 81.56 455.64 81.56C455.88 81.56 456.627 81.6533 457.88 81.84C459.107 82.0267 459.72 82.2267 459.72 82.44C459.72 82.5733 459.52 82.7467 459.12 82.96C458.72 83.2 458.52 83.4533 458.52 83.72V92.76C462.547 89.7467 465.347 86.7333 466.92 83.72C469.24 85.24 470.4 86.3867 470.4 87.16C470.4 87.3467 470.347 87.5067 470.24 87.64H468.12C466.307 89.48 463.107 91.6933 458.52 94.28V100.48C458.52 102.293 459.027 103.2 460.04 103.2ZM448.2 130.84H470.96V133.52H448.2V130.84ZM446.8 146.12H472.32V148.84H446.8V146.12ZM450.12 152.16H469.6V166.08H466.64V154.84H453V166.2H450.12V152.16ZM451.56 162H467.84V164.64H451.56V162ZM456.6 131.88L459.6 132.2C459.307 133.853 458.947 135.64 458.52 137.56C458.093 139.453 457.667 141.293 457.24 143.08C456.84 144.84 456.48 146.36 456.16 147.64H453C453.293 146.653 453.6 145.507 453.92 144.2C454.267 142.893 454.6 141.533 454.92 140.12C455.24 138.707 455.547 137.293 455.84 135.88C456.133 134.44 456.387 133.107 456.6 131.88ZM449.64 138.04H466.24V140.64H449.64V138.04ZM465.52 138.04H465.8L466.28 137.88L468.4 138.08C468.293 139.573 468.147 141.173 467.96 142.88C467.8 144.587 467.627 146.147 467.44 147.56L464.6 147.36C464.733 146.373 464.853 145.333 464.96 144.24C465.093 143.12 465.2 142.04 465.28 141C465.387 139.96 465.467 139.093 465.52 138.4V138.04ZM437.92 132.32L439.84 130.48C440.56 131.067 441.307 131.72 442.08 132.44C442.88 133.16 443.627 133.867 444.32 134.56C445.04 135.253 445.6 135.88 446 136.44L443.96 138.6C443.533 138.013 442.987 137.36 442.32 136.64C441.653 135.893 440.933 135.147 440.16 134.4C439.387 133.627 438.64 132.933 437.92 132.32ZM435.8 141.92H442.96V144.84H435.8V141.92ZM441.44 165L441 162.2L441.88 160.96L448.96 156.28C449.04 156.653 449.16 157.093 449.32 157.6C449.48 158.08 449.627 158.48 449.76 158.8C448.08 159.947 446.72 160.893 445.68 161.64C444.667 162.36 443.867 162.933 443.28 163.36C442.72 163.787 442.307 164.107 442.04 164.32C441.8 164.56 441.6 164.787 441.44 165ZM441.44 165C441.36 164.733 441.227 164.427 441.04 164.08C440.88 163.76 440.693 163.44 440.48 163.12C440.267 162.8 440.08 162.533 439.92 162.32C440.213 162.107 440.52 161.773 440.84 161.32C441.187 160.84 441.36 160.187 441.36 159.36V141.92H444.16V162.04C444.16 162.04 444.027 162.147 443.76 162.36C443.493 162.547 443.173 162.787 442.8 163.08C442.427 163.4 442.107 163.72 441.84 164.04C441.573 164.387 441.44 164.707 441.44 165ZM465.16 191.92H446.88C446.08 191.947 445.453 192.053 445 192.24C444.52 192.453 444.227 192.56 444.12 192.56L442.4 190.4C443.947 190.667 445.813 190.827 448 190.88H459.92L462.28 188.72C463.907 189.733 465.173 190.693 466.08 191.6C466.24 191.76 465.933 191.867 465.16 191.92ZM466.56 208.16H445.88C445.08 208.187 444.453 208.293 444 208.48C443.52 208.693 443.227 208.8 443.12 208.8L441.4 206.64C442.947 206.907 444.813 207.067 447 207.12H461.32L463.68 204.96C465.307 205.973 466.573 206.933 467.48 207.84C467.64 208 467.333 208.107 466.56 208.16ZM466.56 202.72H445.88C445.08 202.747 444.453 202.853 444 203.04C443.52 203.253 443.227 203.36 443.12 203.36L441.4 201.2C442.947 201.467 444.813 201.627 447 201.68H461.32L463.68 199.52C465.307 200.533 466.573 201.493 467.48 202.4C467.64 202.56 467.333 202.667 466.56 202.72ZM471.08 197.4H440.28C439.48 197.427 438.853 197.533 438.4 197.72C437.92 197.907 437.627 198 437.52 198L435.8 195.88C437.347 196.147 439.213 196.293 441.4 196.32H465.84L468.2 194.16C470.173 195.387 471.44 196.347 472 197.04C472.16 197.227 471.853 197.347 471.08 197.4ZM462.84 213.8H445.28C445.28 214.093 445.267 214.253 445.24 214.28V220.24H463.08V214.72C463.08 214.347 463 214.04 462.84 213.8ZM441.92 211.04L446.04 212.76H461.88L464.2 210.56C466.44 212.053 467.56 212.96 467.56 213.28L466.24 214.72V220.32C466.4 222.453 466.48 223.6 466.48 223.76C466.427 224.293 465.493 224.56 463.68 224.56C463.12 224.56 462.853 224.133 462.88 223.28C462.907 222.427 462.96 221.733 463.04 221.2H445.28C445.387 222.24 445.44 223.053 445.44 223.64C445.44 224.253 444.493 224.56 442.6 224.56C442.12 224.56 441.853 224.24 441.8 223.6L442 220.32V213.96C442 213.027 441.933 212.44 441.8 212.2C441.667 211.96 441.707 211.573 441.92 211.04ZM459.88 255.36C459.32 255.44 459 255.32 458.92 255C458.84 254.707 458.987 254.36 459.36 253.96C460.907 251.533 462.067 249.267 462.84 247.16C466.067 247.88 467.707 248.467 467.76 248.92L465.48 249.84C464.093 251.653 462.227 253.493 459.88 255.36ZM444.68 251.72L442.32 248.28C442.347 248.04 442.493 247.92 442.76 247.92C443 247.92 443.333 248.04 443.76 248.28C446.64 249.88 448.093 251.347 448.12 252.68C448.12 254.147 447.787 254.88 447.12 254.88C446.907 254.88 446.64 254.787 446.32 254.6C445.973 254.44 445.427 253.48 444.68 251.72ZM441.36 255.48H467.44L469.76 253.08C472.053 254.707 473.2 255.867 473.2 256.56C473.2 256.72 472.933 256.8 472.4 256.8L466.8 261.08C466.507 261.187 466.267 261.093 466.08 260.8L467.28 256.8H441.16C440.947 259.307 440.213 260.733 438.96 261.08C438.587 261.187 438.253 261.24 437.96 261.24C437.187 261.24 436.8 260.827 436.8 260C436.8 259.173 437.427 258.133 438.68 256.88C439.267 256.293 439.867 254.987 440.48 252.96C440.56 252.693 440.64 252.547 440.72 252.52C440.773 252.52 440.813 252.52 440.84 252.52C441.08 252.52 441.227 252.96 441.28 253.84L441.36 255.48ZM452.28 251.04L449.92 247.6C449.947 247.387 450.093 247.28 450.36 247.28C450.6 247.28 450.933 247.387 451.36 247.6C454.267 249.2 455.72 250.693 455.72 252.08C455.72 253.493 455.387 254.2 454.72 254.2C454.507 254.2 454.24 254.107 453.92 253.92C453.573 253.76 453.027 252.8 452.28 251.04ZM459.72 262.64H448.08C447.28 262.667 446.653 262.773 446.2 262.96C445.747 263.147 445.467 263.24 445.36 263.24C445.253 263.267 445.147 263.227 445.04 263.12L443.36 261.36C443.307 261.2 443.387 261.08 443.6 261C445.147 261.267 447.36 261.4 450.24 261.4C453.12 261.427 456.347 261.44 459.92 261.44C461.36 260.267 462.213 259.68 462.48 259.68H462.52C464.28 261.333 465.16 262.507 465.16 263.2C462.387 264.693 459.613 266.2 456.84 267.72C457.187 267.827 457.36 267.947 457.36 268.08C457.36 268.213 457.16 268.4 456.76 268.64C456.333 268.88 456.12 269.133 456.12 269.4V270.68H465.88C466.04 270.68 466.387 270.427 466.92 269.92C467.427 269.44 467.76 269.08 467.92 268.84C468.08 268.627 468.32 268.52 468.64 268.52C468.933 268.52 469.187 268.613 469.4 268.8C471.533 270.587 472.6 271.547 472.6 271.68C472.6 271.84 472.293 271.92 471.68 271.92H456.12V280.72C456.12 281.333 455.853 281.96 455.32 282.6C454.787 283.267 454.28 283.6 453.8 283.6C453.293 283.6 452.907 283.48 452.64 283.24C450.72 281.4 448.467 280.44 445.88 280.36C445.507 280.253 445.32 280.093 445.32 279.88C445.32 279.667 445.493 279.52 445.84 279.44L453 280.12L453.28 279.44V271.92H440.12C439.32 271.973 438.68 272.08 438.2 272.24C437.693 272.427 437.413 272.507 437.36 272.48C436.507 271.653 435.853 270.987 435.4 270.48C435.4 270.32 435.467 270.24 435.6 270.24C437.147 270.507 439.013 270.653 441.2 270.68H453.28V269.28C453.28 268.88 453.24 268.467 453.16 268.04C453.08 267.64 453.067 267.387 453.12 267.28C453.147 267.2 453.253 267.16 453.44 267.16C453.627 267.16 454.08 267.227 454.8 267.36C456.453 265.76 458.093 264.187 459.72 262.64ZM444.44 320.72V338.32C444.6 340.453 444.68 341.6 444.68 341.76C444.6 342.293 443.787 342.56 442.24 342.56C441.68 342.56 441.36 342.253 441.28 341.64L441.48 338.32V324.24C439.827 328.293 438.027 331.64 436.08 334.28C435.813 334.387 435.6 334.44 435.44 334.44C435.28 334.44 435.2 334.36 435.2 334.2C435.2 334.067 435.333 333.72 435.6 333.16C438.507 326.867 440.213 321.267 440.72 316.36H438.4C437.707 316.44 437.227 316.56 436.96 316.72C436.693 316.88 436.533 316.96 436.48 316.96L435.2 314.76C436.853 315 438.16 315.133 439.12 315.16H441.48V308.92C441.347 307.72 441.28 307.08 441.28 307C441.28 306.92 441.4 306.88 441.64 306.88C441.853 306.88 442.573 306.973 443.8 307.16C445.027 307.347 445.64 307.547 445.64 307.76L444.44 309.04V315.16L445.16 315.2L447.04 312.8C448.56 314 449.533 315.027 449.96 315.88C449.96 316.2 449.667 316.36 449.08 316.36H444.44V318.96C446.12 320.027 447.32 320.947 448.04 321.72C448.627 322.44 448.92 323.44 448.92 324.72C448.92 326.533 448.453 327.44 447.52 327.44C447.253 327.44 446.787 326.4 446.12 324.32C445.48 322.267 444.92 321.067 444.44 320.72ZM473.2 339.64C471.867 340.787 470.88 341.88 470.24 342.92C462.32 338.28 457.093 332.12 454.56 324.44C454.613 323.64 454.8 323.24 455.12 323.24C455.28 323.24 455.467 323.347 455.68 323.56C458.613 331 464.453 336.36 473.2 339.64ZM448.36 342.76C447.853 342.973 447.6 342.853 447.6 342.4C447.6 341.867 447.773 341.44 448.12 341.12C455.533 337.467 460.8 331.067 463.92 321.92C466.827 323.04 468.253 323.827 468.2 324.28C467.667 324.387 467.147 324.48 466.64 324.56C462.107 333.573 456.013 339.64 448.36 342.76ZM463.56 317.24C463.533 316.92 463.747 316.773 464.2 316.8C464.893 316.827 465.747 317.213 466.76 317.96C469.933 320.253 471.52 322.453 471.52 324.56C471.52 325.707 471 326.28 469.96 326.28C469.453 326.28 469.053 325.853 468.76 325C467.613 321.507 465.947 319.12 463.76 317.84C463.627 317.76 463.56 317.56 463.56 317.24ZM450.32 327.52C450.16 327.573 449.973 327.6 449.76 327.6C449.547 327.6 449.387 327.467 449.28 327.2C449.173 326.933 449.28 326.587 449.6 326.16C452.027 322.88 453.64 319.68 454.44 316.56C457.72 316.987 459.373 317.427 459.4 317.88L457.24 318.92C455.427 321.96 453.12 324.827 450.32 327.52ZM472 314.76C465.813 314.76 459.627 314.76 453.44 314.76C452.773 314.76 451.88 314.947 450.76 315.32L448.8 313.48L449.08 313.04C450.6 313.28 452.427 313.413 454.56 313.44H458.8V308.88L458.6 307.08C458.573 306.893 458.667 306.8 458.88 306.8C461.733 307.067 463.173 307.373 463.2 307.72C463.2 307.853 463 308.027 462.6 308.24C462.2 308.48 462 308.733 462 309V313.44H466.68L469 311.04C471.56 312.667 472.84 313.827 472.84 314.52C472.84 314.68 472.56 314.76 472 314.76Z" fill="#C95A38"/>
</svg>
