<?xml version="1.0" encoding="utf-8"?>
<!-- Generator: Adobe Illustrator 27.5.0, SVG Export Plug-In . SVG Version: 6.00 Build 0)  -->
<svg version="1.1" xmlns="http://www.w3.org/2000/svg" xmlns:xlink="http://www.w3.org/1999/xlink" x="0px" y="0px"
	 viewBox="0 0 500 500" style="enable-background:new 0 0 500 500;" xml:space="preserve">
<g id="BACKGROUNDS">
	<rect style="fill:#F7AF21;" width="500" height="500"/>
</g>
<g id="OBJECTS">
	<g>
		<g>
			<g>
				<path style="fill:#E89A0F;" d="M186.978,158.271c-13.24,19.345-20.551,42.172-33.053,62.002
					c-15.07,23.903-37.02,42.485-56.596,62.864C77.753,303.515,59.7,327.409,55.76,355.391c-1.085,7.703-0.91,16.088,3.416,22.553
					c6.907,10.323,21.325,11.898,33.73,11.269c37.038-1.876,72.614-14.177,108.556-23.315c35.942-9.138,74.268-15.1,109.769-4.379
					c21.318,6.438,40.674,18.647,62.336,23.808c28.248,6.73,62.88-2.354,75.121-28.687c4.689-10.086,5.619-21.498,5.569-32.621
					c-0.205-45.073-15.84-89.935-43.694-125.372c-15.919-20.253-35.342-35.914-56.941-49.678
					c-17.632-11.237-34.01-26.919-52.762-36.132C261.242,93.373,209.293,125.668,186.978,158.271z"/>
				<g>
					<polygon style="fill:#E89A0F;" points="179.017,206.231 51.539,215.411 48.095,68.296 175.555,57.95 					"/>
					<polygon style="fill:#E89A0F;" points="355.518,45.75 357.441,146.367 433.105,169.069 433.105,45.75 					"/>
				</g>
			</g>
			<g>
				<g>
					<polygon style="fill:#FFE76E;" points="69.183,268.327 78.123,243.839 79.701,271.445 108.326,262.483 86.644,280.428 
						109.805,298.075 82.165,289.283 89.577,320.668 72.553,293.883 53.486,317.671 61.196,288.759 29.646,282.387 61.95,277.855 
						44.962,255.579 					"/>
					<polygon style="fill:#FFE76E;" points="418.577,202.334 432.016,183.295 426.924,207.484 453.718,206.442 430.815,216.858 
						446.674,237.499 424.88,223.451 423.939,252.264 415.511,225.173 393.498,241.241 406.91,218.098 381.176,205.224 
						410.109,208.865 400.658,185.673 					"/>
				</g>
				<g>
					<g>
						<path style="fill:#FFCF7B;" d="M366.526,195.567c-0.308,0.06-0.664-1.01-1.594-2.494c-0.468-0.737-1.11-1.559-1.978-2.321
							c-0.255-0.215-0.32-0.287-0.941-0.748c-0.469-0.368-1.3-0.735-1.524-1.152c-0.165-0.199-0.05-0.369-0.012-0.5l0.068-0.192
							l0.009-0.017c0.282,0.028-0.381-0.043-0.313-0.037l0-0.003l-0.001-0.006l-0.002-0.025l-0.004-0.05l-0.008-0.101l-0.02-0.206
							l-0.012-0.104c0.017-0.037,0.131-0.086,0.192-0.129c0.308-0.173,0.563-0.363,0.93-0.532l0.723-0.328l0.368-0.166
							c0.076-0.031,0.112-0.053,0.12-0.067l0.061-0.052c0.161-0.138,0.335-0.273,0.458-0.428c0.141-0.141,0.268-0.308,0.394-0.481
							c0.132-0.164,0.239-0.366,0.361-0.55l0.217-0.397c0.125-0.24,0.226-0.511,0.334-0.779c0.227-0.5,0.406-1.15,0.597-1.778
							c0.377-0.999,0.758-2.011,1.145-3.035c0.158-0.413,0.315-0.824,0.469-1.23c0.248,1.021,0.493,2.034,0.737,3.039
							c0.115,0.474,0.228,0.945,0.342,1.415c0.116,0.438,0.245,0.752,0.365,1.13c0.116,0.377,0.286,0.619,0.425,0.932
							c0.068,0.136,0.155,0.325,0.213,0.406l0.108,0.178c0.144,0.236,0.296,0.465,0.46,0.674c0.158,0.216,0.33,0.413,0.502,0.601
							c0.185,0.193,0.324,0.34,0.592,0.547l0.741,0.468c0.318,0.125,0.635,0.249,0.949,0.373c0.604,0.235,1.199,0.467,1.787,0.696
							c-1.114,0.687-2.458,1.418-3.308,2.089l-0.368,0.332l-0.273,0.265c-0.17,0.186-0.345,0.361-0.495,0.552
							c-0.625,0.743-1.084,1.502-1.45,2.143C367.164,194.794,366.793,195.626,366.526,195.567c-0.237-0.048-0.347-0.994,0.047-2.586
							c0.205-0.79,0.538-1.744,1.146-2.757c0.145-0.257,0.325-0.507,0.507-0.766l0.3-0.382c0.049-0.066,0.107-0.126,0.163-0.189
							l0.08-0.089l0.013-0.021c0.049-0.104,0.115-0.17,0.095-0.203c-0.11-0.018-0.185-0.039-0.233-0.052
							c-0.208-0.158-0.52-0.408-0.767-0.649c-0.257-0.247-0.505-0.508-0.732-0.787c-0.234-0.274-0.447-0.567-0.649-0.87l-0.15-0.229
							c-0.033-0.05-0.012-0.015-0.021-0.026l-0.009-0.001c-0.009,0.001-0.01,0.009-0.011,0.014v0.003l-0.003-0.009l-0.007-0.003
							l-0.006,0.001l-0.183,0.311c-0.18,0.262-0.34,0.527-0.546,0.772c-0.197,0.248-0.401,0.488-0.637,0.708
							c-0.222,0.238-0.462,0.411-0.696,0.593c-0.162,0.127-0.142,0.105-0.151,0.105l-0.033,0.006
							c-0.066,0.015-0.273,0.012-0.178,0.081c0.065,0.099-0.07-0.012,0.608,0.708c0.942,1.076,1.529,2.198,1.858,3.156
							c0.332,0.961,0.43,1.755,0.43,2.296C366.762,195.246,366.662,195.543,366.526,195.567z"/>
					</g>
					<g>
						<path style="fill:#FFCF7B;" d="M412.587,365.251c-0.506-1.342-1.111-2.326-1.756-3.138c-0.325-0.405-0.663-0.766-1.019-1.097
							c-0.181-0.163-0.363-0.323-0.554-0.472c-0.297-0.241-0.809-0.589-1.285-0.885c-0.329-0.197-0.48-0.419-0.513-0.595
							c0.018-0.087,0.056-0.162,0.101-0.224l0.055-0.089l0.027-0.043l0.016-0.026l0.01-0.016l0.001-0.001l0-0.001
							c0.23,0.027-0.314-0.037-0.258-0.031l0-0.002l0.001-0.003l0.001-0.007c0.112-0.277-0.184-0.544,0.824-0.82
							c0.319-0.104,0.67-0.181,0.944-0.312l0.467-0.257c0.2-0.144,0.417-0.272,0.6-0.455c0.392-0.33,0.721-0.765,1.012-1.227
							c0.072-0.126,0.15-0.248,0.214-0.38l0.241-0.529c0.211-0.558,0.413-1.141,0.593-1.81c0.422-1.239,0.734-2.221,1.09-3.112
							l0.66,2.72c0.219,0.887,0.429,1.626,0.669,2.186l0.105,0.272l0.063,0.148l0.131,0.295c0.103,0.187,0.196,0.384,0.318,0.56
							c0.224,0.368,0.505,0.693,0.796,1.001c0.311,0.297,0.613,0.553,0.99,0.784c0.404,0.208,0.762,0.386,1.258,0.557l1.408,0.488
							c-0.45,0.314-0.98,0.644-1.523,1.002c-0.262,0.158-0.447,0.306-0.618,0.452l-0.272,0.22l-0.131,0.106l-0.066,0.066
							c-0.18,0.172-0.355,0.349-0.522,0.538c-0.333,0.376-0.656,0.77-0.942,1.199c-0.582,0.85-1.074,1.792-1.451,2.797
							c-0.344,0.944-0.571,1.148-0.764,0.929c-0.183-0.214-0.292-0.859-0.222-1.515c0.11-1.143,0.512-2.377,1.223-3.536
							c0.356-0.578,0.799-1.131,1.317-1.627l0.195-0.186l0.055-0.041c0.034-0.024,0.081-0.059,0.079-0.049
							c0.016-0.002,0.056-0.009,0.09-0.022c0.013-0.009-0.017-0.051-0.033-0.088c-0.401-0.299-0.784-0.674-1.114-1.037
							c-0.654-0.748-1.154-1.549-1.561-2.329c-0.109-0.223-0.144-0.319-0.191-0.453c-0.044-0.124-0.075-0.238-0.098-0.328
							c-0.011-0.04-0.021-0.106-0.033-0.121l-0.038,0.126c-0.025,0.084-0.049,0.165-0.073,0.245
							c-0.053,0.165-0.102,0.298-0.181,0.468c-0.451,0.933-1.022,1.944-2.207,2.866c-0.112,0.102-0.261,0.176-0.425,0.284
							c-0.097,0.06-0.117,0.072-0.205,0.109c-0.073,0.038-0.158,0.064-0.247,0.087l-0.067,0.019
							c-0.001,0.017,0.035,0.029,0.052,0.042l0.13,0.079c0.092,0.059,0.162,0.105,0.267,0.184l0.346,0.285l0.396,0.355
							c1.04,0.969,1.824,2.143,2.274,2.999c0.378,0.687,0.575,1.546,0.587,2.27c0.011,0.408-0.301,0.671-0.476,0.977
							C412.956,365.865,412.473,365.066,412.587,365.251z"/>
					</g>
					<g>
						<path style="fill:#FFCF7B;" d="M182.228,56.682c-0.506-1.342-1.111-2.326-1.756-3.138c-0.325-0.404-0.663-0.765-1.019-1.097
							c-0.181-0.163-0.363-0.323-0.554-0.472c-0.297-0.241-0.809-0.589-1.285-0.885c-0.329-0.197-0.479-0.419-0.513-0.595
							c0.018-0.087,0.056-0.162,0.101-0.224l0.055-0.088l0.027-0.043l0.016-0.026l0.01-0.016l0.001-0.001l0,0
							c0.231,0.027-0.314-0.037-0.258-0.031l0-0.002l0-0.003l0.001-0.006c0.112-0.277-0.184-0.544,0.824-0.82
							c0.319-0.104,0.67-0.181,0.944-0.312l0.467-0.257c0.2-0.144,0.417-0.272,0.6-0.455c0.392-0.33,0.721-0.765,1.012-1.227
							c0.072-0.126,0.15-0.248,0.214-0.381l0.241-0.529c0.211-0.558,0.413-1.141,0.593-1.81c0.422-1.239,0.734-2.221,1.09-3.112
							l0.66,2.72c0.219,0.887,0.429,1.626,0.669,2.186l0.105,0.272l0.063,0.148l0.131,0.295c0.103,0.187,0.196,0.384,0.318,0.56
							c0.224,0.368,0.505,0.693,0.796,1.001c0.311,0.297,0.613,0.553,0.99,0.784c0.404,0.208,0.762,0.386,1.258,0.557l1.408,0.488
							c-0.45,0.313-0.98,0.644-1.523,1.002c-0.262,0.158-0.447,0.306-0.618,0.451l-0.272,0.22l-0.131,0.106l-0.066,0.066
							c-0.18,0.172-0.355,0.349-0.522,0.538c-0.333,0.376-0.656,0.769-0.942,1.199c-0.582,0.85-1.074,1.792-1.451,2.797
							c-0.344,0.944-0.571,1.148-0.764,0.929c-0.183-0.214-0.292-0.859-0.222-1.515c0.11-1.142,0.512-2.377,1.223-3.536
							c0.356-0.578,0.799-1.131,1.317-1.627l0.195-0.186l0.055-0.041c0.034-0.024,0.081-0.059,0.078-0.049
							c0.017-0.002,0.056-0.009,0.09-0.022c0.013-0.009-0.017-0.051-0.032-0.088c-0.401-0.299-0.783-0.674-1.114-1.037
							c-0.655-0.748-1.154-1.549-1.561-2.329c-0.109-0.223-0.144-0.319-0.191-0.453c-0.044-0.124-0.075-0.238-0.098-0.328
							c-0.011-0.04-0.021-0.106-0.033-0.121l-0.038,0.126c-0.025,0.084-0.049,0.165-0.073,0.245
							c-0.053,0.165-0.102,0.298-0.18,0.469c-0.451,0.933-1.022,1.944-2.207,2.866c-0.112,0.102-0.261,0.176-0.425,0.284
							c-0.097,0.06-0.117,0.072-0.205,0.109c-0.074,0.038-0.158,0.064-0.247,0.087l-0.067,0.019
							c-0.001,0.017,0.035,0.029,0.052,0.042l0.13,0.079c0.092,0.059,0.162,0.105,0.267,0.184l0.346,0.285l0.396,0.355
							c1.04,0.969,1.824,2.143,2.274,2.999c0.378,0.687,0.575,1.546,0.587,2.27c0.011,0.409-0.301,0.671-0.476,0.977
							C182.597,57.296,182.114,56.496,182.228,56.682z"/>
					</g>
					<g>
						<path style="fill:#FFCF7B;" d="M100.223,241.301c-0.506-1.342-1.11-2.326-1.755-3.138c-0.325-0.404-0.663-0.766-1.019-1.097
							c-0.181-0.163-0.363-0.323-0.554-0.472c-0.297-0.241-0.809-0.589-1.285-0.885c-0.329-0.197-0.48-0.419-0.513-0.595
							c0.018-0.087,0.056-0.162,0.101-0.224l0.055-0.088l0.027-0.043l0.016-0.026l0.01-0.016l0.001-0.001l0-0.001
							c0.231,0.027-0.314-0.037-0.258-0.031l0-0.002l0-0.003l0.001-0.007c0.112-0.277-0.184-0.544,0.824-0.82
							c0.319-0.104,0.67-0.181,0.944-0.312l0.467-0.257c0.2-0.144,0.417-0.272,0.6-0.455c0.392-0.33,0.721-0.765,1.012-1.227
							c0.072-0.126,0.15-0.248,0.214-0.38l0.241-0.529c0.211-0.558,0.413-1.141,0.593-1.81c0.422-1.239,0.734-2.221,1.09-3.112
							l0.66,2.72c0.219,0.887,0.429,1.626,0.669,2.186l0.105,0.272l0.063,0.148l0.131,0.295c0.103,0.187,0.196,0.384,0.318,0.56
							c0.224,0.368,0.505,0.693,0.796,1.001c0.311,0.297,0.613,0.553,0.99,0.784c0.404,0.208,0.762,0.386,1.257,0.557l1.408,0.488
							c-0.45,0.314-0.98,0.644-1.523,1.002c-0.262,0.158-0.447,0.306-0.618,0.452l-0.272,0.22l-0.131,0.106l-0.066,0.066
							c-0.18,0.172-0.355,0.349-0.522,0.538c-0.332,0.376-0.656,0.769-0.942,1.199c-0.582,0.85-1.075,1.793-1.451,2.797
							c-0.344,0.944-0.571,1.148-0.764,0.929c-0.183-0.214-0.292-0.859-0.222-1.515c0.11-1.142,0.512-2.377,1.223-3.536
							c0.356-0.578,0.799-1.131,1.317-1.627l0.195-0.186l0.055-0.041c0.034-0.024,0.081-0.059,0.079-0.049
							c0.016-0.002,0.056-0.01,0.09-0.022c0.013-0.009-0.017-0.051-0.033-0.088c-0.401-0.299-0.784-0.674-1.114-1.037
							c-0.654-0.748-1.154-1.549-1.561-2.329c-0.109-0.223-0.144-0.319-0.191-0.453c-0.044-0.124-0.075-0.238-0.098-0.328
							c-0.011-0.04-0.021-0.106-0.033-0.121l-0.038,0.126c-0.025,0.084-0.049,0.165-0.073,0.245
							c-0.053,0.165-0.102,0.298-0.181,0.469c-0.451,0.933-1.023,1.944-2.207,2.866c-0.112,0.102-0.261,0.176-0.425,0.284
							c-0.097,0.06-0.117,0.072-0.205,0.109c-0.073,0.038-0.158,0.064-0.247,0.087l-0.067,0.019
							c-0.001,0.017,0.035,0.029,0.052,0.042l0.13,0.079c0.092,0.059,0.162,0.105,0.267,0.184l0.346,0.285l0.396,0.355
							c1.04,0.969,1.824,2.143,2.274,2.999c0.378,0.686,0.575,1.546,0.587,2.27c0.011,0.409-0.301,0.671-0.476,0.977
							C100.592,241.915,100.109,241.115,100.223,241.301z"/>
					</g>
					<path style="fill:#FFCF7B;" d="M334.064,171.788c0.581-2.694,1.131-6.34,5.91-8.21c-5.063-1.253-5.593-5.53-6.163-8.21
						c-0.158,0.315-0.546,6.539-6.139,7.95C329.471,164.16,333.045,166.101,334.064,171.788z"/>
					<path style="fill:#FFCF7B;" d="M397.841,343.658c0.581-2.694,1.131-6.34,5.91-8.21c-5.063-1.253-5.593-5.53-6.163-8.21
						c-0.158,0.315-0.546,6.539-6.139,7.951C393.247,336.031,396.821,337.971,397.841,343.658z"/>
					<path style="fill:#FFCF7B;" d="M340.598,50.862c0.581-2.694,1.131-6.34,5.91-8.21c-5.063-1.253-5.593-5.53-6.163-8.21
						c-0.158,0.315-0.546,6.539-6.139,7.951C336.005,43.235,339.579,45.175,340.598,50.862z"/>
					<path style="fill:#FFCF7B;" d="M217.86,461.827c0.581-2.694,1.131-6.34,5.91-8.21c-5.063-1.253-5.593-5.53-6.163-8.21
						c-0.158,0.315-0.546,6.539-6.139,7.951C213.267,454.199,216.841,456.14,217.86,461.827z"/>
					<path style="fill:#FFCF7B;" d="M102.316,335.563c0.581-2.694,1.131-6.34,5.91-8.21c-5.063-1.253-5.593-5.53-6.163-8.21
						c-0.158,0.315-0.546,6.539-6.139,7.95C97.723,327.936,101.297,329.876,102.316,335.563z"/>
				</g>
			</g>
		</g>
		<g>
			<g>
				<g>
					<g>
						<polygon style="fill:#1A0F31;" points="167.856,66.874 173.425,191.315 60.52,205.357 55.2,77.693 						"/>
						<g>
							<g>
								<path style="fill:#FFCF7B;" d="M170.736,80.501c-1.13,1.014-5.383-1.882-9.498-6.469c-4.115-4.587-6.534-9.128-5.404-10.141
									c1.131-1.014,5.383,1.882,9.498,6.468C169.447,74.945,171.867,79.486,170.736,80.501z"/>
							</g>
							<g>
								<path style="fill:#FFCF7B;" d="M75.718,208.214c-0.94,1.179-6.081-1.357-11.13-6.065c-5.057-4.699-7.956-9.645-6.847-10.667
									c1.123-1.038,5.704,2.1,10.594,6.641C73.216,202.675,76.674,207.02,75.718,208.214z"/>
							</g>
						</g>
					</g>
					<g>
						<g>
							<path style="fill:#C92F46;" d="M105.379,110.356l13.924,18.364l4.44-22.199c0,0,8.665-0.338,14.506,11.113
								c0.784-4.608,0.47-9.595-2.599-15.553c0,0,12.512,20.018,8.072,41.37c0,0,13.94-10.518,5.717-35.353
								c-9.889-29.867-25.526-26.4-36.206-18.126c0,0-20.77-11.503-28.237,11.301c-7.467,22.804-1.413,48.03,18.162,51.864
								c0,0-15.989-13.136-11.907-40.563c0,0-0.013,9.84,6.616,17.262C97.868,129.838,95.288,109.751,105.379,110.356z"/>
							<path style="fill:#F0EBE6;" d="M135.649,102.082c3.069,5.958,3.383,10.945,2.599,15.553
								c-4.66-12.645-14.506-11.113-14.506-11.113l-4.44,22.199l-13.924-18.364c-10.09-0.605-7.51,19.482-7.51,19.482
								c-6.351-8.588-6.616-17.262-6.616-17.262c-4.082,27.426,11.906,40.563,11.906,40.563c13.176,9.024,30.779,6.925,40.563-9.687
								l0.928-7.915C145.226,117.405,135.649,102.082,135.649,102.082z"/>
							<path style="fill:#F7AF21;" d="M114.312,141.478c0.302,1.927-2.151,3.912-5.48,4.434c-3.329,0.522-6.272-0.618-6.574-2.545
								c-0.302-1.927,2.152-3.912,5.48-4.434C111.067,138.412,114.01,139.551,114.312,141.478z"/>
							<path style="fill:#F7AF21;" d="M141.564,135.792c0.302,1.927-2.152,3.912-5.48,4.434c-3.329,0.522-6.272-0.618-6.574-2.545
								c-0.302-1.927,2.152-3.912,5.48-4.434C138.319,132.725,141.262,133.864,141.564,135.792z"/>
							<path style="fill:#1A0F31;" d="M105.791,122.706c5.698-2.653,12.146,13.692,4.969,16.673
								C103.582,142.36,99.386,125.687,105.791,122.706z"/>
							<path style="fill:#1A0F31;" d="M131.851,118.866c5.789-0.106,6.053,16.642,0.552,17.127
								C124.894,136.656,123.477,119.019,131.851,118.866z"/>
							<path style="fill:#1A0F31;" d="M115.118,141.393c4.727,0.5,9.267-0.224,13.581-2.429c0,0,0.359,12.864-5.052,14.079
								C118.237,154.257,115.118,141.393,115.118,141.393z"/>
							<path style="fill:#C92F46;" d="M83.072,108.656c0.49-2.469,1.125-4.939,1.924-7.381c1.077-3.29,2.437-5.847,3.966-7.847
								c-0.358-2.132-1.722-4.237-3.804-4.814c-1.356-0.376-2.81-0.064-4.129,0.424c-6.543,2.421-10.999,9.557-10.302,16.499
								c0.196,1.954,0.827,3.981,2.318,5.258c1.506,1.291,3.711,1.594,5.614,1.034C80.427,111.309,81.926,110.106,83.072,108.656z"
								/>
							<path style="fill:#C92F46;" d="M154.288,88.772c-2.46-6.529-9.623-10.942-16.561-10.203c-1.399,0.149-2.84,0.516-3.888,1.455
								c-1.343,1.203-1.755,3.136-1.493,4.946c4.353,1.472,8.636,5.165,12.447,12.154c1.626,0.736,3.431,1.118,5.183,0.81
								c1.954-0.344,3.794-1.595,4.57-3.42C155.316,92.706,154.981,90.609,154.288,88.772z"/>
							<g>
								<path style="fill:#1A0F31;" d="M100.525,124.836c-0.371-0.039-0.684-0.6-0.743-1.557c-0.054-0.933,0.168-2.369,1.207-3.672
									c1.087-1.339,2.692-1.836,3.802-1.671c0.557,0.076,0.976,0.281,1.209,0.509c0.236,0.227,0.299,0.45,0.233,0.624
									c-0.148,0.361-0.693,0.49-1.261,0.803c-0.571,0.293-1.286,0.78-1.848,1.468c-0.595,0.732-1.039,1.629-1.439,2.339
									C101.285,124.385,100.907,124.877,100.525,124.836z"/>
							</g>
							<g>
								<path style="fill:#1A0F31;" d="M135.537,117.966c-0.343,0.178-0.824-0.037-1.418-0.281c-0.893-0.378-1.58-0.67-2.28-0.966
									c-0.462-0.191-0.943-0.402-1.324-0.583c-0.295-0.142-0.616-0.296-0.97-0.466c-0.516-0.273-0.98-0.419-1.153-0.765
									c-0.075-0.169-0.04-0.395,0.161-0.622c0.196-0.226,0.567-0.449,1.045-0.557c0.477-0.114,1.043-0.117,1.606-0.029
									c0.567,0.091,1.109,0.243,1.699,0.486c1.17,0.476,2.166,1.315,2.605,2.141C135.963,117.152,135.865,117.803,135.537,117.966
									z"/>
							</g>
							<g>
								<path style="fill:#F0EBE6;" d="M130.294,127.993c-0.741,0.167-1.579-0.748-1.872-2.045c-0.293-1.297,0.07-2.484,0.811-2.651
									c0.741-0.167,1.579,0.748,1.872,2.045C131.398,126.639,131.035,127.826,130.294,127.993z"/>
							</g>
							<g>
								<path style="fill:#F0EBE6;" d="M133.421,131.253c-0.72,0.23-1.537-0.31-1.647-1.239c-0.11-0.928,0.557-1.645,1.311-1.589
									c0.76,0.054,1.34,0.623,1.42,1.266C134.578,130.333,134.148,131.022,133.421,131.253z"/>
							</g>
							<g>
								<path style="fill:#F0EBE6;" d="M106.687,132.689c-0.741,0.167-1.579-0.748-1.872-2.045c-0.293-1.297,0.07-2.484,0.811-2.651
									c0.741-0.167,1.579,0.748,1.872,2.045C107.791,131.335,107.428,132.522,106.687,132.689z"/>
							</g>
							<g>
								<path style="fill:#F0EBE6;" d="M109.814,135.949c-0.72,0.23-1.537-0.311-1.647-1.239c-0.11-0.928,0.557-1.645,1.311-1.59
									c0.76,0.054,1.34,0.623,1.42,1.266C110.971,135.03,110.54,135.718,109.814,135.949z"/>
							</g>
							<path style="fill:#C92F46;" d="M118.183,147.181c3.557-1.819,6.616-1.761,9.082-1.138c0,0-1.049,5.592-3.855,6.182
								C120.604,152.816,118.183,147.181,118.183,147.181z"/>
						</g>
						<g>
							<path style="fill:#F0EBE6;" d="M94.97,173.007c-0.358,0.079-0.431,0.084-0.906,0.221c-0.929,0.246-2.436,0.564-3.61,0.781
								l0.174,2.127c1.376-0.428,2.214-0.595,3.495-0.7c2.973-0.243,5.257,0.325,6.777,1.661c1.152,1,1.857,2.475,1.993,4.142
								c0.279,3.407-2.098,6.181-5.529,6.462c-2.996,0.245-4.9-1.619-5.185-5.099c-0.01-0.12-0.027-0.338-0.049-0.604
								c1.722-0.652,2.283-0.942,3.552-1.775c0.018,0.51,0.016,0.777,0.057,1.284c0.061,0.75,0.143,1.156,0.317,1.508
								c0.205,0.419,0.64,0.676,1.122,0.636c1.039-0.085,1.67-0.988,1.57-2.219c-0.067-0.822-0.567-1.583-1.358-2.03
								c-0.686-0.357-1.646-0.498-2.927-0.393c-1.184,0.097-2.165,0.299-3.513,0.773l0.373,4.276l0.051,0.628
								c0.121,1.475,0.068,2.014-0.253,2.551c-0.404,0.714-1.29,1.175-2.378,1.264c-1.789,0.146-3.904-0.435-5.376-1.482
								c-1.06-0.765-1.732-1.853-1.827-3.013c-0.106-1.306,0.574-2.796,1.92-4.196c0.897-0.925,1.863-1.611,3.425-2.444
								l-0.233-2.852l-1.833,0.199l-2.348,0.143c-0.072,0.006-0.29,0.024-0.505,0.066l-0.358-3.79
								c0.785,0.083,1.782,0.074,3.328-0.053c0.145-0.012,0.169-0.014,0.918-0.075c0.336-0.052,0.336-0.052,0.481-0.064
								l-0.063-0.773c-0.149-1.813-0.218-2.366-0.437-3.249l4.181-0.342c-0.05,0.88-0.028,1.439,0.102,3.034l0.063,0.772
								c1.629-0.303,3.104-0.716,4.355-1.183L94.97,173.007z M87.21,181.352c-1.092,0.625-1.885,1.639-1.83,2.316
								c0.024,0.29,0.212,0.518,0.595,0.73c0.356,0.189,0.829,0.321,1.119,0.298c0.313-0.026,0.373-0.202,0.308-0.999L87.21,181.352
								z M100.284,174.932c-1.408-2.05-2.92-3.58-5.225-5.288l3.014-2.412c2.19,1.499,3.827,3.069,5.197,4.952L100.284,174.932z"/>
							<path style="fill:#F0EBE6;" d="M117.735,170.903c2.272-0.478,3.33-0.638,6.374-0.887c0.169-0.014,0.677-0.055,1.187-0.072
								l0.406,4.078c-1.172-0.05-1.85-0.019-3.179,0.09c-2.659,0.217-4.362,0.502-6.742,1.16l-0.522-3.412
								c-1.15,0.215-1.438,0.263-2.183,0.373c-0.225,2.305-0.514,4.128-0.985,6.697c-0.43,2.176-0.532,2.719-1.316,5.922
								c-0.292,1.192-0.292,1.192-0.414,1.786l-4.579-1.256c1.342-3.223,2.52-8.161,3.048-12.704
								c-0.169,0.014-0.29,0.024-0.386,0.032c-0.773,0.063-1.283,0.08-2.326,0.117c-0.024,0.002-0.121,0.01-0.242,0.02
								c-0.193,0.016-0.29,0.023-0.554,0.07l-0.25-3.945c0.955,0.068,2.244,0.059,3.693-0.059c0.073-0.006,0.242-0.02,0.459-0.038
								c0.156-1.959,0.176-2.91,0.115-3.658c-0.006-0.073-0.016-0.194-0.03-0.363l4.547-0.031c-0.105,0.495-0.159,0.743-0.199,1.427
								c-0.013,0.146-0.101,0.859-0.218,2.109c1.654-0.306,2.609-0.529,3.912-0.952L117.735,170.903z M119.124,177.478
								c-0.829,1.164-1.151,1.993-1.089,2.742c0.091,1.112,1.125,1.563,3.155,1.396c1.885-0.154,4.197-0.732,5.626-1.409
								l0.636,4.206c-0.479,0.086-0.695,0.129-1.269,0.249c-2.247,0.499-3.207,0.651-4.681,0.772
								c-4.737,0.387-7.229-0.941-7.478-3.987c-0.114-1.401,0.331-2.8,1.502-4.842L119.124,177.478z"/>
							<path style="fill:#F0EBE6;" d="M143.926,164.576c-0.55,0.411-0.774,0.647-2.857,2.837c-1.301,1.347-3.13,3.079-5.537,5.172
								c-0.613,0.538-0.747,0.694-0.729,0.912c0.023,0.29,0.023,0.29,2.432,1.771c2.79,1.694,4.98,3.194,7.855,5.318
								c0.155,0.109,0.386,0.26,0.8,0.566l-3.167,3.811c-0.645-0.751-1.227-1.311-2.608-2.438c-2.238-1.788-3.142-2.42-7.613-5.337
								c-1.286-0.845-1.756-1.245-2.12-1.822c-0.254-0.441-0.449-1.034-0.493-1.565c-0.069-0.846,0.18-1.669,0.705-2.392
								c0.308-0.391,0.646-0.735,2.051-1.994c3.017-2.679,4.388-4.055,5.919-5.86c0.533-0.626,0.752-0.913,1.094-1.5
								L143.926,164.576z"/>
						</g>
					</g>
				</g>
				<g>
					<g>
						<g>
							<g>
								<g>
									<g>
										<g>
											<g>
												<g>
													<path style="fill:#EFCFD2;" d="M127.866,371.178c0.402,3.413,12.075,9.748,8.663,12.309
														c-6.655,3.163-15.475-3.656-15.475-3.656s-22.498,9.029-36.218,9.419c-8.801,0.25-30.917-6.242-22.946-9.412
														c24.706-9.824,46.891-21.276,46.891-21.276s30.143-56.411,57.193-135.538c9.209-26.937,20.956,49.369,20.956,49.369
														S160.114,334.063,127.866,371.178z"/>
													<g>
														<path style="fill:#1A0F31;" d="M136.529,383.487c0.041,0.085-0.182,0.272-0.67,0.558
															c-0.241,0.152-0.553,0.314-0.952,0.426c-0.393,0.134-0.853,0.292-1.394,0.345c-1.073,0.2-2.43,0.144-3.927-0.178
															c-1.501-0.321-3.13-0.948-4.809-1.788c-0.838-0.415-1.7-0.896-2.555-1.353c-0.416-0.223-0.886-0.453-1.165-0.538
															c0.001-0.056-0.596,0.032-1.028,0.132c-1.942,0.464-4.118,1.273-6.364,2.089c-2.263,0.823-4.611,1.764-7.175,2.602
															c-2.531,0.826-5.18,1.594-7.926,2.264c-5.49,1.341-10.852,2.181-15.792,2.364c-4.935,0.19-9.452-0.315-13.077-1.45
															c-1.812-0.567-3.385-1.297-4.686-2.063c-1.315-0.748-2.31-1.61-3.082-2.328c-0.745-0.754-1.272-1.38-1.555-1.862
															c-0.299-0.469-0.415-0.739-0.342-0.798c0.074-0.06,0.334,0.092,0.753,0.427c0.404,0.349,1.028,0.825,1.828,1.41
															c0.828,0.55,1.833,1.225,3.117,1.792c1.271,0.583,2.769,1.135,4.486,1.548c3.436,0.823,7.702,1.111,12.428,0.793
															c4.729-0.31,9.913-1.196,15.268-2.504c2.679-0.654,5.275-1.386,7.761-2.16c2.454-0.762,4.844-1.66,7.152-2.425
															c2.323-0.764,4.494-1.499,6.764-1.936c0.286-0.055,0.597-0.088,0.905-0.122l0.532-0.011
															c0.178-0.001,0.453,0.072,0.668,0.128c0.699,0.26,1.121,0.537,1.575,0.801c0.845,0.517,1.658,1.014,2.436,1.49
															c1.535,0.904,2.969,1.591,4.28,2.013c1.307,0.421,2.484,0.621,3.447,0.596c0.488,0.033,0.911-0.032,1.287-0.073
															c0.382-0.02,0.695-0.09,0.95-0.151C136.184,383.42,136.488,383.402,136.529,383.487z"/>
													</g>
													<g>
														<path style="fill:#1A0F31;" d="M111.129,372.724c0.294,0.706-7.688,4.665-17.782,8.92
															c-5.044,2.132-9.653,3.948-12.997,5.218c-1.565,0.582-2.887,1.073-3.956,1.471c-0.393,0.139-0.74,0.261-1.055,0.372
															c-0.128,0.041-0.189,0.057-0.268,0.077c-0.058,0.034-0.11,0.045-0.151,0.024c-0.042-0.022-0.074-0.077-0.088-0.171
															c0.005-0.084,0.065-0.234,0.149-0.352c0.174-0.261,0.476-0.558,0.886-0.881c0.821-0.652,2.078-1.433,3.667-2.304
															c3.179-1.743,7.688-3.85,12.742-5.986C102.389,374.848,110.839,372.029,111.129,372.724z"/>
													</g>
													<g>
														<path style="fill:#1A0F31;" d="M104.2,370.378c0.148,0.341-1.86,1.577-5.285,3.144
															c-3.419,1.577-8.249,3.461-13.569,5.473c-2.66,1.008-5.19,1.962-7.468,2.864c-2.29,0.884-4.31,1.745-6.009,2.469
															c-0.828,0.392-1.612,0.703-2.265,1.026c-0.632,0.294-1.2,0.559-1.708,0.795c-0.924,0.458-1.505,0.65-1.622,0.501
															c-0.117-0.149,0.243-0.63,1.023-1.388c0.39-0.38,0.916-0.763,1.523-1.231c0.608-0.467,1.345-0.907,2.15-1.428
															c1.637-0.973,3.636-2.046,5.912-3.075c2.27-1.051,4.806-2.09,7.487-3.105c5.366-2.029,10.281-3.616,13.853-4.719
															C101.797,370.613,104.047,370.022,104.2,370.378z"/>
													</g>
													<g>
														<path style="fill:#1A0F31;" d="M100.825,367.138c0.08,0.172-0.403,0.581-1.354,1.176
															c-0.473,0.305-1.071,0.638-1.777,0.991c-0.705,0.358-1.513,0.764-2.422,1.157c-3.623,1.633-8.77,3.488-14.464,5.364
															c-2.832,0.933-5.53,1.822-8.005,2.638c-1.217,0.422-2.388,0.796-3.457,1.19c-1.086,0.369-2.073,0.748-2.978,1.092
															c-0.919,0.324-1.69,0.701-2.415,0.973c-0.694,0.309-1.276,0.6-1.784,0.808c-0.926,0.501-1.514,0.752-1.648,0.612
															c-0.128-0.133,0.22-0.663,1.043-1.495c0.436-0.359,0.98-0.811,1.646-1.271c0.68-0.414,1.448-0.943,2.341-1.391
															c0.886-0.473,1.868-0.971,2.94-1.442c1.066-0.5,2.224-0.96,3.442-1.456c2.442-0.956,5.153-1.929,8.009-2.867
															c5.716-1.883,10.903-3.428,14.647-4.575c0.918-0.277,1.763-0.531,2.531-0.763c0.715-0.203,1.357-0.385,1.927-0.547
															C100.112,367.045,100.745,366.966,100.825,367.138z"/>
													</g>
												</g>
												<path style="fill:#C53148;" d="M204.744,178.018c-19.589,0-29.799,10.854-51.059,75.499l49.961-6.083
													C203.646,247.435,221.633,187.366,204.744,178.018z"/>
											</g>
											<g>
												<path style="fill:#1A0F31;" d="M204.744,178.018c0,0,0.965,108.884-1.905,115.115
													c-3.539,7.685-37.723,22.749-21.751,31.086c5.833,3.045,126.031,45.068,168.156,10.121c0,0-6.837-1.05-11.98-38.45
													c0,0-4.004-38.158-0.402-102.656c0,0-27.697-10.094-59.641-15.813C252.486,172.994,204.744,178.018,204.744,178.018z"/>
												<g>
													<g>
														<path style="fill:#EFCFD2;" d="M287.04,156.233c0,0,0.066,11.554-1.146,22.864c-1.002,3.677-23.966,13.933-31.93,0
															c0,0,2.872-11.161,4.437-21.781L287.04,156.233z"/>
													</g>
													<g>
														<g>
															<path style="fill:#F7AF21;" d="M304.85,244.33c-0.098,0.058,0.023,0.353,0.11,0.904
																c0.096,0.545,0.127,1.364-0.184,2.334c-0.313,0.951-0.994,2.081-2.146,2.835c-1.158,0.745-2.811,1.114-4.613,0.881
																c-1.815-0.205-3.689-1.022-5.603-2.235c-0.959-0.604-1.932-1.296-2.961-2.021c-0.531-0.358-0.982-0.731-1.731-1.136
																c-0.363-0.193-0.833-0.364-1.304-0.431c-0.47-0.071-0.935-0.056-1.358,0.009c-0.849,0.133-1.564,0.42-2.206,0.677
																c-0.627,0.244-1.233,0.494-1.871,0.712c-1.264,0.447-2.569,0.856-3.913,1.154c-2.676,0.598-5.536,0.886-8.262,0.324
																c-1.029-0.239-2.032-0.54-2.942-1.007c-0.452-0.219-0.905-0.504-1.304-0.749c-0.375-0.251-0.546-0.492-0.542-0.534
																c-0.027-0.021-0.02-0.3,0.164-0.715c0.208-0.415,0.398-0.862,0.67-1.249c0.505-0.8,1.126-1.528,1.847-2.129
																c1.419-1.228,3.141-2.033,4.859-2.388c0.428-0.098,0.862-0.143,1.288-0.187l0.638-0.031
																c0.106-0.01,0.211-0.001,0.316,0.004l0.573,0.03c0.855,0.065,1.917,0.408,2.855,0.621
																c0.446,0.115,0.89,0.228,1.331,0.341l0.649,0.167c0.201,0.048,0.332,0.063,0.498,0.095
																c-0.625-0.75-1.243-1.493-1.854-2.227c-0.279-0.356-0.644-0.752-0.84-1.064c-0.18-0.303-0.359-0.604-0.537-0.904
																l-0.094-0.217l-0.06-0.185l-0.07-0.203c-0.05-0.134-0.071-0.277-0.109-0.414c-0.066-0.276-0.108-0.558-0.13-0.837
																c-0.094-1.116,0.119-2.211,0.565-3.095c0.866-1.81,2.653-2.686,4.129-2.926c1.508-0.264,2.74,0.027,3.53,0.304
																c0.795,0.288,1.206,0.54,1.292,0.436c0.066-0.072-0.2-0.512-0.987-1.043c-0.779-0.512-2.143-1.087-3.974-0.986
																c-0.905,0.054-1.927,0.263-2.934,0.793c-0.998,0.522-2.002,1.375-2.664,2.547c-0.683,1.153-1.054,2.576-1.014,4.076
																c0.008,0.375,0.044,0.757,0.114,1.138c0.04,0.19,0.064,0.385,0.12,0.575l0.081,0.286
																c0.02,0.068,0.018,0.07,0.017,0.061l0.005,0.027c0.034,0.14,0.082,0.252,0.137,0.332
																c0.003,0.009,0.028,0.032,0.013,0.029l-0.068-0.024l-0.126-0.045c-0.083-0.021-0.151-0.045-0.223-0.056
																c-0.051-0.006,0.01-0.005-0.132-0.016c-0.131-0.01-0.263-0.024-0.394-0.018l-0.796,0.011
																c-0.53,0.034-1.07,0.076-1.602,0.179c-2.137,0.375-4.273,1.304-6.09,2.809c-0.917,0.74-1.733,1.65-2.407,2.682
																c-0.358,0.506-0.62,1.068-0.903,1.642c-0.244,0.587-0.581,1.45-0.291,2.527c0.32,1.055,1.043,1.621,1.581,2.014
																c0.558,0.359,1.076,0.682,1.651,0.968c1.133,0.585,2.364,0.964,3.611,1.248c3.295,0.671,6.517,0.291,9.434-0.395
																c1.467-0.346,2.863-0.808,4.203-1.311c0.671-0.244,1.328-0.53,1.959-0.793c0.607-0.264,1.15-0.476,1.612-0.559
																c0.482-0.072,0.747-0.053,1.15,0.136c0.399,0.19,0.967,0.59,1.484,0.921c1.046,0.686,2.086,1.369,3.148,1.978
																c2.106,1.221,4.4,2.108,6.604,2.215c2.19,0.146,4.261-0.449,5.688-1.574c1.43-1.151,2.071-2.627,2.283-3.829
																c0.202-1.225-0.041-2.196-0.331-2.758C305.2,244.488,304.911,244.289,304.85,244.33z"/>
															<path style="fill:#F7AF21;" d="M317.674,236.206c-0.235-0.76-0.622-1.466-1.096-2.074
																c-0.957-1.214-2.13-2.033-3.283-2.643c-1.151-0.616-2.334-1.057-3.487-1.34c-2.312-0.56-4.471-0.537-6.205-0.23
																c-1.741,0.308-3.063,0.868-3.9,1.361c-0.162,0.095-0.292,0.184-0.419,0.272c-0.036-0.724-0.224-1.4-0.495-2.019
																c-0.398-0.931-1.014-1.796-1.783-2.507c-1.542-1.436-3.494-2.103-5.269-2.187c-1.802-0.076-3.393,0.503-4.489,1.361
																c-1.078,0.864-1.589,1.998-1.576,2.814c0.012,0.829,0.391,1.153,0.546,1.096c0.194-0.053,0.237-0.43,0.502-0.876
																c0.25-0.44,0.772-1.007,1.611-1.419c0.824-0.379,1.974-0.627,3.207-0.451c1.226,0.176,2.577,0.714,3.602,1.681
																c0.513,0.476,0.915,1.021,1.193,1.592c0.302,0.574,0.43,1.172,0.397,1.542c-0.027,0.357-0.187,0.646-0.544,0.921
																c-0.344,0.263-0.801,0.431-1.217,0.495c-0.893,0.129-1.788-0.057-2.417-0.128c-0.638-0.083-1.04-0.07-1.115,0.107
																c-0.074,0.173,0.167,0.485,0.716,0.887c0.554,0.378,1.423,0.94,2.838,1.079c0.725,0.05,1.538-0.056,2.359-0.479
																c0.406-0.214,0.819-0.511,1.163-0.935c0.344-0.418,0.61-0.969,0.716-1.526c0.011-0.062,0.008-0.121,0.017-0.182
																c0.834-0.113,2.398-0.504,4.556-0.565c1.555-0.039,3.406,0.14,5.328,0.737c0.959,0.3,1.927,0.718,2.862,1.256
																c0.935,0.524,1.804,1.19,2.413,1.969c0.616,0.786,0.871,1.613,0.808,2.478c-0.051,0.868-0.428,1.743-0.955,2.46
																c-0.528,0.724-1.195,1.293-1.901,1.676c-0.732,0.4-1.5,0.65-2.234,0.805c-1.475,0.314-2.781,0.279-3.688,0.289
																c-0.912-0.002-1.45,0.027-1.5,0.215c-0.047,0.178,0.399,0.502,1.31,0.838c0.909,0.32,2.3,0.687,4.125,0.587
																c0.907-0.052,1.924-0.237,2.957-0.67c1.058-0.439,2.088-1.172,2.918-2.168c0.827-0.992,1.498-2.276,1.651-3.795
																C317.974,237.78,317.908,236.976,317.674,236.206z"/>
														</g>
														<g>
															<path style="fill:#F7AF21;" d="M236.796,310.23c-0.098,0.058,0.023,0.353,0.11,0.904
																c0.096,0.544,0.127,1.365-0.184,2.334c-0.313,0.951-0.994,2.081-2.146,2.835c-1.158,0.745-2.811,1.114-4.613,0.88
																c-1.815-0.205-3.689-1.022-5.603-2.235c-0.959-0.603-1.932-1.295-2.961-2.021c-0.531-0.358-0.983-0.731-1.731-1.136
																c-0.363-0.193-0.833-0.364-1.304-0.431c-0.47-0.071-0.935-0.056-1.358,0.009c-0.849,0.133-1.564,0.42-2.206,0.677
																c-0.627,0.244-1.233,0.494-1.871,0.712c-1.264,0.447-2.569,0.856-3.913,1.154c-2.676,0.598-5.536,0.886-8.262,0.324
																c-1.029-0.239-2.032-0.54-2.942-1.008c-0.452-0.219-0.905-0.504-1.304-0.749c-0.375-0.251-0.546-0.492-0.542-0.534
																c-0.027-0.021-0.02-0.3,0.163-0.714c0.208-0.415,0.398-0.862,0.67-1.249c0.505-0.8,1.127-1.528,1.847-2.129
																c1.419-1.228,3.141-2.033,4.859-2.388c0.428-0.098,0.862-0.143,1.288-0.187l0.638-0.031
																c0.106-0.01,0.211-0.001,0.316,0.004l0.573,0.03c0.855,0.065,1.917,0.408,2.855,0.621
																c0.446,0.115,0.89,0.228,1.331,0.341l0.649,0.167c0.201,0.048,0.332,0.063,0.498,0.095
																c-0.625-0.75-1.243-1.492-1.854-2.227c-0.279-0.356-0.644-0.752-0.84-1.064c-0.18-0.303-0.359-0.604-0.537-0.904
																l-0.094-0.217l-0.06-0.185l-0.07-0.203c-0.05-0.134-0.07-0.277-0.109-0.414c-0.066-0.276-0.108-0.558-0.13-0.837
																c-0.094-1.116,0.119-2.211,0.565-3.095c0.866-1.81,2.653-2.686,4.129-2.926c1.507-0.264,2.74,0.027,3.529,0.304
																c0.795,0.288,1.207,0.54,1.292,0.436c0.066-0.072-0.2-0.512-0.987-1.043c-0.779-0.512-2.143-1.087-3.975-0.986
																c-0.905,0.054-1.927,0.263-2.934,0.793c-0.998,0.522-2.002,1.375-2.664,2.547c-0.683,1.153-1.054,2.576-1.014,4.076
																c0.008,0.375,0.044,0.757,0.114,1.138c0.04,0.19,0.064,0.385,0.12,0.575l0.081,0.286
																c0.02,0.067,0.018,0.07,0.017,0.061l0.005,0.027c0.034,0.14,0.082,0.252,0.137,0.332
																c0.003,0.009,0.028,0.032,0.013,0.029l-0.068-0.024l-0.126-0.045c-0.083-0.021-0.152-0.045-0.223-0.056
																c-0.051-0.006,0.01-0.005-0.132-0.016c-0.131-0.01-0.263-0.024-0.394-0.018l-0.795,0.011
																c-0.53,0.034-1.07,0.076-1.602,0.179c-2.137,0.375-4.273,1.304-6.09,2.809c-0.917,0.74-1.733,1.65-2.407,2.682
																c-0.358,0.506-0.62,1.068-0.903,1.642c-0.244,0.587-0.581,1.45-0.292,2.527c0.32,1.055,1.043,1.621,1.581,2.014
																c0.558,0.359,1.076,0.682,1.651,0.968c1.133,0.585,2.364,0.964,3.611,1.248c3.295,0.671,6.517,0.291,9.435-0.395
																c1.467-0.346,2.863-0.808,4.203-1.312c0.67-0.244,1.328-0.53,1.959-0.793c0.607-0.264,1.15-0.476,1.612-0.559
																c0.482-0.073,0.747-0.053,1.15,0.136c0.399,0.19,0.967,0.59,1.484,0.921c1.046,0.686,2.086,1.369,3.148,1.978
																c2.106,1.221,4.4,2.108,6.604,2.215c2.19,0.146,4.261-0.449,5.688-1.574c1.43-1.151,2.071-2.627,2.283-3.829
																c0.202-1.225-0.041-2.196-0.331-2.758C237.146,310.388,236.857,310.189,236.796,310.23z"/>
															<path style="fill:#F7AF21;" d="M249.621,302.107c-0.235-0.76-0.622-1.466-1.096-2.074
																c-0.957-1.215-2.13-2.033-3.283-2.642c-1.151-0.616-2.334-1.057-3.487-1.34c-2.312-0.56-4.471-0.537-6.205-0.23
																c-1.741,0.308-3.063,0.868-3.9,1.362c-0.162,0.095-0.292,0.184-0.419,0.272c-0.036-0.724-0.225-1.4-0.495-2.019
																c-0.398-0.931-1.015-1.796-1.784-2.507c-1.542-1.436-3.494-2.103-5.269-2.187c-1.802-0.076-3.393,0.503-4.489,1.361
																c-1.078,0.864-1.589,1.998-1.576,2.814c0.012,0.829,0.39,1.153,0.546,1.096c0.194-0.053,0.237-0.43,0.502-0.876
																c0.25-0.44,0.772-1.006,1.611-1.419c0.824-0.379,1.975-0.627,3.207-0.451c1.226,0.176,2.577,0.714,3.602,1.681
																c0.513,0.476,0.915,1.021,1.193,1.592c0.302,0.574,0.43,1.172,0.397,1.542c-0.027,0.357-0.187,0.646-0.544,0.921
																c-0.344,0.263-0.8,0.431-1.217,0.495c-0.893,0.129-1.788-0.056-2.417-0.128c-0.638-0.083-1.04-0.07-1.115,0.107
																c-0.074,0.173,0.167,0.485,0.716,0.887c0.554,0.378,1.423,0.94,2.838,1.079c0.725,0.05,1.538-0.056,2.359-0.479
																c0.406-0.215,0.819-0.511,1.163-0.935c0.344-0.418,0.61-0.969,0.716-1.526c0.012-0.062,0.008-0.121,0.017-0.182
																c0.834-0.113,2.398-0.504,4.556-0.565c1.555-0.039,3.406,0.14,5.328,0.737c0.959,0.301,1.927,0.718,2.862,1.256
																c0.935,0.524,1.804,1.19,2.413,1.969c0.616,0.786,0.871,1.613,0.808,2.478c-0.052,0.868-0.428,1.743-0.955,2.46
																c-0.528,0.724-1.195,1.293-1.901,1.676c-0.731,0.401-1.5,0.65-2.234,0.805c-1.475,0.314-2.781,0.279-3.688,0.289
																c-0.912-0.001-1.45,0.027-1.499,0.215c-0.047,0.178,0.399,0.502,1.31,0.838c0.91,0.32,2.3,0.687,4.125,0.587
																c0.907-0.052,1.924-0.237,2.957-0.67c1.058-0.439,2.088-1.172,2.918-2.168c0.827-0.992,1.498-2.276,1.651-3.795
																C249.92,303.68,249.855,302.876,249.621,302.107z"/>
														</g>
														<path style="fill:#1A0F31;" d="M258.401,157.315c-0.444,3.011-0.992,6.066-1.551,8.897
															c8.79,3.48,20.648,3.582,29.961,0.177c0.224-5.213,0.231-9.154,0.229-9.988l-17.511,0.493L258.401,157.315z"/>
														<path style="fill:#C53148;" d="M262.624,214.607c-8.921,0-37.824-30.8-36.234-38.27
															c1.67-7.83,31.007-12.746,31.007-12.746l-3.433,15.505c-1.51,3.1,6.84,16.8,10.41,26.26
															c7.21-9.42,23.06-23.1,21.52-26.26c0.336-3.499,1.031-15.807,1.031-15.807s17.296,10.553,18.966,18.393
															C307.501,189.292,271.544,214.607,262.624,214.607z"/>
														<path style="fill:#709BEB;" d="M253.964,179.096c-1.51,3.1,6.84,16.8,10.41,26.26c7.21-9.42,23.06-23.1,21.52-26.26
															C266.029,192.198,253.964,179.096,253.964,179.096z"/>
													</g>
												</g>
											</g>
										</g>
										<g>
											<path style="fill:#EFCFD2;" d="M362.693,302.112c1.695-45.074-5.26-106.777-25.832-108.877
												c0,0-11.116,12.122-14.212,81.162C319.506,311.968,362.693,302.112,362.693,302.112z"/>
											<path style="fill:#C53148;" d="M336.861,193.235c0,0,25.301,2.575,25.301,61.937l-39.513-1.624
												C322.65,253.547,324.961,193.234,336.861,193.235z"/>
										</g>
									</g>
									<g>
										<g>
											<path style="fill:#3E438A;" d="M157.126,319.147c3.691-0.487,177.112,42.068,196.608,40.284l-5.493,42.867
												c0,0-182.617-6.972-201.865-21.95C127.621,365.754,123.755,323.546,157.126,319.147z"/>
											<g>
												<path style="fill:#1A0F31;" d="M146.376,380.348c0.031-0.04,0.424,0.186,1.172,0.619c0.78,0.386,1.937,0.96,3.546,1.516
													c3.187,1.173,8.07,2.421,14.43,3.647c12.728,2.456,31.383,4.78,54.499,6.895c23.119,2.115,50.707,4.035,81.367,5.71
													c7.667,0.391,15.524,0.792,23.55,1.201c4.014,0.183,8.07,0.368,12.166,0.555c2.048,0.087,4.106,0.174,6.173,0.262
													c1.034,0.042,2.07,0.084,3.108,0.126l0.668,0.025c0.014,0.004,0.005-0.019,0.009-0.026
													c1.054-8.277,2.126-16.701,3.214-25.25c0.547-4.281,1.098-8.594,1.652-12.935l0.238-1.863l-0.015,0.002l-0.758,0.01
													l-0.845-0.055c-2.271-0.11-4.48-0.387-6.705-0.65c-8.847-1.194-17.468-2.8-25.959-4.429
													c-8.485-1.645-16.823-3.358-25.004-5.09c-16.36-3.472-32.102-6.978-47.084-10.377
													c-29.928-6.901-56.881-13.117-79.523-18.338c-2.824-0.621-5.61-1.261-8.266-1.731c-0.186-0.04-0.293-0.042-0.41-0.057
													l-0.176-0.025l-0.089-0.015l-0.044-0.008c-0.014,0.017-0.013,0.105-0.117-0.558c0.124,1.101-0.001,0.311,0.011,0.559
													l-0.062,0.01l-0.124,0.02l-0.247,0.039l-0.494,0.079c-0.654,0.119-1.318,0.175-1.951,0.345
													c-0.638,0.149-1.272,0.296-1.901,0.443c-0.617,0.189-1.229,0.377-1.837,0.564c-4.82,1.628-8.861,4.47-11.668,7.956
													c-2.799,3.502-4.444,7.472-5.3,11.24c-0.874,3.779-1.012,7.375-0.849,10.571c0.407,6.417,1.962,11.262,3.215,14.404
													c1.266,3.157,2.171,4.718,2.06,4.779c-0.041,0.024-0.297-0.347-0.76-1.097c-0.239-0.371-0.507-0.849-0.807-1.428
													c-0.316-0.572-0.654-1.251-1.004-2.037c-1.433-3.113-3.188-7.982-3.773-14.548c-0.25-3.273-0.193-6.978,0.637-10.927
													c0.814-3.934,2.458-8.142,5.377-11.915c2.923-3.758,7.217-6.867,12.3-8.653c0.64-0.205,1.285-0.412,1.934-0.62
													c0.661-0.163,1.326-0.327,1.996-0.492c0.667-0.185,1.358-0.255,2.044-0.387l1.036-0.177
													c0.419,0.018,0.957,0.045,1.288,0.109c2.792,0.461,5.54,1.064,8.395,1.658c22.73,4.897,49.676,11.122,79.664,17.766
													c14.99,3.33,30.735,6.781,47.084,10.213c8.175,1.712,16.502,3.409,24.966,5.04c8.463,1.615,17.071,3.211,25.792,4.388
													c2.175,0.257,4.354,0.529,6.484,0.631l0.802,0.053l0.891-0.014l1.632-0.025l0.822-0.013l0.411-0.007
													c0.106-0.035,0.023,0.1,0.036,0.148l-0.026,0.204c-0.199,1.555-0.397,3.107-0.595,4.656
													c-0.558,4.341-1.112,8.653-1.663,12.933c-1.106,8.574-2.195,17.023-3.266,25.326l-0.198,1.537l-0.099,0.767
													c0.013,0.089-0.045,0.094-0.119,0.08l-0.193-0.008l-0.386-0.015l-2.452-0.099c-1.04-0.045-2.077-0.089-3.112-0.133
													c-2.07-0.093-4.13-0.186-6.18-0.279c-4.099-0.199-8.159-0.397-12.176-0.593c-8.031-0.441-15.893-0.873-23.565-1.295
													c-30.678-1.816-58.28-3.939-81.411-6.305c-23.128-2.366-41.794-4.989-54.527-7.782
													c-6.362-1.394-11.244-2.82-14.416-4.18c-1.597-0.647-2.742-1.318-3.488-1.791
													C146.685,380.684,146.349,380.382,146.376,380.348z"/>
											</g>
											<path style="fill:#1A0F31;" d="M353.734,359.432l-5.493,42.867l22.942,1.008c0,0,41.864,31.819,50.841,31.449
												c8.977-0.369-19.18-73.386-26.363-74.209C387.177,359.575,353.734,359.432,353.734,359.432z"/>
											<path style="fill:#709BEB;" d="M388.019,360.058c0,0,18.818,28.742,22.966,37.788
												c8.662,18.885,7.66,36.423,11.038,36.911c4.64,0.67,4.199-22.31-20.913-68.553
												C393.523,352.232,388.019,360.058,388.019,360.058z"/>
											<g>
												<path style="fill:#709BEB;" d="M396.729,388.548c0.145,0.123,0.012,0.58-0.342,1.288
													c-0.202,0.389-0.421,0.809-0.658,1.266c-0.251,0.493-0.573,1.025-0.867,1.649c-0.641,1.215-1.325,2.692-2.009,4.353
													c-0.311,0.843-0.68,1.711-0.96,2.647c-0.322,0.922-0.576,1.899-0.857,2.894c-0.228,1.008-0.471,1.988-0.628,2.952
													c-0.201,0.956-0.291,1.895-0.42,2.784c-0.191,1.786-0.295,3.411-0.312,4.784c-0.039,0.689-0.01,1.31-0.025,1.863
													c-0.009,0.514-0.018,0.988-0.026,1.426c-0.027,0.791-0.128,1.256-0.313,1.295c-0.186,0.039-0.44-0.354-0.742-1.116
													c-0.157-0.38-0.316-0.853-0.445-1.415c-0.134-0.56-0.302-1.202-0.39-1.923c-0.237-1.438-0.338-3.178-0.275-5.11
													c0.065-0.962,0.109-1.981,0.286-3.019c0.133-1.046,0.374-2.11,0.622-3.2c0.302-1.076,0.598-2.126,0.98-3.108
													c0.339-0.997,0.787-1.913,1.189-2.79c0.867-1.728,1.786-3.209,2.68-4.36c0.421-0.592,0.875-1.075,1.26-1.504
													c0.381-0.432,0.747-0.772,1.066-1.031C396.173,388.65,396.584,388.425,396.729,388.548z"/>
											</g>
											<g>
												<path style="fill:#709BEB;" d="M388.312,378.277c0.259,0.294-1.043,1.82-3.166,4.156
													c-2.098,2.344-5.04,5.535-7.186,9.616c-1.043,2.025-1.739,4.105-2.109,6.041c-0.186,0.969-0.287,1.9-0.336,2.776
													c-0.036,0.875-0.022,1.694,0.047,2.439c0.064,0.746,0.171,1.418,0.288,2.009c0.115,0.592,0.245,1.099,0.354,1.521
													c0.09,0.431,0.206,0.75,0.23,1c0.033,0.245,0.013,0.401-0.068,0.451c-0.081,0.049-0.22-0.011-0.413-0.176
													c-0.184-0.17-0.463-0.426-0.717-0.819c-0.273-0.385-0.57-0.881-0.846-1.495c-0.278-0.611-0.541-1.336-0.744-2.162
													c-0.209-0.825-0.347-1.749-0.411-2.748c-0.051-0.998-0.026-2.07,0.112-3.184c0.275-2.228,0.987-4.621,2.174-6.922
													c1.194-2.272,2.659-4.221,4.121-5.829c1.463-1.612,2.909-2.909,4.166-3.928
													C386.332,378.993,388.069,378,388.312,378.277z"/>
											</g>
										</g>
										<g>
											<path style="fill:#3E438A;" d="M348.626,310.286c-3.672,0.615-153.893,80.484-173.456,79.734l7.752,42.516
												c0,0,179.869-46.919,193.892-66.874C390.478,346.219,381.824,304.727,348.626,310.286z"/>
											<g>
												<path style="fill:#1A0F31;" d="M348.626,310.286c-0.008-0.047,0.435-0.15,1.311-0.308
													c0.445-0.075,0.991-0.167,1.638-0.277c0.657-0.063,1.423-0.109,2.293-0.171c1.74-0.092,3.914-0.014,6.445,0.414
													c2.524,0.453,5.392,1.395,8.289,3.09c5.841,3.311,11.323,10.253,13.728,19.467c1.236,4.584,1.798,9.699,1.416,15.081
													c-0.423,5.355-1.695,11.074-4.703,16.364c-0.359,0.667-0.804,1.292-1.207,1.945c-0.186,0.325-0.464,0.646-0.72,0.967
													c-0.252,0.336-0.532,0.624-0.82,0.899c-1.129,1.15-2.397,2.075-3.689,2.978c-2.605,1.767-5.39,3.302-8.268,4.774
													c-5.765,2.926-11.924,5.56-18.349,8.143c-12.86,5.144-26.817,10.017-41.58,14.882
													c-29.54,9.694-62.329,19.316-96.905,28.815c-4.326,1.174-8.626,2.342-12.898,3.502c-2.138,0.571-4.27,1.14-6.394,1.708
													c-1.063,0.281-2.124,0.561-3.184,0.841l-2.846,0.745l-0.198,0.052c-0.051-0.007-0.168,0.091-0.154-0.017l-0.074-0.402
													l-0.147-0.803l-0.293-1.606c-1.56-8.594-3.097-17.062-4.607-25.383c-0.753-4.157-1.499-8.277-2.238-12.358
													c-0.256-1.414-0.512-2.824-0.767-4.23l-0.068-0.374c-0.009-0.114-0.106-0.298,0.084-0.252l0.752-0.034
													c0.507-0.02,0.986-0.052,1.52-0.06l0.986-0.104c0.231-0.018,0.476-0.076,0.714-0.115
													c1.918-0.339,3.858-0.884,5.769-1.464c7.652-2.43,15.005-5.481,22.13-8.498c14.246-6.095,27.599-12.365,40.065-18.284
													c12.461-5.935,24.017-11.578,34.553-16.759c21.042-10.411,38.073-18.837,49.86-24.668
													c5.897-2.894,10.493-5.111,13.639-6.555C346.85,310.779,348.576,310.136,348.626,310.286
													c-0.827,0.432-6.61,3.458-18.071,9.453c-11.645,6.077-28.507,14.856-49.476,25.454
													c-10.486,5.295-22,11.043-34.433,17.074c-12.441,6.016-25.772,12.371-40.054,18.557
													c-7.155,3.065-14.51,6.158-22.349,8.678c-1.974,0.605-3.973,1.179-6.099,1.563c-0.268,0.045-0.525,0.106-0.806,0.131
													c-0.243,0.029-0.682,0.08-0.551,0.064c-0.013,0.007-0.049-0.008-0.04,0.015l0.346,1.874
													c0.749,4.079,1.505,8.197,2.268,12.353c1.521,8.303,3.069,16.754,4.64,25.329l0.003,0.006l0.327-0.087
													c1.057-0.281,2.116-0.562,3.177-0.843c2.121-0.568,4.25-1.138,6.385-1.71c4.267-1.16,8.563-2.327,12.884-3.502
													c34.544-9.49,67.323-19.029,96.846-28.572c14.753-4.789,28.702-9.569,41.525-14.593
													c6.404-2.521,12.541-5.09,18.236-7.919c2.84-1.42,5.58-2.902,8.079-4.563c1.232-0.841,2.439-1.711,3.425-2.702
													c0.26-0.24,0.504-0.486,0.701-0.751c0.211-0.261,0.433-0.496,0.621-0.816c0.381-0.607,0.804-1.183,1.147-1.806
													c2.876-4.926,4.174-10.389,4.644-15.531c0.434-5.171-0.038-10.118-1.16-14.553c-2.186-8.923-7.294-15.633-12.795-18.941
													c-2.733-1.692-5.464-2.681-7.896-3.204c-2.439-0.497-4.56-0.663-6.273-0.661c-0.856,0.013-1.613,0.024-2.267,0.034
													c-0.647,0.055-1.193,0.101-1.638,0.138C349.092,310.322,348.634,310.333,348.626,310.286z"/>
											</g>
											<path style="fill:#1A0F31;" d="M175.17,390.021l17.181,39.655l-21.759,7.34c0,0-76.572,27.49-80.239,22.409
												c-5.258-7.285,42.627-56.589,49.004-59.996C148.637,394.469,160.946,397.845,175.17,390.021z"/>
											<path style="fill:#709BEB;" d="M144.243,397.746c0,0-26.142,22.29-32.667,29.803
												c-13.623,15.686-17.594,32.799-20.974,32.317c-4.641-0.662,2.245-22.591,39.349-59.904
												C141.162,388.688,144.243,397.746,144.243,397.746z"/>
											<g>
												<path style="fill:#709BEB;" d="M157.095,415.147c0.365,0.176-0.071,1.649-0.333,3.988
													c-0.272,2.334-0.271,5.576,0.66,9.002c0.905,3.431,2.458,6.353,3.652,8.41c0.587,1.012,1.131,1.717,1.568,2.184
													c0.431,0.469,0.737,0.732,0.675,0.92c-0.052,0.171-0.509,0.254-1.251-0.018c-0.74-0.262-1.682-0.942-2.554-1.927
													c-0.863-0.972-1.779-2.195-2.625-3.69c-0.847-1.487-1.61-3.238-2.123-5.173c-0.517-1.932-0.716-3.86-0.659-5.595
													c0.053-1.738,0.354-3.286,0.757-4.528c0.4-1.245,0.891-2.188,1.309-2.786
													C156.589,415.331,156.931,415.067,157.095,415.147z"/>
											</g>
											<g>
												<path style="fill:#709BEB;" d="M140.735,417.088c0.353,0.212-0.361,1.833-0.987,4.492
													c-0.316,1.327-0.583,2.922-0.671,4.694c-0.09,1.772,0.024,3.72,0.424,5.707c0.419,1.983,1.086,3.818,1.87,5.409
													c0.783,1.593,1.659,2.952,2.475,4.045c0.814,1.095,1.541,1.952,2.043,2.564c0.5,0.614,0.755,1.012,0.641,1.17
													c-0.107,0.15-0.577,0.044-1.317-0.341c-0.741-0.383-1.734-1.074-2.82-2.102c-1.087-1.024-2.241-2.412-3.251-4.134
													c-1.012-1.718-1.854-3.784-2.333-6.057c-0.46-2.277-0.504-4.507-0.255-6.486c0.246-1.982,0.756-3.712,1.349-5.083
													c0.591-1.374,1.229-2.401,1.758-3.046C140.188,417.276,140.577,416.993,140.735,417.088z"/>
											</g>
										</g>
									</g>
								</g>
								<g>
									<g>
										<g>
											<polygon style="fill:#709BEB;" points="179.017,219.502 267.452,233.174 264.178,308.507 186.954,302.112 											"/>
											<path style="fill:#F0EBE6;" d="M267.452,233.174l-3.274,75.333l-77.223-6.395l-15.593-64.545
												c0,0,3.903-6.412,12.787-5.303c8.883,1.108,43.796,12.469,54.325,11.36C249.002,242.515,267.452,233.174,267.452,233.174
												z"/>
											<path style="fill:#F0EBE6;" d="M187.397,234.614c3.951,0.311,7.736,1.105,11.418,2.596
												c4.114,1.665,7.987,3.833,12.023,5.667c7.81,3.549,16.721,5.197,25.267,5.347c8.585,0.151,17.337-1.365,25.02-5.32
												c2.02-1.04,3.975-2.221,5.72-3.658c0.035-0.06,0.075-0.117,0.109-0.177c1.441-2.521,2.442-9.07-2.16-9.446
												c-2.834-0.231-2.946,3.448-2.946,3.448c-2.171,6.931-15.909,8.045-25.219,7.221
												c-18.447-1.633-35.598-10.611-54.294-10.523c-2.547,0.012-5.233,0.244-7.329,1.691c-1.956,1.35-3.119,3.615-3.645,6.107
												C175.698,234.392,182.324,234.214,187.397,234.614z"/>
											<polygon style="fill:#C53148;" points="179.017,240.022 204.486,241.644 207.503,270.321 185.676,270.321 											"/>
											<polygon style="fill:#C53148;" points="186.839,274.852 207.503,274.852 209.012,287.159 188.875,287.159 											"/>
											<polygon style="fill:#C53148;" points="189.761,289.669 191.372,299.103 240.194,302.112 238.572,290.483 											"/>
											<polygon style="fill:#C53148;" points="207.503,242.65 209.012,258.928 235.354,259.62 236.175,247.169 											"/>
											<polygon style="fill:#C53148;" points="210.268,264.004 212.03,286.405 238.572,286.162 236.106,262.388 											"/>
											<polygon style="fill:#C53148;" points="240.159,246.919 260.395,245.612 256.79,302.112 242.96,302.112 											"/>
											<polygon style="fill:#F0EBE6;" points="264.795,229.622 183.053,215.411 179.017,219.502 264.795,233.553 											"/>
										</g>
										<g>
											<path style="fill:#EFCFD2;" d="M277.156,260.724c-3.815-6.598-5.439-15.16-9.705-15.076
												c-1.665-0.713-0.955,9.493-0.955,9.493s-8.624,2.016-16.22,1.576c-4.803,0.905-18.509-4.483-21.384-5.092
												c-4.1-0.87-10.017,1.591-2.122,6.472c8.982,5.552,18.852,6.986,18.462,7.108c-2.712,0.844-3.004,7.997-2.898,8.658
												c0.871,5.437,5.849,16.869,7.576,17.166c11.324,1.952,25.362,1.258,25.362,1.258s70.562,32.343,79.624,22.279
												c21.455-23.831-7.453-40.704-7.453-40.704S328.934,283.02,277.156,260.724z"/>
											<g>
												<path style="fill:#1A0F31;" d="M277.156,260.724c0.29-0.752,12.566,3.545,27.849,8.176
													c3.825,1.14,7.477,2.18,10.81,3.079c3.338,0.866,6.351,1.614,8.897,2.152c5.084,1.151,8.294,1.368,8.303,1.787
													c0,0.19-0.814,0.343-2.316,0.455c-0.746,0.025-1.659,0.011-2.723-0.012c-1.053-0.077-2.262-0.146-3.581-0.311
													c-2.646-0.302-5.758-0.865-9.182-1.609c-3.415-0.776-7.136-1.755-11-2.907
													C288.772,266.852,276.892,261.385,277.156,260.724z"/>
											</g>
											<g>
												<path style="fill:#1A0F31;" d="M249.911,291.028c-0.063,0.081-0.712-0.22-1.702-1.086
													c-0.992-0.857-2.317-2.304-3.553-4.441c-1.227-2.133-2.363-4.944-2.978-8.33c-0.3-1.692-0.479-3.526-0.4-5.485
													c0.038-0.979,0.143-1.991,0.379-3.032c0.118-0.521,0.275-1.049,0.474-1.582c0.186-0.497,0.622-1.262,0.545-1.113
													c0.034-0.057,0.075-0.102,0.121-0.119c-0.021-0.022-0.129-0.023-0.178-0.033c0.308,0.093-1.296-0.291-2.268-0.559
													c-2.162-0.585-4.372-1.298-6.593-2.177c-2.22-0.878-4.454-1.921-6.641-3.181c-1.077-0.629-2.215-1.303-3.276-2.224
													c-0.532-0.454-1.053-0.975-1.513-1.648c-0.443-0.651-0.888-1.585-0.748-2.731c0.138-1.067,0.855-1.898,1.526-2.345
													c0.688-0.463,1.395-0.716,2.088-0.861c1.387-0.28,2.765-0.206,4.101,0.239c2.133,0.694,4.181,1.398,6.251,1.924
													c4.112,1.109,8.111,1.866,11.878,2.319c3.768,0.452,7.301,0.589,10.492,0.538c1.595-0.038,3.106-0.107,4.518-0.235
													c1.332-0.101,3.04-0.344,3.237-0.376c0.005-0.176,0.009-0.348,0.014-0.516c0-0.363,0-0.717,0-1.061
													c0.005-0.708,0.022-1.374,0.051-1.995c0.057-1.241,0.158-2.305,0.312-3.169c0.158-0.862,0.348-1.535,0.671-1.957
													c0.374-0.486,0.726-0.189,0.733-0.146c0.014,0.032-0.028,0.038-0.111,0.056c-0.093,0.026-0.204,0.151-0.252,0.312
													c-0.126,0.35-0.188,0.993-0.205,1.821c-0.018,0.832,0.009,1.867,0.076,3.08c0.04,0.61,0.083,1.26,0.129,1.951
													c0.076,0.91,0.156,1.871,0.24,2.883c-2.153,0.562-3.168,0.705-4.684,0.936c-1.451,0.213-3.003,0.362-4.646,0.474
													c-3.284,0.198-6.93,0.184-10.828-0.179c-3.897-0.363-8.042-1.064-12.304-2.156c-2.136-0.514-4.288-1.23-6.455-1.92
													c-0.806-0.27-1.782-0.321-2.645-0.137c-0.432,0.086-0.824,0.253-1.097,0.437c-0.278,0.197-0.353,0.353-0.366,0.461
													c-0.021,0.126,0.04,0.448,0.305,0.822c0.249,0.369,0.612,0.754,1.029,1.107c0.822,0.723,1.817,1.332,2.846,1.94
													c2.048,1.198,4.157,2.211,6.265,3.078c2.109,0.868,4.218,1.59,6.288,2.197c1.146,0.328,1.633,0.479,4.017,1.051
													c1.032,0.227,1.354,0.775,1.375,1.063c0.011,0.044,0.039,0.041,0.035,0.125l-0.036,0.31
													c-0.061,0.146-0.202,0.361-0.299,0.536l-0.08,0.138c-0.015,0.023-0.023,0.046-0.044,0.069l-0.117,0.074l-0.464,0.294
													c-0.2,0.183-0.497,0.342-0.613,0.541c-0.181,0.261-0.184,0.295-0.245,0.385c-0.102,0.171-0.185,0.371-0.278,0.555
													c-0.161,0.398-0.302,0.812-0.415,1.241c-0.226,0.857-0.355,1.748-0.422,2.626c-0.14,1.758-0.053,3.469,0.148,5.056
													c0.416,3.184,1.308,5.887,2.286,7.984C247.877,289.079,250.142,290.787,249.911,291.028z"/>
											</g>
											<g>
												<path style="fill:#1A0F31;" d="M362.163,263.435c0.182-0.024,0.635,1.856,1.18,5.303
													c0.535,3.447,1.188,8.465,1.44,14.729c0.121,3.131,0.124,6.577-0.149,10.28c-0.294,3.697-0.832,7.675-2.163,11.741
													c-0.68,2.023-1.565,4.074-2.855,5.991c-0.656,0.948-1.368,1.891-2.242,2.718c-0.413,0.436-0.885,0.817-1.365,1.194
													c-0.122,0.095-0.231,0.19-0.365,0.286l-0.454,0.284c-0.304,0.205-0.616,0.306-0.928,0.458
													c-2.512,0.944-4.935,0.864-7.327,0.762c-2.391-0.155-4.762-0.507-7.128-0.96c-9.452-1.865-18.076-4.745-25.867-7.452
													c-7.777-2.752-14.675-5.491-20.424-7.889c-5.748-2.401-10.344-4.47-13.488-5.973c-3.143-1.505-4.832-2.446-4.756-2.62
													c0.077-0.174,1.907,0.435,5.172,1.634c3.306,1.235,8.003,2.99,13.785,5.151c5.822,2.158,12.763,4.699,20.534,7.301
													c7.771,2.557,16.377,5.339,25.557,7.147c2.292,0.439,4.567,0.778,6.788,0.931c2.188,0.129,4.45,0.119,6.156-0.534
													c0.187-0.098,0.418-0.16,0.573-0.277l0.257-0.153l0.29-0.227c0.394-0.305,0.786-0.609,1.132-0.972
													c0.732-0.674,1.347-1.471,1.925-2.282c1.138-1.643,1.974-3.482,2.633-5.34c1.297-3.739,1.91-7.55,2.289-11.122
													c0.361-3.582,0.472-6.958,0.476-10.042c-0.001-6.172-0.353-11.183-0.56-14.648
													C362.063,265.388,361.968,263.46,362.163,263.435z"/>
											</g>
										</g>
									</g>
									<g>
										<path style="fill:#709BEB;" d="M280.423,259.62l11.199,3.567c0,0,0.498,27.1-7.217,32.704l-9.132-3.604
											C275.273,292.286,284.155,268.264,280.423,259.62z"/>
										<g>
											<path style="fill:#1A0F31;" d="M287.31,278.612c-0.125,0.482-0.271,0.937-0.435,1.367l-0.126,0.318
												c-0.049,0.115-0.069,0.173-0.165,0.372c-0.17,0.323-0.326,0.705-0.542,0.932c-0.353,0.516-1.069,0.584-1.544,0.237
												c-0.251-0.172-0.494-0.392-0.701-0.657c-0.199-0.241-0.423-0.624-0.485-0.776c-0.72-1.609-0.629-3.124-0.344-4.588
												c0.288-1.307,0.84-2.506,1.779-3.572c0.132-0.14,0.277-0.281,0.463-0.415c0.168-0.125,0.47-0.294,0.727-0.35
												c0.545-0.146,1.137,0.018,1.561,0.363c0.712,0.613,0.926,1.246,1.197,1.838c0.511,1.275,0.797,2.609,0.788,3.962
												c-0.002,1.349-0.339,2.718-1.039,3.878c-0.386,0.635-0.815,1.236-1.302,1.792c-0.517,0.535-0.939,1.095-1.843,1.498
												c-0.47,0.186-0.988,0.184-1.417,0.089c-0.435-0.092-0.818-0.272-1.182-0.488c-0.714-0.451-1.249-1.081-1.636-1.757
												c-0.796-1.388-1.012-3.004-0.828-4.485c0.181-1.486,0.691-2.857,1.291-4.142c0.577-1.203,0.916-1.372,1.026-1.084
												c0.116,0.292,0.029,1.057-0.113,1.808c-0.444,2.242-0.915,4.799,0.143,6.958c0.257,0.514,0.586,0.983,0.988,1.29
												c0.39,0.318,0.906,0.486,1.175,0.406c0.321-0.062,0.852-0.523,1.24-0.942c0.404-0.43,0.74-0.911,1.009-1.406
												c0.962-1.843,1.047-3.399,0.876-4.838c-0.1-0.724-0.285-1.438-0.62-2.159c-0.169-0.361-0.366-0.728-0.6-0.943
												c-0.189-0.164-0.298-0.191-0.524-0.013c-0.326,0.27-0.784,0.97-1.103,1.694c-0.328,0.747-0.556,1.63-0.617,2.523
												c-0.063,0.874,0.062,1.776,0.383,2.422c0.019,0.04,0.039,0.083,0.06,0.116l0.017,0.026
												c0.017,0.023,0.032,0.045,0.051,0.064c0.034,0.04,0.073,0.071,0.11,0.095c0.088,0.08,0.158-0.055,0.169-0.118
												l0.029-0.068l0.063-0.117l0.311-0.588c0.211-0.395,0.42-0.784,0.612-1.144c0.219-0.406,0.61-0.537,0.917-0.821
												C287.404,277.624,287.294,278.908,287.31,278.612z"/>
										</g>
									</g>
								</g>
							</g>
							<g>
								<polygon style="fill:#3E438A;" points="317.867,469.83 389.031,436.24 310.466,407.205 241.579,434.532 								"/>
								<polygon style="fill:#F0EBE6;" points="319.006,483.493 317.867,469.83 389.031,436.24 389.031,448.196 								"/>
								<polygon style="fill:#F0EBE6;" points="241.579,447.626 319.006,483.493 317.867,469.83 241.579,434.532 								"/>
								<polygon style="fill:#BC3580;" points="319.006,486.483 319.006,483.493 241.579,447.626 241.579,451.964 								"/>
								<polygon style="fill:#BC3580;" points="389.031,450.036 389.031,448.196 319.006,483.493 319.006,486.483 								"/>
								<path style="fill:#1A0F31;" d="M315.838,458.73c0.35-0.193,37.611-18.332,37.611-18.332l-46.408-18.543l-38.92,15.564
									L315.838,458.73z"/>
								<path style="fill:#576DC0;" d="M300.879,411.008c14.451,5.856,59.374,24.392,75.675,31.121l12.478-5.89l-78.565-29.035
									L300.879,411.008z"/>
								<polygon style="fill:#BC3580;" points="385.371,437.968 385.371,450.584 389.031,448.196 389.031,436.24 								"/>
								<polygon style="fill:#C6BFB9;" points="241.579,438.517 317.867,473.246 385.371,440.636 385.371,437.968 317.867,469.83 
									241.579,434.532 								"/>
								<path style="fill:#F7AF21;" d="M330.651,447.442c0.45-0.44,0.687-0.846,0.785-1.195c0.198-0.698-0.095-1.173-0.412-1.456
									c0.018,0.003,0.025,0.008,0.043,0.011c0.473,0.083,1.154,0.115,1.992,0.05c0.833-0.065,1.827-0.227,2.857-0.549
									c2.088-0.644,3.677-1.802,4.195-2.935c0.535-1.126,0.203-2.294-1.054-3.206c-1.214-0.917-3.172-1.51-5.218-1.792
									c-2.047-0.288-4.142-0.299-5.901-0.21c-1.684,0.09-3.068,0.269-4.056,0.445c0.062-0.06,0.127-0.116,0.186-0.18
									c0.516-0.558,0.869-1.243,0.77-1.953c-0.096-0.699-0.714-1.428-1.968-1.949c-1.235-0.524-2.899-0.803-4.586-0.871
									c-1.702-0.066-3.406,0.078-4.805,0.324c-1.412,0.248-2.507,0.605-3.094,0.897c-0.065,0.032-0.102,0.058-0.156,0.087
									c0.044-0.202,0.026-0.461-0.126-0.769c-0.37-0.71-1.702-1.608-4.4-2.183c-1.34-0.293-2.953-0.517-4.938-0.616
									c-1.006-0.044-2.118-0.051-3.39,0.037c-1.261,0.089-2.757,0.286-4.233,0.705c-1.483,0.408-2.769,1.038-3.503,1.651
									c-0.764,0.622-1.079,1.218-1.201,1.777c-0.124,0.569,0.012,1.088,0.232,1.582c0.228,0.5,0.59,0.982,1.084,1.436
									c0.985,0.914,2.487,1.654,4.276,2.212c0.894,0.281,1.879,0.508,2.912,0.688c1.005,0.182,2.115,0.321,3.369,0.367
									c-0.298,0.066-0.689,0.181-1.161,0.358c-0.95,0.364-2.198,1.003-3.086,1.862c-0.915,0.86-1.35,1.94-0.914,2.928
									c0.427,1.001,1.581,1.918,3.474,2.619c1.889,0.702,4.458,1.061,7.144,0.992c1.335-0.033,2.707-0.176,3.93-0.384
									c1.229-0.207,2.346-0.477,3.306-0.768c0.608-0.184,1.125-0.375,1.6-0.565c-0.134,0.7,0.235,1.479,1.268,2.117
									c0.514,0.321,1.173,0.615,1.998,0.85c0.822,0.234,1.825,0.429,3.111,0.483c1.26,0.062,2.818-0.075,4.175-0.38
									c1.357-0.296,2.508-0.717,3.428-1.156C329.497,448.362,330.189,447.891,330.651,447.442z M324.586,448.436
									c-0.646,0.123-1.255,0.173-1.952,0.144c-1.381-0.06-2.714-0.426-3.585-0.823c-0.9-0.403-1.401-0.88-1.623-1.324
									c-0.116-0.217-0.137-0.452-0.163-0.626c-0.012-0.165,0.048-0.324,0.117-0.438c0.069-0.115,0.143-0.2,0.249-0.278
									c0.102-0.078,0.22-0.143,0.227-0.202c0.008-0.052-0.096-0.105-0.399-0.09c-0.298,0.012-0.801,0.126-1.246,0.33
									c-0.245,0.111-0.466,0.244-0.666,0.39c-0.799,0.284-1.888,0.635-3.294,0.932c-1.522,0.323-3.39,0.564-5.197,0.53
									c-1.843-0.031-3.667-0.323-5.151-0.87c-1.481-0.542-2.521-1.254-3.026-1.97c-0.514-0.718-0.475-1.448-0.104-2.094
									c0.665-1.186,2.146-1.958,2.159-2.193c1.124,0.008,2.333-0.061,3.617-0.282c1.444-0.254,2.807-0.648,3.885-1.172
									c1.088-0.516,1.727-1.178,1.753-1.669c0.057-0.499-0.253-0.868-0.611-1.169c-0.727-0.578-1.723-1.037-3.196-1.197
									c-0.746-0.073-1.505-0.071-2.365,0.054c-0.815,0.123-1.459,0.324-1.952,0.524c-0.995,0.405-1.388,0.844-1.308,1.08
									c0.072,0.239,0.369,0.28,0.472,0.248c0.143-0.037,0.147-0.153,0.319-0.322c0.154-0.164,0.57-0.402,1.276-0.604
									c0.744-0.214,1.491-0.287,2.292-0.127c0.773,0.15,1.438,0.542,1.861,1.051c0.205,0.249,0.306,0.523,0.209,0.776
									c-0.097,0.258-0.367,0.466-0.856,0.681c-0.488,0.215-1.229,0.411-1.973,0.521c-0.707,0.106-1.572,0.138-2.393,0.09
									c-1.662-0.102-3.429-0.472-4.882-0.943c-1.456-0.483-2.698-1.107-3.526-1.867c-0.416-0.378-0.728-0.776-0.936-1.187
									c-0.205-0.416-0.331-0.828-0.266-1.23c0.097-0.821,0.886-1.553,2.201-1.935c1.299-0.414,3.272-0.544,4.924-0.518
									c1.685,0.03,3.221,0.168,4.472,0.361c2.549,0.38,3.993,1.014,4.731,1.531c0.689,0.501,0.872,0.862,1.145,0.861
									c0.006,0.003,0.005,0.009,0.012,0.012c0.369,0.103,1.647-0.291,3.643-0.409c0.989-0.062,2.145-0.067,3.264,0.044
									c1.118,0.113,2.219,0.344,3.07,0.707c1.733,0.714,1.921,1.855,1.673,2.721c-0.239,0.88-0.804,1.514-0.349,1.583
									c0.206,0.031,0.648-0.088,1.201-0.366c0.248-0.124,0.518-0.285,0.787-0.471c0.889,0.017,2.327-0.008,4.07,0.05
									c1.453,0.054,3.108,0.175,4.648,0.475c1.535,0.294,2.935,0.781,3.861,1.484c0.95,0.695,1.241,1.532,1.019,2.316
									c-0.117,0.392-0.374,0.771-0.731,1.097c-0.348,0.325-0.835,0.615-1.304,0.818c-0.488,0.212-1.07,0.377-1.589,0.484
									c-0.525,0.109-1.004,0.17-1.396,0.198c-0.788,0.056-1.274,0.006-1.491,0.108c-0.086,0.036-0.099,0.115-0.023,0.203
									c-0.04,0.002-0.082,0-0.118,0.009c-0.263,0.063-0.396,0.274-0.539,0.598c-0.149,0.324-0.315,0.772-0.759,1.283
									c-0.439,0.518-1.169,1.071-2.317,1.531C325.886,448.113,325.233,448.315,324.586,448.436z"/>
							</g>
						</g>
						<g>
							<path style="fill:#EFCFD2;" d="M284.167,55.637c-67.715-5.416-87.133,100.089-15.628,103.646
								c25.614,1.274,44.049-9.66,55.742-29.498C345.751,93.358,316.217,56.76,284.167,55.637z"/>
							
								<ellipse transform="matrix(0.7071 -0.7071 0.7071 0.7071 -17.7443 207.065)" style="fill:#EAB2B8;" cx="241.077" cy="124.952" rx="10.28" ry="10.28"/>
							
								<ellipse transform="matrix(0.7071 -0.7071 0.7071 0.7071 -5.1267 247.0988)" style="fill:#EAB2B8;" cx="295.711" cy="129.738" rx="10.28" ry="10.28"/>
							<g>
								<path style="fill:#1A0F31;" d="M258.609,98.271c-0.295,0.068-0.605-0.231-1.063-0.648c-0.456-0.418-1.031-0.972-1.875-1.456
									c-0.823-0.496-1.909-0.936-3.155-1.183c-0.632-0.118-1.262-0.192-1.968-0.167c-0.695-0.009-1.417,0.077-2.151,0.208
									c-0.733,0.143-1.442,0.344-2.113,0.596c-0.34,0.114-0.655,0.277-0.98,0.401c-0.305,0.164-0.622,0.299-0.911,0.465
									c-1.173,0.647-2.155,1.391-2.95,2.085c-0.401,0.346-0.746,0.684-1.062,0.987c-0.316,0.302-0.572,0.585-0.833,0.799
									c-0.458,0.458-0.853,0.697-1.12,0.6c-0.267-0.097-0.383-0.53-0.332-1.286c0.057-0.36,0.136-0.814,0.311-1.307
									c0.174-0.494,0.415-1.045,0.756-1.614c0.674-1.141,1.717-2.381,3.148-3.446c0.354-0.271,0.747-0.505,1.139-0.761
									c0.414-0.217,0.827-0.464,1.277-0.654c0.891-0.403,1.865-0.718,2.895-0.918c1.031-0.188,2.066-0.27,3.063-0.195
									c0.99,0.037,1.983,0.249,2.849,0.545c1.749,0.603,3.16,1.586,4.079,2.67c0.94,1.068,1.335,2.218,1.405,2.993
									C259.095,97.773,258.866,98.216,258.609,98.271z"/>
							</g>
							<g>
								<path style="fill:#1A0F31;" d="M283.397,102.086c-0.252-0.077-0.441-0.538-0.298-1.317c0.136-0.766,0.629-1.878,1.658-2.86
									c1.01-1,2.5-1.857,4.295-2.307c0.888-0.219,1.897-0.345,2.886-0.296c1,0.012,2.023,0.182,3.034,0.459
									c1.009,0.288,1.952,0.686,2.805,1.165c0.433,0.228,0.822,0.51,1.216,0.762c0.369,0.289,0.74,0.557,1.069,0.857
									c1.333,1.184,2.266,2.51,2.838,3.705c0.29,0.597,0.483,1.166,0.614,1.674c0.132,0.506,0.171,0.965,0.197,1.329
									c-0.014,0.757-0.167,1.179-0.441,1.252c-0.275,0.073-0.648-0.199-1.064-0.695c-0.242-0.236-0.472-0.54-0.761-0.868
									c-0.288-0.329-0.603-0.696-0.973-1.075c-0.732-0.76-1.646-1.586-2.758-2.332c-0.274-0.19-0.578-0.353-0.868-0.542
									c-0.313-0.152-0.613-0.341-0.942-0.484c-0.647-0.308-1.336-0.57-2.054-0.776c-0.72-0.195-1.432-0.342-2.125-0.393
									c-0.701-0.086-1.335-0.066-1.975-0.004c-1.263,0.138-2.383,0.483-3.246,0.906c-0.882,0.41-1.503,0.911-1.994,1.289
									C284.02,101.908,283.685,102.179,283.397,102.086z"/>
							</g>
							<g>
								<path style="fill:#1A0F31;" d="M283.398,128.526c0.167,0.087-0.219,1.236-1.196,3.174c-0.987,1.931-2.532,4.677-4.937,7.785
									c-1.217,1.541-2.638,3.189-4.501,4.698c-0.934,0.748-1.983,1.467-3.23,2.007c-1.244,0.518-2.706,0.919-4.314,0.628
									c-1.561-0.287-2.906-1.083-4.039-2.006c-1.14-0.933-2.106-2.02-2.995-3.167c-1.768-2.304-3.216-4.872-4.532-7.557
									c-0.655-1.344-1.255-2.691-1.809-4.032c-0.269-0.674-0.535-1.343-0.8-2.006l-0.374-1l-0.301-0.837l-0.333-0.963
									c-1.195-1.701,1.098-1.457,2.187-1.859c0.407-0.078,0.812-0.155,1.215-0.233c0.337-0.068,0.675-0.116,1.01-0.171
									c1.34-0.222,2.657-0.387,3.947-0.507c2.579-0.243,5.045-0.322,7.354-0.24c2.307,0.121,4.459,0.305,6.393,0.723
									c1.939,0.361,3.654,0.903,5.121,1.462c1.452,0.604,2.671,1.198,3.585,1.828c0.954,0.555,1.578,1.161,2.001,1.553
									C283.27,128.209,283.456,128.451,283.398,128.526c-0.059,0.074-0.36-0.022-0.87-0.267c-0.515-0.238-1.203-0.678-2.189-1.063
									c-0.942-0.458-2.159-0.878-3.572-1.313c-1.432-0.392-3.078-0.775-4.937-0.998c-1.848-0.278-3.911-0.341-6.114-0.362
									c-2.209,0.018-4.571,0.177-7.042,0.479c-1.235,0.149-2.499,0.337-3.777,0.576c-0.32,0.059-0.643,0.111-0.963,0.182
									l-0.771,0.161c-0.018,0.011-0.037,0.014-0.017,0.034l0.007,0.01l0.003,0.004c0.002,0.006-0.002-0.01,0.008,0.018l0.045,0.12
									l0.372,0.962c0.261,0.64,0.525,1.285,0.79,1.935c0.545,1.294,1.128,2.592,1.758,3.882c1.26,2.575,2.629,5.024,4.203,7.129
									c1.547,2.077,3.436,3.908,5.352,4.313c0.905,0.21,1.967-0.003,2.932-0.373c0.979-0.381,1.905-0.951,2.758-1.577
									c1.712-1.262,3.148-2.744,4.4-4.137c2.492-2.82,4.265-5.361,5.514-7.093C282.528,129.405,283.228,128.437,283.398,128.526z"
									/>
							</g>
							
								<ellipse transform="matrix(0.9993 -0.0385 0.0385 0.9993 -3.9685 8.555)" style="fill:#EFCFD2;" cx="219.993" cy="107.25" rx="12.746" ry="11.897"/>
							<g>
								<path style="fill:#1A0F31;" d="M210.786,102.561c0.012-0.278,0.826-0.534,2.193-0.602c0.684-0.03,1.511-0.004,2.436,0.165
									c0.921,0.166,1.949,0.495,2.929,1.079c2.034,1.23,3.027,3.32,3.051,4.856c0.019,0.771-0.156,1.383-0.377,1.747
									c-0.094,0.187-0.223,0.309-0.312,0.386c-0.095,0.075-0.176,0.098-0.242,0.072c-0.288-0.115-0.153-0.919-0.511-1.984
									c-0.167-0.533-0.478-1.131-0.918-1.722c-0.449-0.586-1.046-1.156-1.755-1.588c-1.495-0.893-3.19-1.253-4.437-1.559
									C211.589,103.114,210.773,102.852,210.786,102.561z"/>
							</g>
							<path style="fill:#EFCFD2;" d="M341.058,130.8c-5.138,4.469-13.203,4.186-18.015-0.632
								c-4.812-4.818-4.548-12.346,0.59-16.814c5.138-4.469,13.203-4.186,18.015,0.632
								C346.46,118.804,346.196,126.332,341.058,130.8z"/>
							<path style="fill:#1A0F31;" d="M319.407,124.38c-0.177,3.981,2.383,6.163,4.164,6.983c1.995-5.96,3.99-11.92,5.985-17.88
								c0.377-1.126,0.759-2.306,0.574-3.479c-0.437-2.758-6.789-9.946-8.332-6.144C320.162,107.891,319.561,120.914,319.407,124.38
								z"/>
							<path style="fill:#1A0F31;" d="M227.89,115.574c-0.947,1.716-2.608,3.163-4.562,3.323c0.168-6.283,1.111-16.374,1.279-22.657
								c0.032-1.187,6.669-6.467,6.816-2.366C231.579,98.222,228.837,113.858,227.89,115.574z"/>
							<g>
								<path style="fill:#1A0F31;" d="M341.814,122.896c-0.15,0.249-0.975,0.017-2.185-0.428c-1.209-0.434-2.82-1.07-4.56-1.152
									c-0.83-0.032-1.642,0.113-2.34,0.353c-0.693,0.25-1.283,0.575-1.717,0.928c-0.887,0.689-1.219,1.434-1.522,1.371
									c-0.07-0.015-0.124-0.079-0.162-0.194c-0.032-0.113-0.072-0.286-0.047-0.494c0.018-0.425,0.21-1.033,0.652-1.664
									c0.869-1.266,2.851-2.459,5.226-2.36c1.139,0.055,2.177,0.348,3.037,0.719c0.865,0.37,1.568,0.806,2.121,1.209
									C341.421,121.994,341.958,122.658,341.814,122.896z"/>
							</g>
							<path style="fill:#1A0F31;" d="M226.014,85.54c-4.315,2.741-9.658,3.786-14.711,3.015c0.426,3.599,3.582,9.421,13.1,8.367
								c12.889-1.427,22.67-15.165,27.244-26.229c4.271,8.496,13.14,14.764,22.128,17.866c-1.027-4.754-0.181-10.111,2.193-14.356
								c3.851,6.408,9.032,12.334,14.799,17.091c5.768,4.757,12.803,8.166,20.25,8.832c-0.948-3.807,0.083-8.262,2.281-11.512
								c0.708,6.058,3.135,12.72,6.48,17.819c1.738,2.65,3.843,5.13,6.535,6.801c6.16,3.825,14.159,2.765,21.039,0.476
								c-4.924-1.259-15.987-10.174-15.007-12.754c4.767-12.55,2.984-27.734-6.838-36.886
								c-17.964-16.737-51.725-26.088-78.435-12.036C228.832,61.633,237.102,78.497,226.014,85.54z"/>
							<path style="fill:#C92F46;" d="M273.456,63.89h-0.032c-0.096-0.021-0.203-0.053-0.299-0.085
								C273.232,63.837,273.339,63.858,273.456,63.89z"/>
							<path style="fill:#C92F46;" d="M332.346,100.957L332.346,100.957c0,0-4.603-18.832-32.083-29.694
								c-48.302-19.092-66.75-7.373-66.75-7.373s0.963-42.709,65.9-28.027C337.049,44.373,341.814,73.818,332.346,100.957z"/>
							<path style="fill:#3E438A;" d="M226.014,85.54c0,0-22.675-8.285-17.565-20.148c4.966-11.528,95.989-21.369,121.041,10.993
								c12.323,15.919,4.874,24.571,2.856,24.571c-18.221-30.537-59.222-37.165-79.057-34.163
								C231.525,70.087,232.671,84.119,226.014,85.54z"/>
							<path style="fill:#1A0F31;" d="M252.502,106.381c7.737,0,6.86,12.964,0.585,12.026S247.374,106.381,252.502,106.381z"/>
							<path style="fill:#1A0F31;" d="M288.086,109.734c7.509-0.061,6.86,12.964,0.585,12.026
								C282.396,120.822,282.958,109.776,288.086,109.734z"/>
							<g>
								<path style="fill:#C92F46;" d="M265.84,104.539c0.207,0.039,0.129,1.565-0.219,4.257c-0.176,1.346-0.419,2.984-0.743,4.873
									c-0.161,0.945-0.348,1.952-0.56,3.019c-0.114,0.535-0.222,1.082-0.359,1.65c-0.063,0.282-0.134,0.571-0.217,0.868
									l-0.124,0.451l-0.195,0.572c-0.08,0.191-0.237,0.341-0.339,0.524c-0.16,0.135-0.31,0.287-0.482,0.411
									c-0.381,0.227-0.611,0.321-0.901,0.432c-0.544,0.195-1.074,0.336-1.604,0.444c-1.06,0.222-2.134,0.362-3.236,0.471
									c-2.203,0.213-4.514,0.291-6.927,0.261c-2.418-0.042-4.916-0.15-7.568-0.591c-0.671-0.126-1.341-0.257-2.083-0.513
									c-0.384-0.161-0.767-0.258-1.295-0.704c-0.524-0.47-0.716-0.927-0.88-1.274c-0.617-1.455-0.869-2.759-1.155-4.125
									c-0.584-3.047-0.922-6.001-1.168-8.877c-0.114-1.442-0.208-2.847-0.22-4.285c-0.006-0.111,0.007-0.551,0.019-0.853
									c-0.002-0.169,0.023-0.323,0.049-0.477c0.035-0.146,0.02-0.331,0.11-0.433c0.125-0.255,0.299-0.43,0.439-0.674
									c0.117-0.06,0.228-0.125,0.349-0.18l0.45-0.076c0.302-0.046,0.59-0.111,0.9-0.141l0.648-0.01
									c0.338,0,0.675,0.001,1.009,0.001c5.302,0.078,10.03,0.509,13.991,1.096c3.956,0.595,7.122,1.402,9.234,2.194
									c0.512,0.21,0.974,0.399,1.387,0.569c0.394,0.185,0.714,0.379,0.972,0.528C265.636,104.253,265.88,104.453,265.84,104.539
									c-0.041,0.086-0.363,0.054-0.929-0.08c-0.3-0.078-0.641-0.167-1.031-0.268c-0.423-0.093-0.895-0.198-1.419-0.313
									c-2.133-0.455-5.257-0.951-9.161-1.29c-3.899-0.33-8.588-0.555-13.75-0.493c-0.565,0.003-1.571,0.043-1.341,0.044
									c-0.02,0.001-0.037,0.012-0.029,0.037l0.004,0.028c0.002,0.036,0.002-0.065,0.007,0.167
									c0.035,1.301,0.148,2.687,0.277,4.081c0.274,2.792,0.629,5.701,1.183,8.585c0.252,1.254,0.544,2.567,0.953,3.526
									c0.097,0.249,0.219,0.387,0.179,0.351c-0.034-0.017,0.207,0.114,0.42,0.19c0.479,0.172,1.069,0.302,1.648,0.416
									c2.372,0.424,4.823,0.583,7.146,0.675c2.331,0.084,4.577,0.074,6.676-0.052c1.048-0.064,2.063-0.157,3.003-0.311
									c0.897-0.123,1.961-0.473,1.859-0.563l0.107-0.263l0.13-0.39c0.088-0.259,0.17-0.524,0.247-0.793
									c0.152-0.537,0.301-1.061,0.446-1.572c0.271-1.034,0.527-2.013,0.769-2.934c0.473-1.824,0.885-3.414,1.231-4.749
									C265.161,105.951,265.631,104.5,265.84,104.539z"/>
							</g>
							<g>
								<path style="fill:#C92F46;" d="M276.14,106.165c0.406-0.043,1.043,4.847,2.26,12.609c0.087,0.477,0.175,0.965,0.266,1.463
									c0.091,0.438,0.245,1.135,0.284,1.086c-0.005,0.024,0.433,0.271,0.905,0.426c0.472,0.161,0.985,0.309,1.527,0.432
									c2.166,0.5,4.608,0.815,7.165,1.047c2.557,0.217,5.28,0.37,8.012,0.254c0.678-0.032,1.362-0.082,1.991-0.184
									c0.315-0.048,0.611-0.116,0.846-0.188l0.192-0.075c0.007-0.009-0.023,0.015,0.042-0.059c0.247-0.34,0.553-1.009,0.792-1.644
									c0.248-0.651,0.474-1.339,0.69-2.038c0.847-2.813,1.499-5.67,2.058-8.419c0.271-1.373,0.526-2.74,0.694-4.031
									c0.029-0.23,0.019-0.13,0.024-0.165l0.007-0.027c0.01-0.024-0.006-0.036-0.025-0.04c0.229,0.023-0.767-0.12-1.329-0.181
									c-5.129-0.591-9.816-0.849-13.728-0.921c-3.918-0.063-7.077,0.109-9.245,0.343c-0.532,0.061-1.013,0.117-1.443,0.166
									c-0.398,0.061-0.747,0.114-1.053,0.161C276.495,106.256,276.171,106.254,276.14,106.165
									c-0.031-0.089,0.232-0.263,0.773-0.515c0.271-0.121,0.61-0.281,1.021-0.425c0.429-0.126,0.908-0.267,1.438-0.423
									c2.183-0.571,5.415-1.049,9.411-1.235c4-0.177,8.747-0.121,14.029,0.346c0.333,0.034,0.667,0.068,1.004,0.102l0.644,0.076
									c0.305,0.061,0.585,0.155,0.881,0.232l0.44,0.122c0.115,0.067,0.219,0.143,0.329,0.215c0.114,0.257,0.269,0.449,0.367,0.716
									c0.079,0.11,0.046,0.293,0.065,0.442c0.01,0.156,0.019,0.312,0,0.48c-0.019,0.302-0.052,0.741-0.069,0.851
									c-0.159,1.429-0.397,2.817-0.658,4.24c-0.54,2.836-1.179,5.74-2.073,8.71c-0.229,0.743-0.472,1.482-0.757,2.223
									c-0.304,0.75-0.57,1.464-1.183,2.32c-0.161,0.214-0.439,0.514-0.75,0.693c-0.161,0.111-0.301,0.174-0.427,0.224
									c-0.124,0.05-0.271,0.117-0.379,0.145c-0.462,0.142-0.879,0.223-1.28,0.282c-0.802,0.121-1.554,0.163-2.297,0.19
									c-2.961,0.086-5.732-0.131-8.38-0.425c-2.644-0.313-5.136-0.715-7.482-1.361c-0.587-0.16-1.167-0.353-1.746-0.583
									c-0.29-0.12-0.583-0.253-0.884-0.424c-0.152-0.078-0.297-0.192-0.5-0.331c-0.179-0.154-0.34-0.338-0.486-0.519
									c-0.094-0.214-0.25-0.408-0.287-0.633l-0.113-0.5c-0.044-0.275-0.089-0.548-0.132-0.818
									c-0.069-0.528-0.137-1.043-0.186-1.54C275.736,111.094,275.791,106.201,276.14,106.165z"/>
							</g>
							<g>
								<path style="fill:#C92F46;" d="M277.251,112.721c-0.069,0.759-2.959,1.116-6.464,0.952
									c-3.505-0.168-6.348-0.796-6.345-1.558c0.003-0.756,2.904-1.359,6.475-1.189
									C274.489,111.094,277.32,111.968,277.251,112.721z"/>
							</g>
						</g>
					</g>
					<g>
						<polygon style="fill:#1A0F31;" points="427.968,54.613 427.968,162.409 361.767,142.339 361.767,52.41 						"/>
						<g>
							<path style="fill:#F7AF21;" d="M411.027,143.526c-0.081,0.001-0.111,0.226-0.253,0.597c-0.134,0.37-0.406,0.887-0.941,1.375
								c-0.53,0.476-1.352,0.932-2.331,0.989c-0.979,0.049-2.13-0.309-3.16-1.093c-1.048-0.77-1.915-1.939-2.666-3.367
								c-0.378-0.713-0.733-1.485-1.111-2.298c-0.201-0.41-0.347-0.8-0.665-1.315c-0.155-0.248-0.385-0.52-0.652-0.729
								c-0.265-0.21-0.557-0.366-0.841-0.476c-0.571-0.219-1.114-0.296-1.602-0.365c-0.473-0.071-0.936-0.133-1.407-0.224
								c-0.939-0.172-1.889-0.383-2.825-0.676c-1.864-0.581-3.732-1.417-5.215-2.731c-0.551-0.512-1.063-1.054-1.458-1.666
								c-0.201-0.296-0.38-0.632-0.539-0.925c-0.142-0.288-0.162-0.497-0.145-0.522c-0.009-0.023,0.094-0.192,0.354-0.383
								c0.276-0.182,0.551-0.391,0.857-0.533c0.596-0.315,1.237-0.543,1.895-0.659c1.311-0.254,2.66-0.141,3.846,0.25
								c0.299,0.091,0.583,0.217,0.861,0.341l0.405,0.207c0.069,0.031,0.131,0.074,0.194,0.114l0.343,0.222
								c0.505,0.343,1.039,0.932,1.542,1.396c0.235,0.229,0.468,0.457,0.7,0.683l0.342,0.333c0.107,0.101,0.182,0.157,0.274,0.235
								c-0.119-0.685-0.237-1.362-0.354-2.032c-0.046-0.319-0.131-0.693-0.141-0.955c-0.004-0.251-0.007-0.5-0.011-0.748
								l0.019-0.167l0.028-0.135l0.029-0.15c0.017-0.101,0.055-0.196,0.08-0.294c0.057-0.194,0.131-0.383,0.217-0.562
								c0.338-0.722,0.858-1.323,1.447-1.71c1.177-0.81,2.59-0.716,3.587-0.341c1.024,0.372,1.682,0.989,2.071,1.44
								c0.389,0.46,0.553,0.761,0.643,0.727c0.066-0.021,0.058-0.387-0.239-0.994c-0.299-0.593-0.937-1.431-2.103-2.019
								c-0.578-0.288-1.283-0.521-2.092-0.551c-0.801-0.032-1.724,0.139-2.548,0.627c-0.831,0.469-1.564,1.216-2.072,2.156
								c-0.128,0.234-0.241,0.483-0.334,0.743c-0.043,0.131-0.097,0.26-0.13,0.397l-0.052,0.206
								c-0.011,0.049-0.013,0.05-0.011,0.044l-0.006,0.019c-0.029,0.099-0.038,0.185-0.033,0.253
								c-0.001,0.007,0.006,0.029-0.002,0.022l-0.033-0.039l-0.062-0.072c-0.044-0.042-0.078-0.082-0.118-0.113
								c-0.03-0.022,0.008,0-0.076-0.057c-0.077-0.052-0.154-0.108-0.237-0.151l-0.495-0.276c-0.339-0.167-0.687-0.332-1.053-0.458
								c-1.452-0.526-3.1-0.711-4.755-0.426c-0.829,0.131-1.655,0.404-2.437,0.802c-0.4,0.186-0.761,0.439-1.14,0.693
								c-0.359,0.276-0.873,0.689-1.076,1.456c-0.177,0.765,0.069,1.37,0.261,1.804c0.217,0.42,0.422,0.803,0.676,1.184
								c0.492,0.763,1.117,1.434,1.786,2.051c1.796,1.583,3.919,2.492,5.964,3.103c1.028,0.307,2.054,0.517,3.059,0.681
								c0.5,0.087,1.008,0.144,1.491,0.206c0.468,0.052,0.879,0.114,1.193,0.227c0.323,0.126,0.48,0.232,0.661,0.492
								c0.179,0.259,0.388,0.708,0.589,1.095c0.402,0.795,0.802,1.585,1.242,2.338c0.866,1.501,1.968,2.862,3.29,3.71
								c1.3,0.867,2.789,1.234,4.069,1.046c1.291-0.203,2.21-0.887,2.767-1.554c0.56-0.685,0.754-1.37,0.774-1.82
								C411.188,143.748,411.08,143.523,411.027,143.526z"/>
							<path style="fill:#F7AF21;" d="M421.825,143.062c0.124-0.553,0.136-1.126,0.059-1.669c-0.16-1.089-0.594-2.011-1.089-2.796
								c-0.492-0.788-1.065-1.481-1.677-2.064c-1.228-1.166-2.569-1.918-3.749-2.343c-1.184-0.427-2.198-0.551-2.89-0.543
								c-0.134,0.001-0.245,0.01-0.355,0.019c0.235-0.46,0.358-0.944,0.41-1.422c0.085-0.716,0.011-1.469-0.211-2.18
								c-0.442-1.434-1.41-2.538-2.476-3.219c-1.085-0.686-2.273-0.893-3.254-0.752c-0.972,0.151-1.689,0.67-1.971,1.178
								c-0.287,0.516-0.168,0.85-0.052,0.87c0.139,0.036,0.299-0.181,0.621-0.362c0.311-0.183,0.833-0.347,1.497-0.304
								c0.643,0.058,1.441,0.314,2.139,0.859c0.694,0.543,1.337,1.355,1.627,2.315c0.148,0.476,0.203,0.955,0.171,1.406
								c-0.017,0.462-0.15,0.876-0.302,1.093c-0.144,0.211-0.345,0.333-0.662,0.375c-0.305,0.04-0.647-0.018-0.927-0.126
								c-0.597-0.237-1.083-0.669-1.447-0.936c-0.365-0.277-0.617-0.412-0.726-0.33c-0.107,0.081-0.069,0.359,0.127,0.801
								c0.208,0.43,0.545,1.085,1.369,1.673c0.43,0.288,0.969,0.511,1.626,0.541c0.327,0.012,0.687-0.025,1.05-0.165
								c0.361-0.136,0.72-0.382,0.983-0.688c0.029-0.034,0.048-0.072,0.075-0.107c0.555,0.226,1.659,0.54,3.013,1.268
								c0.974,0.528,2.053,1.295,3.027,2.345c0.485,0.526,0.935,1.127,1.321,1.79c0.391,0.655,0.691,1.374,0.791,2.072
								c0.101,0.704-0.035,1.305-0.381,1.816c-0.34,0.518-0.882,0.924-1.462,1.18c-0.583,0.26-1.196,0.374-1.768,0.36
								c-0.594-0.012-1.156-0.131-1.665-0.296c-1.022-0.33-1.815-0.814-2.379-1.13c-0.562-0.324-0.905-0.498-1.002-0.399
								c-0.092,0.093,0.068,0.451,0.511,0.982c0.448,0.52,1.176,1.24,2.338,1.825c0.578,0.29,1.272,0.536,2.063,0.636
								c0.809,0.105,1.705,0.017,2.57-0.303c0.862-0.319,1.732-0.874,2.365-1.757C421.452,144.139,421.697,143.62,421.825,143.062z"
								/>
						</g>
						<g>
							<path style="fill:#F7AF21;" d="M395.2,71.698c-0.067,0.039,0.015,0.242,0.075,0.619c0.066,0.373,0.087,0.934-0.126,1.597
								c-0.214,0.651-0.68,1.425-1.469,1.941c-0.793,0.51-1.924,0.763-3.158,0.603c-1.242-0.14-2.525-0.699-3.835-1.53
								c-0.656-0.413-1.323-0.887-2.027-1.383c-0.363-0.245-0.673-0.501-1.185-0.778c-0.248-0.132-0.57-0.249-0.893-0.295
								c-0.322-0.048-0.64-0.038-0.93,0.006c-0.581,0.091-1.07,0.287-1.51,0.463c-0.429,0.167-0.844,0.338-1.281,0.487
								c-0.865,0.306-1.759,0.586-2.679,0.79c-1.832,0.409-3.79,0.606-5.656,0.222c-0.704-0.163-1.391-0.369-2.014-0.69
								c-0.309-0.15-0.619-0.345-0.893-0.513c-0.256-0.172-0.373-0.337-0.371-0.365c-0.019-0.014-0.014-0.205,0.112-0.489
								c0.143-0.284,0.272-0.59,0.459-0.855c0.346-0.548,0.771-1.046,1.264-1.457c0.972-0.84,2.15-1.392,3.326-1.635
								c0.293-0.067,0.59-0.098,0.881-0.128l0.437-0.021c0.073-0.007,0.144-0.001,0.216,0.002l0.392,0.02
								c0.585,0.044,1.312,0.279,1.955,0.425c0.306,0.078,0.609,0.156,0.911,0.234l0.444,0.114c0.137,0.033,0.227,0.043,0.341,0.065
								c-0.428-0.513-0.851-1.022-1.269-1.524c-0.191-0.244-0.441-0.515-0.575-0.728c-0.123-0.207-0.246-0.413-0.368-0.618
								l-0.064-0.148l-0.041-0.126l-0.048-0.139c-0.034-0.092-0.048-0.19-0.074-0.284c-0.045-0.189-0.074-0.382-0.089-0.573
								c-0.064-0.764,0.081-1.514,0.387-2.119c0.593-1.239,1.816-1.838,2.826-2.003c1.032-0.181,1.876,0.019,2.416,0.208
								c0.544,0.197,0.826,0.369,0.884,0.298c0.045-0.05-0.137-0.351-0.676-0.714c-0.534-0.351-1.467-0.744-2.721-0.675
								c-0.619,0.037-1.319,0.18-2.008,0.543c-0.683,0.357-1.371,0.941-1.823,1.743c-0.467,0.789-0.722,1.763-0.694,2.79
								c0.006,0.257,0.03,0.518,0.078,0.779c0.027,0.13,0.044,0.263,0.082,0.393l0.055,0.196c0.014,0.046,0.013,0.048,0.011,0.042
								l0.004,0.019c0.023,0.096,0.056,0.172,0.094,0.227c0.002,0.006,0.019,0.022,0.009,0.02l-0.046-0.017l-0.087-0.031
								c-0.057-0.014-0.104-0.031-0.153-0.038c-0.035-0.004,0.007-0.003-0.091-0.011c-0.09-0.007-0.18-0.016-0.27-0.012
								l-0.544,0.007c-0.363,0.023-0.732,0.052-1.097,0.122c-1.463,0.257-2.925,0.892-4.169,1.923
								c-0.628,0.506-1.186,1.13-1.647,1.836c-0.245,0.347-0.424,0.731-0.618,1.124c-0.167,0.402-0.398,0.993-0.2,1.73
								c0.219,0.722,0.714,1.109,1.082,1.379c0.382,0.246,0.737,0.467,1.13,0.663c0.776,0.401,1.618,0.66,2.472,0.854
								c2.255,0.459,4.461,0.199,6.458-0.271c1.004-0.237,1.96-0.553,2.877-0.898c0.459-0.167,0.909-0.363,1.341-0.543
								c0.415-0.181,0.787-0.326,1.103-0.383c0.33-0.05,0.512-0.036,0.787,0.093c0.273,0.13,0.662,0.404,1.016,0.631
								c0.716,0.47,1.428,0.937,2.155,1.354c1.441,0.836,3.012,1.443,4.521,1.517c1.499,0.1,2.917-0.308,3.894-1.078
								c0.979-0.788,1.418-1.798,1.563-2.621c0.138-0.839-0.028-1.503-0.227-1.888C395.44,71.806,395.242,71.67,395.2,71.698z"/>
							<path style="fill:#F7AF21;" d="M403.979,66.137c-0.161-0.52-0.426-1.004-0.75-1.419c-0.655-0.831-1.458-1.392-2.247-1.809
								c-0.788-0.421-1.598-0.724-2.387-0.917c-1.582-0.383-3.06-0.368-4.248-0.158c-1.192,0.211-2.096,0.594-2.669,0.932
								c-0.111,0.065-0.2,0.126-0.287,0.186c-0.024-0.496-0.154-0.959-0.339-1.382c-0.272-0.637-0.694-1.229-1.221-1.716
								c-1.056-0.983-2.392-1.44-3.606-1.497c-1.233-0.052-2.323,0.344-3.073,0.932c-0.738,0.592-1.088,1.368-1.079,1.926
								c0.008,0.567,0.267,0.789,0.374,0.75c0.133-0.036,0.162-0.294,0.344-0.599c0.171-0.301,0.529-0.689,1.103-0.971
								c0.564-0.26,1.352-0.429,2.195-0.309c0.839,0.12,1.764,0.489,2.466,1.151c0.352,0.326,0.627,0.699,0.816,1.09
								c0.207,0.393,0.294,0.802,0.272,1.056c-0.019,0.245-0.128,0.442-0.372,0.63c-0.235,0.18-0.548,0.295-0.833,0.339
								c-0.611,0.088-1.224-0.039-1.655-0.087c-0.437-0.057-0.712-0.048-0.763,0.073c-0.05,0.118,0.115,0.332,0.49,0.607
								c0.379,0.259,0.974,0.644,1.943,0.739c0.496,0.035,1.053-0.038,1.615-0.328c0.278-0.147,0.561-0.35,0.796-0.64
								c0.236-0.286,0.417-0.664,0.49-1.045c0.008-0.043,0.005-0.083,0.011-0.125c0.571-0.078,1.641-0.345,3.119-0.386
								c1.064-0.026,2.332,0.096,3.647,0.504c0.656,0.206,1.319,0.492,1.959,0.86c0.64,0.359,1.235,0.815,1.652,1.348
								c0.422,0.538,0.596,1.104,0.553,1.697c-0.035,0.594-0.293,1.193-0.654,1.684c-0.361,0.496-0.818,0.885-1.301,1.147
								c-0.501,0.274-1.027,0.445-1.529,0.551c-1.009,0.215-1.904,0.191-2.524,0.198c-0.624-0.001-0.993,0.018-1.026,0.147
								c-0.032,0.122,0.273,0.343,0.897,0.574c0.622,0.219,1.575,0.47,2.823,0.402c0.621-0.035,1.317-0.162,2.024-0.459
								c0.724-0.3,1.429-0.802,1.997-1.484c0.566-0.679,1.025-1.558,1.13-2.598C404.184,67.214,404.139,66.664,403.979,66.137z"/>
						</g>
						<path style="fill:#F0EBE6;" d="M420.982,119.6c-13.673-0.941-26.67-12.838-31.172-13.555
							c-5.095-0.811-22.174,3.816-22.174,3.816l0.049-21.703c15.233-3.551,33.213-2.059,53.297,3.291V119.6z"/>
						<path style="fill:#C6BFB9;" d="M403.962,90.634c4.902,0.864,9.557,2.406,14.129,4.347c0.986,0.419,1.961,0.869,2.891,1.395
							v-4.926c-20.083-5.35-38.064-6.841-53.297-3.291l-0.005,2.214C379.766,89.712,391.95,88.516,403.962,90.634z"/>
						<path style="fill:#C6BFB9;" d="M415.124,115.397c-7.94-1.81-14.3-7.259-21.72-10.277c-2.134-0.868-4.432-1.392-6.744-1.136
							c-2.691,0.298-5.398,1.054-8.034,1.662c-3.66,0.844-7.311,1.736-10.986,2.511l-0.004,1.704c0,0,17.079-4.627,22.174-3.816
							c4.501,0.716,17.499,12.614,31.171,13.555v-3.866C419.027,116.023,416.946,115.812,415.124,115.397z"/>
						<g>
							<path style="fill:#C92F46;" d="M406.315,115.013c-0.285,0.213-1.562-0.986-2.306-3.545c-0.377-1.258-0.606-2.796-0.715-4.457
								c-0.112-1.655-0.145-3.477-0.065-5.388c0.293-7.68,2.352-13.625,3.065-13.439c0.761,0.175-0.041,6.172-0.318,13.551
								c-0.126,3.694-0.262,7.07-0.06,9.361C406.099,113.412,406.654,114.799,406.315,115.013z"/>
						</g>
						<path style="fill:#1A0F31;" d="M406.04,96.198c4.09,1.138,4.018,12.055-0.487,10.876
							C399.414,105.467,400.213,94.576,406.04,96.198z"/>
						<path style="fill:#1A0F31;" d="M378.637,93.469c-4.227,0.396-3.994,11.223,2.014,10.161
							C385.259,102.814,384.943,92.879,378.637,93.469z"/>
						<g>
							<path style="fill:#1A0F31;" d="M416.509,94.267c0.079,0.765-4.75,1.882-10.677,3.136c-1.472,0.297-2.875,0.58-4.194,0.847
								c-1.299,0.236-2.431,0.482-3.549,0.576c-1.095,0.096-2.089-0.082-2.675-0.411c-0.594-0.332-0.769-0.694-0.675-0.844
								c0.1-0.17,0.443-0.154,0.939-0.193c0.502-0.041,1.171-0.162,2.048-0.462c0.857-0.291,2.018-0.747,3.304-1.125
								c1.287-0.389,2.718-0.759,4.236-1.078C411.352,93.425,416.437,93.521,416.509,94.267z"/>
						</g>
						<g>
							<path style="fill:#1A0F31;" d="M390.284,96.773c-0.049,0.366-1.208,0.576-3.041,0.371c-1.827-0.202-4.28-0.869-6.801-1.898
								c-2.517-1.019-4.704-2.125-6.21-2.926c-1.452-0.798-2.424-1.008-2.485-1.391c-0.016-0.183,0.253-0.405,0.809-0.528
								c0.552-0.128,1.379-0.113,2.307,0.08c1.824,0.388,4.123,1.211,6.604,2.214c2.309,0.947,4.404,1.806,6.255,2.565
								C389.319,95.919,390.338,96.387,390.284,96.773z"/>
						</g>
						<g>
							<path style="fill:#1A0F31;" d="M385.338,102.484c0.216,0.287-0.233,1.117-1.489,1.85c-1.228,0.731-3.306,1.236-5.519,0.731
								c-2.206-0.505-3.843-1.816-4.676-2.94c-0.854-1.139-1-2.046-0.699-2.249c0.635-0.447,2.759,1.797,5.985,2.508
								c1.587,0.36,3.113,0.282,4.244,0.123C384.318,102.359,385.109,102.164,385.338,102.484z"/>
						</g>
						<g>
							<path style="fill:#1A0F31;" d="M416.904,101.462c0.253,0.268-0.273,1.318-1.529,2.752c-0.636,0.71-1.471,1.517-2.585,2.253
								c-1.103,0.724-2.555,1.37-4.145,1.561c-1.576,0.201-2.999,0.048-4.242-0.153c-1.276-0.211-2.45-0.587-3.359-1.13
								c-0.917-0.528-1.515-1.247-1.759-1.794c-0.243-0.562-0.193-0.921-0.035-1.001c0.364-0.167,1.053,0.648,2.583,1.018
								c0.762,0.204,1.729,0.335,2.853,0.39c1.155,0.054,2.406,0.101,3.602-0.057c2.349-0.281,4.314-1.597,5.814-2.558
								C415.596,101.765,416.636,101.178,416.904,101.462z"/>
						</g>
						<g>
							<path style="fill:#F0EBE6;" d="M406.449,102.56c-0.741,0.164-1.524-0.524-1.748-1.537c-0.224-1.013,0.196-1.966,0.937-2.13
								c0.742-0.164,1.524,0.524,1.748,1.537C407.61,101.442,407.19,102.396,406.449,102.56z"/>
						</g>
						<g>
							<path style="fill:#F0EBE6;" d="M380.912,99.492c-0.632,0.414-1.615,0.025-1.956-0.969c-0.34-0.995,0.2-1.904,0.953-1.964
								c0.761-0.064,1.424,0.434,1.649,1.074C381.773,98.277,381.553,99.077,380.912,99.492z"/>
						</g>
						<g>
							<path style="fill:#FFCF7B;" d="M371.587,47.867c0.357,0.675-0.094,1.682-1.032,2.802c-0.942,1.122-2.364,2.371-4.049,3.573
								c-1.684,1.204-3.328,2.142-4.695,2.668c-1.364,0.523-2.463,0.622-2.985,0.065c-0.517-0.551-0.343-1.669,0.444-3.009
								c0.783-1.337,2.192-2.881,4.042-4.202c1.85-1.319,3.768-2.151,5.287-2.457C370.12,47,371.234,47.199,371.587,47.867z"/>
						</g>
						<g>
							<path style="fill:#FFCF7B;" d="M434.919,154.258c1.079,1.068-0.692,4.609-3.957,7.908c-3.265,3.299-6.787,5.107-7.866,4.039
								c-1.08-1.069,0.692-4.609,3.957-7.908C430.317,154.997,433.839,153.189,434.919,154.258z"/>
						</g>
					</g>
				</g>
			</g>
			<g>
				<path style="fill:#E89A0F;" d="M89.282,94.319c0.12,0.147-0.003,0.499-0.314,0.995c-0.183,0.279-0.374,0.569-0.574,0.873
					c-0.218,0.339-0.496,0.691-0.752,1.121c-0.272,0.415-0.569,0.864-0.853,1.369c-0.311,0.485-0.58,1.043-0.894,1.605
					c-0.275,0.588-0.595,1.184-0.857,1.841c-0.292,0.641-0.539,1.331-0.807,2.032c-1.008,2.835-1.598,5.549-2.064,7.536
					c-0.23,0.994-0.441,1.808-0.629,2.372c-0.193,0.564-0.39,0.877-0.58,0.87c-0.19-0.007-0.354-0.334-0.489-0.929
					c-0.139-0.594-0.223-1.455-0.235-2.523c-0.019-2.127,0.294-5.115,1.408-8.254c0.295-0.777,0.59-1.535,0.951-2.237
					c0.329-0.714,0.737-1.364,1.111-1.982c0.415-0.598,0.796-1.171,1.228-1.656c0.403-0.504,0.828-0.932,1.229-1.306
					c0.384-0.389,0.792-0.68,1.138-0.941c0.343-0.264,0.669-0.453,0.951-0.587C88.806,94.246,89.161,94.172,89.282,94.319z"/>
			</g>
			<g>
				<path style="fill:#E89A0F;" d="M144.612,102.044c-0.182,0.054-0.443-0.172-0.757-0.617c-0.305-0.449-0.697-1.103-1.135-1.911
					c-0.462-0.796-0.966-1.751-1.606-2.737c-0.3-0.507-0.664-0.997-1.02-1.516c-0.378-0.502-0.773-1.013-1.211-1.505
					c-0.442-0.486-0.878-0.958-1.342-1.365c-0.442-0.434-0.924-0.789-1.37-1.149c-0.465-0.334-0.905-0.662-1.349-0.929
					c-0.426-0.297-0.859-0.52-1.243-0.757c-0.381-0.243-0.756-0.411-1.068-0.607c-0.284-0.17-0.557-0.333-0.822-0.491
					c-0.451-0.293-0.689-0.546-0.646-0.73c0.044-0.185,0.368-0.284,0.933-0.301c0.282-0.007,0.627-0.005,1.016,0.062
					c0.388,0.067,0.841,0.118,1.318,0.265c0.479,0.141,1.013,0.285,1.555,0.531c0.556,0.213,1.119,0.513,1.707,0.846
					c0.569,0.357,1.176,0.739,1.732,1.223c0.58,0.457,1.117,1.003,1.64,1.58c0.519,0.583,0.966,1.194,1.371,1.8
					c0.379,0.618,0.745,1.216,1.017,1.816c0.589,1.183,0.945,2.307,1.198,3.252c0.227,0.954,0.35,1.736,0.345,2.297
					C144.88,101.661,144.794,101.99,144.612,102.044z"/>
			</g>
		</g>
	</g>
</g>
</svg>
