<?xml version="1.0" encoding="utf-8"?>
<!-- Generator: Adobe Illustrator 27.5.0, SVG Export Plug-In . SVG Version: 6.00 Build 0)  -->
<svg version="1.1" xmlns="http://www.w3.org/2000/svg" xmlns:xlink="http://www.w3.org/1999/xlink" x="0px" y="0px"
	 viewBox="0 0 500 500" style="enable-background:new 0 0 500 500;" xml:space="preserve">
<g id="BACKGROUND">
	<rect style="fill:#FFB759;" width="500" height="500"/>
</g>
<g id="OBJECTS">
	<g>
		
			<ellipse transform="matrix(0.0898 -0.996 0.996 0.0898 68.3805 394.4532)" style="fill:#FFFFFF;" cx="250" cy="159.815" rx="124.279" ry="124.28"/>
		<g>
			<g>
				<path style="fill:#CC3D4B;" d="M28.446,345.545h283.213v-7.415H55.186c-6.967,0-12.634-5.667-12.634-12.634
					c0-6.966,5.667-12.633,12.634-12.633h40.666c11.056,0,20.048-8.994,20.048-20.048s-8.992-20.049-20.048-20.049H-0.001v7.415
					h75.983c6.966,0,12.633,5.667,12.633,12.634c0,6.966-5.667,12.633-12.633,12.633H28.446c-11.054,0-20.046,8.994-20.046,20.048
					C8.4,336.55,17.393,345.545,28.446,345.545z"/>
			</g>
			<g>
				<path style="fill:#CC3D4B;" d="M341.705,471.758H500v-7.415H368.444c-6.967,0-12.634-5.667-12.634-12.634
					c0-6.966,5.667-12.633,12.634-12.633h40.666c11.056,0,20.048-8.994,20.048-20.048c0-11.054-8.992-20.049-20.048-20.049h-95.853
					v7.415h75.983c6.966,0,12.633,5.667,12.633,12.634c0,6.966-5.667,12.633-12.633,12.633h-47.536
					c-11.054,0-20.046,8.994-20.046,20.048C321.659,462.763,330.651,471.758,341.705,471.758z"/>
			</g>
			<g>
				<path style="fill:#CC3D4B;" d="M403.95,333.597H500v7.415h-69.311c-6.967,0-12.634,5.667-12.634,12.634
					c0,6.966,5.667,12.633,12.634,12.633h40.666c11.056,0,20.048,8.994,20.048,20.048s-8.992,20.049-20.048,20.049h-95.853v-7.415
					h75.983c6.966,0,12.633-5.667,12.633-12.634c0-6.966-5.667-12.633-12.633-12.633H403.95c-11.054,0-20.046-8.994-20.046-20.048
					C383.904,342.592,392.896,333.597,403.95,333.597z"/>
			</g>
			<path style="opacity:0.4;fill:#FFFFFF;" d="M359.292,309.249c-3.034,0-5.491-2.459-5.491-5.493c0-3.034,2.457-5.493,5.491-5.493
				h17.009c3.034,0,5.493,2.459,5.493,5.493c0,3.034-2.459,5.493-5.493,5.493H359.292z"/>
			<path style="opacity:0.4;fill:#FFFFFF;" d="M405.709,232.898c-4.86,0-8.796-3.939-8.796-8.8c0-4.86,3.936-8.799,8.796-8.799
				h47.072c4.86,0,8.8,3.939,8.8,8.799c0,4.861-3.939,8.8-8.8,8.8H405.709z"/>
			<path style="opacity:0.4;fill:#FFFFFF;" d="M35.458,378.478c-3.862,0-6.99-3.131-6.99-6.993c0-3.862,3.128-6.993,6.99-6.993
				h21.654c3.862,0,6.992,3.131,6.992,6.993c0,3.862-3.13,6.993-6.992,6.993H35.458z"/>
		</g>
		<g>
			<path style="fill:#43454A;" d="M321.893,239.278c0,0,0.109,1.057,0.311,3.038c0.1,0.996,0.221,2.223,0.408,3.573
				c0.186,1.376,0.352,2.94,0.65,4.737c0.514,3.582,1.315,7.914,2.361,12.863c1.076,4.944,2.483,10.494,4.258,16.496
				c1.775,6.003,3.932,12.455,6.445,19.217c2.523,6.76,5.402,13.83,8.527,21.104c3.137,7.274,6.512,14.754,9.959,22.379
				c3.441,7.626,6.951,15.397,10.234,23.3c3.289,7.896,6.344,15.935,8.789,24.064c2.426,8.127,4.25,16.362,4.91,24.489
				c0.332,4.057,0.439,8.076,0.18,11.997c-0.248,3.921-0.791,7.734-1.582,11.387c-0.814,3.649-1.928,7.113-3.168,10.39
				c-0.693,1.61-1.301,3.224-2.068,4.728c-0.371,0.759-0.721,1.518-1.098,2.254c-0.395,0.726-0.787,1.443-1.174,2.154
				c-3.142,5.666-6.68,10.438-10.066,14.411c-3.402,3.963-6.59,7.208-9.322,9.757c-2.733,2.548-4.941,4.478-6.49,5.739
				c-1.535,1.277-2.355,1.958-2.355,1.958l-0.641-0.768c0,0,0.789-0.706,2.27-2.028c1.492-1.307,3.615-3.301,6.229-5.917
				c2.609-2.617,5.641-5.934,8.842-9.942c3.184-4.018,6.469-8.806,9.311-14.396c0.352-0.7,0.705-1.408,1.063-2.123
				c0.338-0.724,0.648-1.468,0.978-2.211c0.691-1.476,1.217-3.049,1.828-4.616c1.076-3.188,2.022-6.534,2.674-10.04
				c0.627-3.509,1.014-7.154,1.117-10.892c0.115-3.738-0.125-7.564-0.58-11.428c-0.908-7.736-2.941-15.596-5.578-23.396
				c-2.654-7.803-5.918-15.56-9.439-23.225c-3.514-7.671-7.272-15.259-10.98-22.751c-3.713-7.488-7.377-14.887-10.809-22.124
				c-3.424-7.243-6.611-14.33-9.441-21.155c-2.82-6.828-5.279-13.394-7.34-19.542c-2.063-6.148-3.734-11.875-5.045-17.005
				c-1.281-5.137-2.283-9.655-2.961-13.41c-0.693-3.735-1.186-6.851-1.436-8.761c-0.273-1.973-0.418-3.024-0.418-3.024
				L321.893,239.278z"/>
			<path style="fill:#43454A;" d="M190.855,242.558c0,0-0.4,1.008-1.15,2.898c-0.418,0.986-0.934,2.202-1.539,3.631
				c-0.639,1.383-1.328,2.995-2.186,4.744c-3.326,7.064-8.605,16.755-15.365,27.974c-6.73,11.24-14.896,24.05-23.31,37.903
				c-8.389,13.859-17.023,28.805-24.168,44.419c-1.781,3.903-3.447,7.852-5.018,11.819c-1.535,3.978-2.955,7.979-4.217,11.993
				c-1.227,4.021-2.318,8.047-3.199,12.066c-0.85,4.024-1.541,8.03-1.976,11.997c-0.4,3.968-0.643,7.889-0.58,11.725
				c0.094,3.831,0.303,7.591,0.887,11.199c1.014,7.246,3.119,13.902,5.645,19.78c2.547,5.882,5.617,10.952,8.676,15.193
				c0.74,1.079,1.551,2.056,2.283,3.036c0.727,0.985,1.49,1.887,2.229,2.748c0.74,0.859,1.42,1.713,2.125,2.478
				c0.709,0.763,1.387,1.49,2.027,2.181c1.258,1.408,2.518,2.532,3.547,3.578c1.029,1.045,1.971,1.864,2.723,2.544
				c1.504,1.356,2.307,2.08,2.307,2.08l-0.641,0.768c0,0-0.834-0.7-2.398-2.014c-0.781-0.658-1.76-1.452-2.838-2.472
				c-1.076-1.018-2.389-2.112-3.711-3.492c-0.674-0.677-1.385-1.39-2.131-2.137c-0.744-0.751-1.463-1.592-2.246-2.438
				c-0.781-0.85-1.588-1.738-2.363-2.715c-0.779-0.972-1.641-1.938-2.436-3.013c-3.271-4.218-6.603-9.303-9.443-15.276
				c-2.818-5.969-5.246-12.802-6.566-20.297c-0.736-3.735-1.094-7.634-1.33-11.619c-0.203-3.99-0.096-8.072,0.176-12.209
				c0.309-4.135,0.879-8.31,1.611-12.506c0.766-4.19,1.748-8.384,2.867-12.573c1.154-4.18,2.471-8.344,3.902-12.483
				c1.467-4.123,3.033-8.229,4.715-12.281c6.74-16.212,14.975-31.674,22.934-45.929c7.984-14.249,15.693-27.331,21.943-38.652
				c6.283-11.307,11.055-20.866,13.961-27.65c0.756-1.688,1.346-3.216,1.898-4.53c0.5-1.304,0.926-2.413,1.27-3.313
				c0.686-1.915,1.049-2.937,1.049-2.937L190.855,242.558z"/>
			<path style="fill:#43454A;" d="M357.105,359.57c-17.826-73.893-30.358-118.124-30.358-118.124s11.775,8.981,33.518,8.231
				c0,0-23.207-11.25-28.039-31.25c0,0,9.068,7.5,22.492,8.25c0,0-25.633-15.63-28.742-73.065l-139.402-1.19
				c0,0,1.316,50.422-29.713,61.422c8.773,0,16.711-1.71,20.664-5.939c0,0-6.984,16.939-26.037,27.105
				c11.506,1,26.596-1.607,31.689-6.47c0,0-8.299,36.271-32.635,75.455C126.207,343.178,109.613,390.33,129.42,440
				c19.809,49.67,47.49,48.928,47.49,48.928H327C327,488.928,374.934,433.463,357.105,359.57z"/>
			<path style="opacity:0.7;fill:#212124;" d="M358.502,366.02c-0.412-2.134-0.873-4.283-1.397-6.449
				c-3.396-14.078-6.598-27.072-9.561-38.895H140.99c-7.686,14.658-13.9,30.223-17.355,46.456c3.072-0.65,5.543-1.321,6.646-1.953
				c0.348-0.198,0.689-0.443,1.031-0.707l5.992,6.332c0,0,11.326-1.375,20.232-3.031c-0.24,3.639-0.486,9.526,3.119,12.531
				c2.41,2.008,6.1,4.152,9.018,5.718c-0.002,0.002-2.018,1.867-1.684,5.366c0.332,3.5,5.832,66.667,5.832,66.667l-2.936,4.999
				l-2.021,1.815c0.031,0.051,0.68,0.286,1.535,0.32l-0.006,0.006c0,0-6.527,6.186-14.688,14.33
				c11.781,9.65,21.203,9.402,21.203,9.402H327c0,0,11.555-13.378,21.207-35.736l-3.152-4.638c0,0,2.08-37.871-0.086-64.061
				c-0.004-0.002-0.01-0.003-0.014-0.005C351.064,379.244,355.418,372.615,358.502,366.02z"/>
			<path style="opacity:0.7;fill:#212124;" d="M186.574,152.423c0,0,0.518,19.938-6.813,37.475
				c15.881,25.35,51.912,48.651,81.363,50.02c26.086,1.213,56.844-22.383,73.768-41.633c-4.293-10.846-7.873-25.403-8.916-44.671
				L186.574,152.423z"/>
			<g>
				<path style="fill:#F5D7CD;" d="M229.852,198.167c0,0,5.205,8.5,4.873,17.166c-0.334,8.667-6.418,14-13.75,16V286.5h72.221
					v-44.167c0,0-13.248-5.668-11.471-20.333c1.777-14.665,9.975-27.167,9.975-27.167h-61.848V198.167z"/>
				<path style="opacity:0.7;fill:#E79893;" d="M229.852,198.167c0,0,4.604,7.523,4.873,15.631
					c10.637,11.249,20.156,18.077,25.166,17.536c4.279-0.462,14.461-9.07,23.676-18.207c3.025-10.497,8.133-18.293,8.133-18.293
					h-61.848V198.167z"/>
			</g>
			<g>
				<path style="fill:#E79893;" d="M205.92,145.002c-2.506-2.337-4.699-2.673-5.549-1.317c-0.848,1.357-2.916,10.635-1.385,16.427
					c1.531,5.792,5.822,12.681,8.566,15.761c2.746,3.081,7.424,4.509,10.068,4.255L205.92,145.002z"/>
				<path style="fill:#E79893;" d="M313.523,142.938c2.412-2.432,4.594-2.852,5.492-1.528c0.898,1.323,3.322,10.516,2.016,16.362
					c-1.311,5.846-5.332,12.894-7.957,16.079c-2.625,3.183-7.244,4.79-9.898,4.639L313.523,142.938z"/>
				<path style="fill:#F5D7CD;" d="M261.496,53.253c15.574,1.075,38.236,8.134,50.17,42.735c11.934,34.6-0.56,78.228-9.471,90.588
					c-8.906,12.361-23.355,29.18-41.051,31.518c-17.777-1.658-32.859-17.91-42.234-29.921
					c-9.375-12.011-23.533-55.126-12.934-90.159c10.596-35.033,32.971-42.956,48.492-44.627L261.496,53.253z"/>
				<g>
					<path style="fill:#FFFFFF;" d="M230.84,144.145c-5.617-0.8-10.281,2.469-13.213,7.999c1.291,3.403,2.154,3.884,2.154,3.884
						s3.826,6.965,11.762,6.799c7.936-0.168,11.713-5.221,12.074-6.604C244.209,153.957,239.813,145.423,230.84,144.145z"/>
					<path style="fill:#43454A;" d="M238.898,157.052c-1.936,4.581-7.219,6.725-11.799,4.789c-4.582-1.937-6.725-7.218-4.789-11.799
						c1.938-4.581,7.219-6.725,11.799-4.789C238.689,147.189,240.834,152.471,238.898,157.052z"/>
					<path style="opacity:0.4;fill:#43454A;" d="M232.285,152.95c2.691,0.623,5.07,1.728,6.961,3.109
						c1.264-4.327-0.885-9.009-5.137-10.806c-4.58-1.936-9.861,0.208-11.799,4.789c-0.488,1.159-0.717,2.361-0.711,3.544
						C224.471,152.346,228.303,152.026,232.285,152.95z"/>
					<path style="fill:#212124;" d="M234.299,155.109c-0.861,2.041-3.215,2.995-5.256,2.133c-2.039-0.862-2.996-3.216-2.135-5.257
						c0.863-2.041,3.219-2.996,5.258-2.134C234.207,150.714,235.164,153.068,234.299,155.109z"/>
					<path style="fill:#212124;" d="M244.742,155.829c-0.994-1.975-4.92-8.616-14.176-10.061
						c-8.238-1.287-12.318,6.447-12.318,6.447l1.533,3.813c0,0-3.076-1.484-6.043-4.749c2.016-0.657,3.74-2.872,5.361-4.457
						c2.025-1.98,6.252-5.063,13.316-3.381C238.607,144.914,244.092,149.472,244.742,155.829z"/>
					<path style="fill:#FFFFFF;" d="M237.422,152.163c-0.557,1.319-2.068,1.938-3.375,1.386c-1.307-0.552-1.918-2.069-1.359-3.387
						c0.557-1.317,2.066-1.938,3.377-1.386C237.369,149.329,237.979,150.845,237.422,152.163z"/>
					<path style="fill:#E79893;" d="M224.438,160.815c0,0,5.922,3.294,12.883,0.879C237.32,161.695,230.871,165.927,224.438,160.815
						z"/>
					<path style="fill:#E79893;" d="M224.084,142.114c0,0,0.236-0.101,0.656-0.253c0.211-0.07,0.457-0.183,0.77-0.236
						c0.305-0.068,0.654-0.148,1.045-0.214c0.391-0.079,0.801-0.083,1.25-0.116c0.443-0.029,0.912-0.068,1.398-0.016
						c0.482,0.032,0.984,0.051,1.494,0.098c0.502,0.093,1.012,0.189,1.521,0.284c0.514,0.086,1.008,0.238,1.49,0.411
						c0.488,0.155,0.957,0.337,1.414,0.497c0.441,0.201,0.854,0.436,1.246,0.642c0.393,0.211,0.764,0.405,1.088,0.612
						c0.623,0.468,1.111,0.893,1.461,1.168c0.342,0.286,0.527,0.459,0.527,0.459s-0.238-0.102-0.643-0.297
						c-0.395-0.204-0.969-0.465-1.627-0.822c-0.693-0.272-1.502-0.59-2.371-0.93c-0.445-0.129-0.912-0.246-1.375-0.394l-0.701-0.215
						c-0.24-0.059-0.488-0.094-0.727-0.143c-0.484-0.103-0.967-0.206-1.443-0.306c-0.486-0.048-0.959-0.122-1.422-0.178
						c-0.461-0.073-0.906-0.098-1.334-0.117c-0.426-0.011-0.836-0.075-1.203-0.061c-0.365,0.013-0.707,0.007-1.016,0.004
						c-0.307-0.018-0.578,0.039-0.797,0.059C224.34,142.1,224.084,142.114,224.084,142.114z"/>
					<path style="fill:#212124;" d="M214.328,147.045c0,0,0.045,1.734,2.348,2.536l2.402-2.357
						C219.078,147.224,217.248,147.903,214.328,147.045z"/>
					<path style="fill:#212124;" d="M217.42,144.998c0,0-0.121,1.73,2.092,2.75l2.619-2.114
						C222.131,145.633,220.244,146.132,217.42,144.998z"/>
					<path style="fill:#212124;" d="M244.227,133.569c0,0-16.131-7.687-31.867-2.722c4.951-3.167,15.922-4.887,25.225-1.687
						C242.57,130.876,244.227,133.569,244.227,133.569z"/>
				</g>
				<g>
					<path style="fill:#FFFFFF;" d="M288.588,143.038c5.582-1.015,10.367,2.073,13.51,7.486c-1.158,3.45-2.006,3.962-2.006,3.962
						s-3.553,7.108-11.488,7.245c-7.938,0.138-11.906-4.767-12.322-6.136C275.603,153.355,279.67,144.659,288.588,143.038z"/>
					<path style="fill:#43454A;" d="M281.029,156.244c2.111,4.503,7.471,6.442,11.975,4.333c4.502-2.11,6.441-7.47,4.332-11.974
						c-2.111-4.503-7.471-6.443-11.973-4.333C280.859,146.38,278.922,151.74,281.029,156.244z"/>
					<path style="opacity:0.4;fill:#43454A;" d="M287.832,151.582c3.885,0.066,7.412,1.134,10.121,2.843
						c0.432-1.89,0.27-3.931-0.617-5.823c-2.111-4.503-7.471-6.443-11.973-4.333c-3.41,1.597-5.344,5.056-5.17,8.595
						C282.461,152.008,285.063,151.537,287.832,151.582z"/>
					<path style="fill:#212124;" d="M285.551,154.126c0.939,2.005,3.33,2.87,5.334,1.93c2.008-0.94,2.871-3.328,1.93-5.335
						c-0.939-2.006-3.328-2.87-5.332-1.93C285.475,149.73,284.609,152.118,285.551,154.126z"/>
					<path style="fill:#212124;" d="M275.145,155.245c0.918-2.011,4.586-8.797,13.779-10.597c8.18-1.601,12.555,5.97,12.555,5.97
						l-1.387,3.869c0,0,3.02-1.6,5.857-4.977c-2.039-0.581-3.846-2.727-5.527-4.248c-2.098-1.902-6.443-4.819-13.438-2.869
						C280.855,144.104,275.553,148.868,275.145,155.245z"/>
					<path style="fill:#FFFFFF;" d="M290.131,150.217c0.607,1.295,2.143,1.856,3.426,1.254c1.285-0.601,1.836-2.14,1.23-3.436
						c-0.607-1.295-2.143-1.858-3.43-1.255C290.072,147.381,289.525,148.92,290.131,150.217z"/>
					<path style="fill:#E79893;" d="M295.627,159.448c0,0-5.793,3.521-12.84,1.376C282.787,160.824,289.389,164.804,295.627,159.448
						z"/>
					<path style="fill:#E79893;" d="M295.262,140.749c0,0-0.24-0.094-0.666-0.229c-0.213-0.062-0.465-0.165-0.779-0.206
						c-0.307-0.056-0.66-0.122-1.051-0.175c-0.393-0.062-0.805-0.051-1.254-0.066c-0.443-0.013-0.914-0.032-1.396,0.038
						c-0.482,0.052-0.984,0.088-1.49,0.155c-0.498,0.112-1.004,0.228-1.51,0.343c-0.508,0.105-0.998,0.275-1.475,0.467
						c-0.482,0.173-0.943,0.373-1.395,0.55c-0.434,0.219-0.834,0.47-1.219,0.691c-0.385,0.225-0.748,0.434-1.066,0.652
						c-0.604,0.492-1.074,0.934-1.412,1.225c-0.332,0.3-0.51,0.479-0.51,0.479s0.236-0.111,0.627-0.322
						c0.389-0.219,0.955-0.502,1.596-0.884c0.684-0.298,1.482-0.646,2.336-1.021c0.441-0.146,0.9-0.28,1.359-0.445l0.691-0.242
						c0.236-0.07,0.482-0.112,0.721-0.171c0.479-0.122,0.961-0.243,1.432-0.362c0.482-0.067,0.953-0.157,1.41-0.231
						c0.461-0.092,0.904-0.134,1.332-0.169c0.424-0.026,0.832-0.105,1.197-0.106c0.367-0.001,0.709-0.02,1.018-0.033
						c0.305-0.031,0.578,0.016,0.801,0.028C295.002,140.743,295.262,140.749,295.262,140.749z"/>
					<path style="fill:#212124;" d="M305.197,145.302c0,0,0.023,1.734-2.246,2.624l-2.492-2.263
						C300.459,145.663,302.314,146.27,305.197,145.302z"/>
					<path style="fill:#212124;" d="M302.031,143.374c0,0,0.188,1.724-1.988,2.828l-2.697-2.012
						C297.346,144.19,299.252,144.616,302.031,143.374z"/>
					<path style="fill:#212124;" d="M274.805,132.982c0,0,15.824-8.299,31.74-3.94c-5.07-2.976-16.096-4.274-25.27-0.719
						C276.357,130.227,274.805,132.982,274.805,132.982z"/>
				</g>
				<path style="fill:#E79893;" d="M258.023,181.106c0,0-0.891,1.841-0.648,2.401c0.244,0.56,2.99,2.017,3.07,1.823
					c0.084-0.194-1.705-3.809-1.973-4.15C258.205,180.839,258.103,180.936,258.023,181.106z"/>
				<path style="fill:#E79893;" d="M262.141,184.514c0.133-0.4,0.228-0.977,0.752-0.803c0.52,0.175,1.15,0.305,1.084,0.459
					C263.912,184.326,262.025,184.856,262.141,184.514z"/>
				<g>
					<path style="fill:#E79893;" d="M288.598,168.665c-0.227-0.175-0.549-0.135-0.725,0.088l-1.51,1.93
						c-0.068,0.091-0.129,0.198-0.164,0.315c-0.156,0.513,0.133,1.056,0.648,1.212c0.512,0.156,1.057-0.133,1.211-0.647l0.711-2.344
						C288.83,169.023,288.77,168.8,288.598,168.665z"/>
					<path style="fill:#E79893;" d="M292.82,167.8c-0.223-0.176-0.545-0.136-0.723,0.087l-1.508,1.929
						c-0.072,0.092-0.129,0.199-0.166,0.316c-0.154,0.514,0.133,1.056,0.646,1.212c0.514,0.156,1.057-0.133,1.213-0.646l0.713-2.345
						C293.055,168.156,292.992,167.934,292.82,167.8z"/>
					<path style="fill:#E79893;" d="M297.221,167.487c0.061-0.197-0.004-0.421-0.176-0.555c-0.223-0.175-0.547-0.136-0.721,0.088
						l-1.51,1.93c-0.072,0.091-0.129,0.199-0.164,0.315c-0.158,0.514,0.133,1.056,0.645,1.212c0.518,0.157,1.059-0.133,1.213-0.647
						L297.221,167.487z"/>
				</g>
				<g>
					<path style="fill:#E79893;" d="M229.656,171.556c-0.225-0.175-0.547-0.136-0.723,0.087l-1.51,1.93
						c-0.072,0.091-0.129,0.198-0.164,0.316c-0.156,0.512,0.133,1.056,0.645,1.212c0.516,0.155,1.059-0.134,1.213-0.647l0.713-2.344
						C229.889,171.913,229.828,171.69,229.656,171.556z"/>
					<path style="fill:#E79893;" d="M233.881,170.689c-0.225-0.175-0.547-0.136-0.723,0.088l-1.51,1.93
						c-0.07,0.092-0.129,0.199-0.164,0.316c-0.156,0.513,0.133,1.056,0.645,1.212c0.516,0.156,1.059-0.133,1.213-0.647l0.713-2.344
						C234.113,171.046,234.051,170.824,233.881,170.689z"/>
					<path style="fill:#E79893;" d="M238.281,170.378c0.057-0.198-0.004-0.421-0.176-0.555c-0.225-0.175-0.547-0.136-0.721,0.087
						l-1.512,1.929c-0.07,0.092-0.129,0.199-0.164,0.317c-0.156,0.513,0.133,1.056,0.646,1.212c0.512,0.157,1.055-0.134,1.211-0.647
						L238.281,170.378z"/>
				</g>
				<path style="fill:#8F2831;" d="M259.389,201.375c11.871,0,18.496-7.813,18.496-8.5s-11.813-2-18.498-2
					c-6.684,0-18.496,1.313-18.496,2S247.516,201.375,259.389,201.375z"/>
				<path style="fill:#CC3D4B;" d="M272.639,197.656c-3.127-1.936-7.584-3.719-13.252-3.719c-5.668,0-10.123,1.783-13.25,3.719
					c3.127,1.936,7.582,3.719,13.252,3.719C265.057,201.375,269.512,199.592,272.639,197.656z"/>
				<path style="fill:#FFFFFF;" d="M259.389,194.179c6.346,0,11.773-0.827,16.221-1.963c-3.764-0.644-11.352-1.341-16.223-1.341
					c-4.869,0-12.457,0.697-16.219,1.341C247.613,193.352,253.043,194.179,259.389,194.179z"/>
			</g>
			<g>
				<path style="fill:#43454A;" d="M325.848,115.026c0,0,0.096,0.194,0.273,0.561c0.188,0.368,0.461,0.912,0.83,1.597
					c0.734,1.371,1.826,3.317,3.262,5.579c2.855,4.517,7.104,10.357,12.469,15.08c1.35,1.161,2.744,2.276,4.209,3.236
					c0.367,0.239,0.732,0.479,1.096,0.716c0.377,0.215,0.75,0.429,1.123,0.641c0.738,0.446,1.514,0.786,2.268,1.144
					c0.75,0.37,1.537,0.602,2.283,0.904c0.766,0.236,1.525,0.444,2.268,0.635c0.752,0.123,1.484,0.29,2.201,0.367
					c0.719,0.043,1.416,0.127,2.086,0.132c0.67-0.023,1.315-0.043,1.926-0.064c0.607-0.086,1.184-0.166,1.725-0.243
					c1.082-0.16,1.994-0.48,2.764-0.651c1.479-0.554,2.324-0.87,2.324-0.87s-0.83,0.356-2.287,0.98
					c-0.764,0.208-1.664,0.574-2.752,0.787c-0.545,0.104-1.125,0.213-1.736,0.33c-0.623,0.049-1.275,0.102-1.957,0.156
					c-0.684,0.028-1.398-0.024-2.139-0.034c-0.74-0.044-1.494-0.179-2.277-0.27c-0.771-0.159-1.563-0.336-2.363-0.542
					c-0.781-0.271-1.607-0.477-2.398-0.819c-0.793-0.332-1.613-0.647-2.393-1.069c-0.395-0.201-0.791-0.404-1.191-0.607
					c-0.385-0.227-0.772-0.455-1.162-0.684c-1.559-0.918-3.047-1.997-4.49-3.126c-5.744-4.595-10.367-10.365-13.51-14.85
					c-1.58-2.246-2.793-4.19-3.619-5.569c-0.414-0.689-0.729-1.241-0.939-1.621c-0.213-0.385-0.328-0.59-0.328-0.59L325.848,115.026
					z"/>
				<path style="fill:#43454A;" d="M209.377,137.595c0,0-0.037,0.214-0.109,0.615c-0.066,0.407-0.166,1.007-0.271,1.778
					c-0.215,1.54-0.482,3.756-0.656,6.429c-0.359,5.331-0.375,12.553,1.172,19.532c0.404,1.733,0.873,3.457,1.49,5.096
					c0.154,0.41,0.309,0.818,0.461,1.225c0.178,0.396,0.354,0.79,0.529,1.181c0.332,0.795,0.758,1.527,1.156,2.261
					c0.387,0.741,0.887,1.394,1.311,2.077c0.48,0.642,0.971,1.258,1.457,1.85c0.535,0.543,1.027,1.11,1.561,1.595
					c0.555,0.458,1.068,0.938,1.605,1.337c0.555,0.378,1.088,0.741,1.594,1.085c0.541,0.289,1.053,0.563,1.535,0.821
					c0.971,0.51,1.893,0.788,2.615,1.104c1.521,0.426,2.391,0.67,2.391,0.67s-0.881-0.203-2.426-0.558
					c-0.738-0.282-1.682-0.519-2.686-0.987c-0.502-0.238-1.035-0.492-1.598-0.759c-0.531-0.327-1.09-0.67-1.672-1.028
					c-0.568-0.381-1.115-0.844-1.707-1.29c-0.57-0.471-1.1-1.025-1.68-1.561c-0.527-0.583-1.063-1.193-1.588-1.833
					c-0.471-0.679-1.018-1.334-1.453-2.076c-0.445-0.736-0.92-1.474-1.301-2.274c-0.199-0.395-0.4-0.793-0.604-1.193
					c-0.178-0.411-0.355-0.824-0.535-1.238c-0.717-1.661-1.281-3.409-1.781-5.173c-1.928-7.099-2.258-14.485-2.148-19.96
					c0.049-2.745,0.215-5.03,0.361-6.631c0.072-0.801,0.145-1.431,0.197-1.863c0.055-0.436,0.084-0.669,0.084-0.669L209.377,137.595
					z"/>
				<path style="fill:#43454A;" d="M192.281,90.094c0,0-0.066,0.206-0.191,0.594c-0.133,0.391-0.328,0.967-0.598,1.697
					c-0.535,1.46-1.342,3.542-2.445,5.983c-2.191,4.873-5.574,11.253-10.223,16.684c-1.172,1.339-2.394,2.639-3.711,3.796
					c-0.33,0.288-0.658,0.577-0.984,0.863c-0.344,0.266-0.682,0.531-1.021,0.793c-0.668,0.545-1.387,0.991-2.084,1.452
					c-0.689,0.471-1.438,0.813-2.135,1.216c-0.725,0.341-1.447,0.654-2.154,0.947c-0.729,0.227-1.43,0.496-2.129,0.673
					c-0.705,0.143-1.383,0.325-2.045,0.424c-0.668,0.072-1.307,0.142-1.916,0.208c-0.613,0.001-1.195,0.002-1.742,0.002
					c-1.094-0.006-2.041-0.195-2.826-0.256c-1.543-0.34-2.426-0.534-2.426-0.534s0.873,0.235,2.402,0.648
					c0.785,0.099,1.731,0.334,2.836,0.392c0.555,0.026,1.145,0.053,1.766,0.083c0.623-0.039,1.277-0.079,1.961-0.121
					c0.68-0.069,1.381-0.221,2.111-0.335c0.727-0.148,1.453-0.387,2.217-0.588c0.74-0.266,1.5-0.553,2.264-0.87
					c0.734-0.378,1.525-0.699,2.26-1.149c0.738-0.44,1.506-0.868,2.217-1.395c0.363-0.255,0.729-0.512,1.094-0.769
					c0.35-0.279,0.701-0.559,1.055-0.841c1.414-1.128,2.736-2.406,4.008-3.727c5.039-5.357,8.805-11.721,11.285-16.603
					c1.248-2.445,2.176-4.541,2.799-6.022c0.314-0.741,0.547-1.33,0.703-1.737c0.156-0.411,0.24-0.63,0.24-0.63L192.281,90.094z"/>
				<path style="fill:#43454A;" d="M252.168,94.998c0,0-0.035,0.215-0.1,0.617c-0.061,0.408-0.148,1.01-0.242,1.783
					c-0.189,1.543-0.42,3.764-0.551,6.439c-0.27,5.336-0.166,12.558,1.494,19.509c0.434,1.727,0.93,3.442,1.574,5.071
					c0.162,0.407,0.322,0.813,0.482,1.217c0.184,0.393,0.367,0.784,0.549,1.172c0.346,0.79,0.783,1.514,1.193,2.242
					c0.398,0.734,0.908,1.379,1.344,2.055c0.49,0.634,0.992,1.242,1.486,1.825c0.547,0.535,1.047,1.093,1.588,1.569
					c0.563,0.449,1.084,0.92,1.629,1.31c0.561,0.369,1.098,0.723,1.609,1.059c0.547,0.28,1.065,0.545,1.551,0.795
					c0.977,0.494,1.904,0.756,2.633,1.061c1.527,0.401,2.4,0.63,2.4,0.63s-0.885-0.188-2.434-0.518
					c-0.744-0.27-1.691-0.491-2.703-0.943c-0.506-0.23-1.043-0.475-1.609-0.732c-0.537-0.317-1.102-0.651-1.69-1
					c-0.574-0.372-1.129-0.826-1.727-1.261c-0.578-0.462-1.117-1.007-1.705-1.533c-0.539-0.574-1.082-1.175-1.619-1.806
					c-0.48-0.671-1.039-1.317-1.486-2.052c-0.457-0.729-0.945-1.459-1.338-2.253c-0.207-0.392-0.416-0.786-0.623-1.183
					c-0.186-0.408-0.371-0.818-0.557-1.23c-0.744-1.648-1.338-3.388-1.867-5.143c-2.045-7.066-2.496-14.446-2.479-19.922
					c0.004-2.746,0.133-5.033,0.254-6.637c0.059-0.802,0.121-1.433,0.164-1.866c0.049-0.438,0.076-0.67,0.076-0.67L252.168,94.998z"
					/>
				<path style="fill:#43454A;" d="M220.119,119.832c0.006-0.005-0.064,0.095-0.137,0.231c-0.059,0.122-0.145,0.3-0.254,0.526
					c-0.115,0.3-0.256,0.665-0.416,1.083c-0.15,0.43-0.289,0.943-0.459,1.49c-0.357,1.089-0.609,2.443-0.969,3.858
					c-0.271,1.443-0.572,2.986-0.848,4.536c-0.23,1.561-0.461,3.122-0.676,4.585c-0.223,1.465-0.338,2.844-0.484,4.021
					c-0.268,2.36-0.447,3.933-0.447,3.933s0.008-1.584,0.021-3.96c0.018-1.189-0.016-2.579,0.049-4.065
					c0.059-1.489,0.119-3.077,0.18-4.665c0.109-1.588,0.244-3.18,0.361-4.675c0.211-1.494,0.318-2.891,0.57-4.097
					c0.117-0.604,0.205-1.155,0.32-1.65c0.133-0.5,0.25-0.935,0.344-1.294c0.127-0.393,0.273-0.74,0.359-0.958
					c0.082-0.177,0.125-0.272,0.125-0.272L220.119,119.832z"/>
				<path style="fill:#43454A;" d="M252.799,90.48c0,0-0.004,0.08-0.01,0.236c-0.004,0.151-0.008,0.376-0.014,0.669
					c-0.012,0.599,0,1.491,0.049,2.625c0.115,2.268,0.383,5.532,1.197,9.364c0.385,1.92,0.943,3.969,1.637,6.101
					c0.693,2.133,1.609,4.315,2.674,6.517c1.139,2.157,2.383,4.371,3.951,6.405c0.361,0.532,0.779,1.023,1.195,1.517
					c0.422,0.491,0.82,1.005,1.26,1.482c0.92,0.915,1.777,1.911,2.791,2.738l1.475,1.29l1.57,1.17
					c1.016,0.823,2.17,1.433,3.25,2.141c1.107,0.663,2.275,1.199,3.395,1.798c1.172,0.488,2.328,0.971,3.467,1.445
					c1.176,0.383,2.332,0.759,3.463,1.128c1.158,0.283,2.291,0.559,3.395,0.829c1.102,0.276,2.207,0.391,3.26,0.586
					c0.527,0.087,1.047,0.173,1.557,0.257c0.514,0.049,1.02,0.098,1.514,0.145c0.99,0.093,1.94,0.183,2.842,0.268
					c0.904,0.058,1.768,0.059,2.574,0.089c0.81,0.023,1.566,0.044,2.267,0.064c0.699,0.016,1.344-0.034,1.924-0.045
					c2.326-0.077,3.654-0.121,3.654-0.121l0.012,0.144c0,0-1.33,0.085-3.656,0.232c-0.582,0.028-1.227,0.097-1.93,0.103
					c-0.703,0.002-1.463,0.004-2.277,0.005c-0.813-0.005-1.678,0.02-2.59-0.011c-0.912-0.058-1.869-0.119-2.869-0.183
					c-0.502-0.033-1.012-0.066-1.533-0.1c-0.516-0.069-1.043-0.14-1.578-0.212c-1.07-0.164-2.191-0.247-3.316-0.492
					c-1.127-0.239-2.285-0.485-3.469-0.737c-1.162-0.34-2.352-0.688-3.561-1.042c-1.178-0.45-2.377-0.907-3.59-1.37
					c-1.164-0.577-2.381-1.093-3.541-1.74c-1.133-0.692-2.344-1.29-3.42-2.105l-1.66-1.163l-1.57-1.289
					c-1.076-0.829-1.996-1.83-2.982-2.756c-0.473-0.482-0.904-1.002-1.357-1.5c-0.449-0.5-0.898-1-1.291-1.541
					c-1.699-2.072-3.065-4.332-4.318-6.547c-1.18-2.256-2.201-4.502-2.99-6.698c-0.787-2.195-1.434-4.309-1.893-6.292
					c-0.969-3.957-1.352-7.342-1.545-9.716c-0.086-1.19-0.127-2.129-0.135-2.777c-0.004-0.331-0.004-0.585-0.006-0.755
					c0.002-0.166,0.002-0.252,0.002-0.252L252.799,90.48z"/>
				<path style="fill:#43454A;" d="M368.25,149.492c-8.834,3.659-18-0.659-23.334-9.826c13.166,1.666,17-6.097,17-6.097
					c-15.668,1.403-26.334-17.736-36.5-45.403C315.248,60.5,280.039,35,243.67,51.723c-16.279-0.973-42.611,8.776-52.777,36.443
					c-10.168,27.667-20.834,46.806-36.5,45.403c0,0,3.834,7.764,17,6.097c-5.334,9.167-14.502,13.484-23.334,9.826
					c4.834,11.008,11.666,16.674,19,16.174c0,0-3.166,5.988-6.334,7.744c4.828,0.862,11.104,2.032,17.484,1.757
					c1.525,16.577,11.018,22.003,15.307,23.332c-1.625-2.375-1.75-5.938-1.563-10.813c3.188,13.188,11.25,16.313,21.75,15.813
					c-6.313-0.813-7.438-9.563-7.438-9.563c2.875,4.188,7.125,4.625,9.938,3.719c5.188,2.531,14.063,0.094,16.277-4.531
					c-20.285,4.375-24.451-19.83-23.965-46.923c0,0,5.607-10.184,9.656-24.761c0.871,7.844,3.514,16.152,10.363,19.813
					c0,0,4.912,8.49,15.135,7.244c0,0-4.029-3.001-4.904-6.749c8.75,5.877,19.75,8.954,29.875,4.791
					c-12.75-3.122-22-25.539-16.5-47.539c3.234,15.477,20.672,38.3,49.828,40.302c2.701,4.388,4.783,6.9,4.783,6.9
					c0.016,0.886,0.025,1.768,0.031,2.647c-0.518,6.843-2.518,14.311-8.369,17.401c0,0,4.01,0.038,7.898-3.358
					c-1.588,19.426-7.568,33.675-23.525,30.233c2.215,4.625,11.09,7.063,16.277,4.531c2.813,0.906,7.063,0.469,9.938-3.719
					c0,0-1.125,8.75-7.438,9.563c10.5,0.5,18.563-2.625,21.75-15.813c0.188,4.875,0.063,8.438-1.562,10.813
					c4.293-1.331,13.805-6.767,15.312-23.391c6.732,0.46,13.43-0.79,18.518-1.699c-3.166-1.756-6.332-7.744-6.332-7.744
					C356.584,166.167,363.416,160.5,368.25,149.492z"/>
				<path style="opacity:0.8;fill:#212124;" d="M319.393,105.5c0,0,0.303,1.039,0.836,2.857c0.24,0.917,0.606,2.006,1.006,3.258
					c0.391,1.254,0.881,2.655,1.395,4.191c1.012,3.075,2.355,6.609,3.728,10.421c1.397,3.805,2.842,7.885,4.238,11.989
					c0.654,2.068,1.344,4.123,1.934,6.179c0.639,2.04,1.139,4.086,1.65,6.058c0.482,1.98,0.893,3.91,1.219,5.75
					c0.297,1.848,0.625,3.583,0.766,5.212c0.088,0.811,0.172,1.587,0.252,2.326c0.051,0.741,0.057,1.449,0.084,2.11
					c0.047,1.324,0.103,2.474,0.035,3.425c-0.092,1.894-0.143,2.976-0.143,2.976s-0.055-1.081-0.15-2.971
					c-0.004-0.944-0.15-2.084-0.299-3.389c-0.078-0.652-0.137-1.347-0.246-2.074c-0.117-0.727-0.24-1.49-0.369-2.287
					c-0.215-1.598-0.623-3.303-1.002-5.11c-0.172-0.907-0.447-1.82-0.682-2.761c-0.26-0.936-0.449-1.909-0.744-2.875
					c-0.543-1.944-1.123-3.945-1.758-5.97c-0.6-2.033-1.305-4.073-1.969-6.124c-1.383-4.095-2.766-8.19-4.061-12.029
					c-0.65-1.923-1.24-3.795-1.791-5.574c-0.537-1.784-1.068-3.461-1.498-5.031c-0.457-1.56-0.834-3.002-1.125-4.296
					c-0.305-1.288-0.586-2.404-0.754-3.335C319.594,106.563,319.393,105.5,319.393,105.5z"/>
				<path style="opacity:0.8;fill:#212124;" d="M191.225,115.026c0,0-0.326,0.897-0.898,2.467c-0.58,1.565-1.332,3.828-2.219,6.543
					c-0.445,1.357-0.908,2.832-1.385,4.396c-0.502,1.556-0.941,3.224-1.457,4.929c-0.49,1.713-0.943,3.499-1.434,5.302
					c-0.432,1.819-0.943,3.65-1.322,5.511c-0.408,1.854-0.855,3.7-1.172,5.542c-0.176,0.918-0.352,1.828-0.525,2.727
					c-0.176,0.899-0.291,1.796-0.438,2.674c-0.279,1.758-0.564,3.456-0.732,5.079c-0.178,1.622-0.43,3.15-0.51,4.573
					c-0.107,1.42-0.229,2.724-0.338,3.881c-0.045,1.159-0.082,2.17-0.115,3.003c-0.078,1.67-0.121,2.625-0.121,2.625
					s-0.063-0.953-0.17-2.622c-0.043-0.837-0.094-1.853-0.15-3.019c0.002-1.165,0.006-2.482,0.035-3.92
					c-0.014-1.441,0.139-2.991,0.256-4.635c0.068-0.821,0.107-1.668,0.207-2.528c0.107-0.858,0.219-1.735,0.332-2.626
					c0.207-1.787,0.498-3.622,0.846-5.477c0.305-1.865,0.736-3.733,1.135-5.608c0.4-1.876,0.932-3.718,1.385-5.549
					c0.502-1.818,1.039-3.596,1.57-5.31c1.098-3.419,2.217-6.579,3.297-9.239c0.508-1.342,1.057-2.541,1.51-3.614
					c0.482-1.062,0.887-1.993,1.248-2.748C190.766,115.866,191.225,115.026,191.225,115.026z"/>
				<path style="opacity:0.8;fill:#212124;" d="M292.459,116.188c0,0,1.621,13.971,6.512,22.825c0.986,0.119,1.984,0.22,2.998,0.29
					C301.969,139.302,295.213,126.375,292.459,116.188z"/>
				<path style="opacity:0.8;fill:#212124;" d="M224.084,90.094c0,0-0.17,0.493-0.412,1.364c-0.123,0.436-0.295,0.949-0.443,1.561
					c-0.16,0.604-0.342,1.286-0.541,2.03c-0.191,0.744-0.346,1.566-0.557,2.418c-0.201,0.855-0.422,1.754-0.58,2.701
					c-0.18,0.941-0.344,1.917-0.551,2.9c-0.23,0.979-0.293,2.004-0.449,3.012c-0.152,1.01-0.303,2.02-0.453,3.013
					c-0.09,1.002-0.178,1.987-0.264,2.941c-0.08,0.955-0.186,1.877-0.279,2.754c-0.061,0.438-0.086,0.865-0.09,1.279
					c-0.018,0.414-0.033,0.814-0.051,1.198c-0.121,3.073-0.336,5.152-0.336,5.152s-0.289-2.044-0.523-5.154
					c-0.039-0.777-0.18-1.622-0.119-2.513c0.02-0.891,0.035-1.833,0.08-2.807c0.049-0.973,0.055-1.984,0.143-3.004
					c0.135-1.015,0.271-2.047,0.41-3.078c0.176-1.025,0.26-2.066,0.51-3.062c0.217-1.002,0.467-1.98,0.689-2.929
					c0.197-0.956,0.512-1.849,0.787-2.699c0.277-0.85,0.531-1.655,0.816-2.381c0.301-0.72,0.576-1.379,0.82-1.964
					c0.23-0.587,0.51-1.074,0.707-1.481C223.803,90.53,224.084,90.094,224.084,90.094z"/>
				<path style="opacity:0.1;fill:#FFFFFF;" d="M294.508,57.559c0,0,0.397,0.206,1.055,0.608c0.332,0.2,0.742,0.419,1.188,0.716
					c0.451,0.283,0.961,0.604,1.516,0.953c0.551,0.353,1.113,0.782,1.738,1.191c0.619,0.419,1.275,0.854,1.91,1.359
					c0.648,0.488,1.305,1.007,1.996,1.505c0.707,0.479,1.311,1.097,1.979,1.642c0.664,0.55,1.328,1.1,1.982,1.641
					c0.611,0.585,1.217,1.16,1.799,1.717c0.58,0.561,1.162,1.085,1.711,1.587c0.283,0.242,0.535,0.499,0.764,0.762
					c0.236,0.255,0.467,0.501,0.688,0.737c1.764,1.893,3.057,3.088,3.057,3.088s-0.889-1.499-2.4-3.646
					c-0.393-0.523-0.744-1.157-1.275-1.688c-0.498-0.559-1.023-1.154-1.586-1.749c-0.565-0.593-1.119-1.238-1.74-1.836
					c-0.654-0.565-1.318-1.138-1.984-1.711c-0.693-0.543-1.322-1.158-2.055-1.635c-0.709-0.504-1.432-0.969-2.115-1.434
					c-0.672-0.486-1.396-0.856-2.068-1.224c-0.674-0.367-1.305-0.719-1.916-1.001c-0.621-0.268-1.189-0.513-1.693-0.73
					c-0.494-0.228-0.973-0.36-1.346-0.494C294.959,57.657,294.508,57.559,294.508,57.559z"/>
				<path style="opacity:0.1;fill:#FFFFFF;" d="M254.607,92.482c0,0,0.209,0.478,0.621,1.282c0.205,0.403,0.428,0.897,0.734,1.447
					c0.291,0.553,0.619,1.177,0.979,1.858c0.363,0.677,0.809,1.385,1.23,2.155c0.434,0.765,0.881,1.574,1.408,2.377
					c0.506,0.813,1.047,1.642,1.563,2.504c0.494,0.875,1.144,1.671,1.713,2.517c0.572,0.845,1.147,1.69,1.711,2.521
					c0.613,0.797,1.217,1.581,1.803,2.34c0.588,0.755,1.137,1.504,1.662,2.212c0.252,0.363,0.523,0.694,0.801,1.001
					c0.27,0.315,0.527,0.621,0.775,0.914c1.996,2.341,3.248,4.014,3.248,4.014s-1.598-1.306-3.881-3.431
					c-0.555-0.545-1.23-1.07-1.791-1.766c-0.59-0.668-1.219-1.37-1.846-2.116c-0.625-0.748-1.305-1.494-1.934-2.303
					c-0.59-0.837-1.19-1.688-1.787-2.539c-0.566-0.874-1.211-1.695-1.701-2.596c-0.521-0.882-1.002-1.771-1.482-2.619
					c-0.502-0.836-0.877-1.705-1.252-2.517c-0.373-0.813-0.732-1.576-1.017-2.303c-0.266-0.733-0.512-1.404-0.729-2
					c-0.229-0.587-0.355-1.134-0.484-1.568C254.695,92.993,254.607,92.482,254.607,92.482z"/>
				<path style="opacity:0.1;fill:#FFFFFF;" d="M257.865,90.973c0,0,0.205,0.412,0.605,1.096c0.201,0.342,0.418,0.767,0.713,1.231
					c0.283,0.469,0.602,0.998,0.949,1.574c0.352,0.572,0.777,1.162,1.186,1.811c0.416,0.644,0.85,1.326,1.352,1.989
					c0.484,0.677,1,1.362,1.496,2.083c0.477,0.736,1.09,1.373,1.631,2.07c0.545,0.695,1.092,1.39,1.629,2.074
					c0.58,0.644,1.15,1.276,1.703,1.889c0.555,0.609,1.076,1.218,1.574,1.793c0.24,0.297,0.494,0.563,0.754,0.804
					c0.254,0.25,0.498,0.493,0.73,0.726c1.877,1.859,3.063,3.216,3.063,3.216s-1.48-0.957-3.605-2.567
					c-0.517-0.417-1.142-0.797-1.672-1.355c-0.553-0.527-1.143-1.08-1.732-1.673c-0.588-0.597-1.225-1.182-1.818-1.834
					c-0.561-0.686-1.131-1.382-1.699-2.078c-0.539-0.723-1.148-1.385-1.623-2.146c-0.5-0.739-0.965-1.49-1.428-2.203
					c-0.482-0.699-0.852-1.449-1.219-2.146c-0.367-0.697-0.717-1.352-1-1.984c-0.268-0.641-0.514-1.227-0.73-1.749
					c-0.229-0.511-0.363-1.001-0.496-1.385C257.965,91.436,257.865,90.973,257.865,90.973z"/>
				<path style="opacity:0.1;fill:#FFFFFF;" d="M261.125,89.464c0,0,0.201,0.346,0.59,0.909c0.193,0.281,0.408,0.638,0.693,1.015
					c0.273,0.385,0.58,0.819,0.916,1.292c0.34,0.468,0.748,0.938,1.141,1.466c0.402,0.522,0.818,1.078,1.297,1.602
					c0.463,0.54,0.955,1.082,1.43,1.661c0.457,0.598,1.033,1.075,1.547,1.623c0.518,0.545,1.037,1.09,1.547,1.626
					c0.547,0.49,1.084,0.973,1.605,1.439c0.523,0.463,1.016,0.933,1.484,1.374c0.228,0.232,0.467,0.431,0.711,0.606
					c0.236,0.185,0.465,0.365,0.682,0.538c1.758,1.377,2.877,2.417,2.877,2.417s-1.363-0.607-3.33-1.703
					c-0.479-0.29-1.053-0.524-1.551-0.944c-0.516-0.386-1.066-0.79-1.619-1.231c-0.551-0.444-1.147-0.869-1.705-1.364
					c-0.531-0.533-1.07-1.075-1.609-1.617c-0.514-0.573-1.088-1.074-1.545-1.695c-0.48-0.595-0.93-1.209-1.375-1.787
					c-0.463-0.561-0.826-1.192-1.186-1.774c-0.357-0.582-0.701-1.128-0.982-1.665c-0.268-0.549-0.516-1.051-0.732-1.497
					c-0.227-0.435-0.369-0.868-0.506-1.202C261.234,89.878,261.125,89.464,261.125,89.464z"/>
				<path style="opacity:0.1;fill:#FFFFFF;" d="M264.383,87.954c0,0,0.199,0.28,0.576,0.723c0.187,0.222,0.396,0.509,0.672,0.799
					c0.264,0.301,0.561,0.639,0.887,1.009c0.328,0.364,0.715,0.713,1.096,1.121c0.385,0.401,0.785,0.829,1.24,1.214
					c0.441,0.403,0.908,0.802,1.361,1.239c0.441,0.458,0.979,0.777,1.465,1.175c0.492,0.396,0.982,0.791,1.467,1.18
					c0.514,0.336,1.016,0.668,1.506,0.988c0.49,0.316,0.953,0.647,1.395,0.956c0.217,0.167,0.439,0.299,0.666,0.409
					c0.221,0.12,0.434,0.237,0.637,0.351c1.637,0.894,2.69,1.619,2.69,1.619s-1.244-0.259-3.053-0.838
					c-0.443-0.164-0.967-0.252-1.432-0.534c-0.48-0.245-0.992-0.499-1.508-0.788c-0.514-0.293-1.066-0.556-1.59-0.895
					c-0.502-0.381-1.012-0.769-1.522-1.156c-0.488-0.422-1.025-0.764-1.467-1.244c-0.459-0.451-0.891-0.928-1.318-1.372
					c-0.443-0.423-0.803-0.935-1.154-1.402c-0.35-0.468-0.686-0.904-0.965-1.346c-0.27-0.457-0.516-0.874-0.734-1.246
					c-0.225-0.358-0.377-0.735-0.516-1.02C264.504,88.321,264.383,87.954,264.383,87.954z"/>
				<path style="opacity:0.8;fill:#212124;" d="M213.738,116.188c0,0-0.129,0.444-0.324,1.222c-0.221,0.765-0.453,1.888-0.803,3.203
					c-0.146,0.665-0.305,1.387-0.473,2.15c-0.188,0.756-0.35,1.562-0.508,2.397c-0.172,0.833-0.326,1.697-0.521,2.566
					c-0.18,0.873-0.301,1.772-0.455,2.664c-0.162,0.892-0.322,1.783-0.482,2.661c-0.104,0.886-0.248,1.752-0.365,2.595
					c-0.117,0.842-0.256,1.655-0.385,2.426c-0.125,0.772-0.18,1.508-0.275,2.185c-0.33,2.711-0.686,4.53-0.686,4.53
					s-0.15-1.829-0.174-4.589c0.002-0.689-0.043-1.441,0.02-2.227c0.055-0.788,0.105-1.62,0.188-2.478
					c0.08-0.858,0.141-1.749,0.244-2.649c0.145-0.895,0.293-1.803,0.439-2.712c0.174-0.904,0.316-1.814,0.514-2.699
					c0.205-0.884,0.447-1.744,0.658-2.581c0.197-0.84,0.451-1.636,0.713-2.385c0.246-0.752,0.494-1.459,0.73-2.107
					c0.523-1.283,0.963-2.342,1.346-3.059C213.496,116.578,213.738,116.188,213.738,116.188z"/>
			</g>
			<g>
				<path style="fill:#F5D7CD;" d="M380.266,351.25l18.293,6.583c0,0,19.582,11.667,28.707,14.667s24,1.75,28.5,1.375
					s7.25-3,7.75-5.375s0.75-27-8.125-37.5s-47.125-26.875-47.125-26.875s-15.25,2.375-23.375,13.625S380.266,351.25,380.266,351.25
					z"/>
				<path style="opacity:0.7;fill:#E79893;" d="M431.244,370.103l28.691-30.73c-1.152-3.202-2.637-6.114-4.545-8.372
					c-8.875-10.5-47.125-26.875-47.125-26.875s-15.25,2.375-23.375,13.625c-0.65,0.899-1.217,1.876-1.727,2.899
					C387.852,330.015,405.252,361.496,431.244,370.103z"/>
				<path style="fill:#E79893;" d="M108.059,373.834c0,0-27,22.5-34.5,27.5s-27.168,5.999-30,4.333
					c-2.834-1.666-4.666-32.061,1.334-39.863s28.332-24.803,28.332-24.803L108.059,373.834z"/>
				<path style="fill:#FFFFFF;" d="M314.164,248.664c0,0,11.727,7.49,13.727,8.163c2,0.673,48,30.173,49.75,30.923
					s13.5,3.391,14.5,4.57c1,1.18,3.5,6.43,3.5,6.43l-16,25l-5.75,27.5c0,0-15,6.25-22.75,7.5s-16.5-5.5-16.5-5.5H299.83v-88.418
					L314.164,248.664z"/>
				<path style="opacity:0.15;fill:#43454A;" d="M351.141,358.75c7.75-1.25,22.75-7.5,22.75-7.5l2.402-11.49
					c-30.574-20.295-58.652-46.01-58.652-46.01l-17.811,0.512v58.988h34.811C334.641,353.25,343.391,360,351.141,358.75z"/>
				<path style="fill:#FFFFFF;" d="M225.225,229.5c0,0,12.496,25.998,34.916,35.499c13.084-7.999,29.418-27.332,29.418-27.332
					s9.273,5.33,24.605,10.997c1,19.583,3.477,45.086,3.477,45.086c12.5,20.5,26.75,40.25,27,43.5s-3,35.75-25.75,50h-128.5
					c0,0-9-4.25-13.5-8s-3-12-3-14.75s-5.75-24.625-5.75-24.625s-12.25,11.75-12.75,12.625s-4.5,9.125-8.875,11.625
					s-30.125,5.625-30.125,5.625L87.766,339.5c0,0-5.125-29.77,4.25-38.947c9.375-9.178,39-31.803,45.25-35.678
					c13.75-12.045,32.25-24.457,34.375-24.957S225.225,229.5,225.225,229.5z"/>
				<path style="opacity:0.3;fill:#43454A;" d="M267.197,387.25h2c-0.037-74.098-7.986-121.92-8.07-122.418l-1.973,0.334
					C259.238,265.662,267.162,313.322,267.197,387.25z"/>
				<g>
					<path style="fill:#CC3D4B;" d="M243.352,256.827c0,0,1.102,1.15,3.031,3.159c1.934,1.997,4.678,4.897,7.967,8.387
						c3.291,3.49,7.131,7.562,11.242,11.925c4.059,4.397,8.389,9.088,12.719,13.778c2.166,2.345,4.33,4.692,6.463,7.004
						c2.15,2.296,4.189,4.617,6.188,6.846c3.99,4.466,7.715,8.633,10.906,12.207c6.393,7.151,10.65,11.918,10.65,11.918
						l-19.063,12.748c0,0-3.662-5.076-9.156-12.689c-2.75-3.811-5.957-8.257-9.395-13.021c-1.723-2.381-3.479-4.857-5.346-7.321
						c-1.85-2.478-3.73-4.994-5.609-7.511c-3.762-5.036-7.521-10.071-11.049-14.793c-3.572-4.682-6.912-9.051-9.771-12.797
						c-2.859-3.745-5.252-6.867-6.963-9.048c-1.699-2.182-2.67-3.429-2.67-3.429L243.352,256.827z"/>
					<path style="fill:#8F2831;" d="M252.9,289.464c3.527,4.722,7.287,9.757,11.049,14.793c1.586,2.123,3.166,4.241,4.734,6.339
						c0.637-1.224,1.275-2.451,1.914-3.68c2.391-4.599,4.775-9.184,7.051-13.558c-4.109-4.45-8.205-8.888-12.057-13.06
						c-2.043-2.168-4.018-4.264-5.893-6.252c-0.648,0.924-1.307,1.86-1.977,2.815c-2.195,3.211-4.496,6.575-6.824,9.978
						C251.557,287.703,252.223,288.575,252.9,289.464z"/>
					<path style="fill:#CC3D4B;" d="M287.887,261.584c0,0-0.709,1.289-1.949,3.545c-1.256,2.256-2.992,5.482-5.066,9.353
						c-2.074,3.871-4.494,8.386-7.084,13.224c-2.537,4.875-5.242,10.073-7.945,15.274c-1.352,2.597-2.703,5.196-4.033,7.753
						c-1.352,2.546-2.586,5.099-3.811,7.554c-2.439,4.913-4.715,9.497-6.664,13.426c-3.898,7.853-6.496,13.087-6.496,13.087
						L223.25,333.08c0,0,3.254-4.958,8.139-12.395c2.441-3.716,5.287-8.05,8.336-12.692c1.529-2.319,3.082-4.732,4.746-7.124
						c1.646-2.406,3.316-4.852,4.988-7.294c3.342-4.885,6.682-9.769,9.814-14.349c3.193-4.548,6.172-8.791,8.729-12.429
						c2.555-3.639,4.685-6.662,6.199-8.745c1.506-2.098,2.365-3.296,2.365-3.296L287.887,261.584z"/>
					<path style="fill:#FFFFFF;" d="M268.129,289.32c0.195,2.614-1.889,4.733-4.656,4.733c-2.766,0-5.168-2.119-5.363-4.733
						c-0.197-2.614,1.887-4.734,4.654-4.734C265.529,284.586,267.932,286.706,268.129,289.32z"/>
				</g>
				<path style="fill:#43454A;" d="M302.9,280.899c0,0-0.17-0.389-0.547-0.848c-0.375-0.459-0.943-0.988-1.713-1.277
					c0.93-0.46,1.406-1.163,1.406-1.163s-0.44-0.73-1.342-1.241c1.564-0.487,2.375-1.994,2.375-1.994s-0.789-1.508-2.35-2.019
					c0.91-0.499,1.359-1.219,1.359-1.219s-0.467-0.71-1.389-1.187c1.547-0.547,2.299-2.074,2.299-2.074s-0.836-1.477-2.412-1.938
					c0.895-0.527,1.32-1.26,1.32-1.26s-0.488-0.694-1.426-1.143c1.531-0.594,2.234-2.138,2.234-2.138
					c0.002,0-0.873-1.452-2.459-1.869c0.879-0.553,1.285-1.296,1.285-1.296s-0.508-0.68-1.455-1.104
					c1.512-0.634,2.174-2.194,2.174-2.194s-0.904-1.429-2.502-1.805c0.865-0.575,1.252-1.329,1.252-1.329s-0.525-0.666-1.484-1.065
					c1.494-0.673,2.117-2.249,2.117-2.249s-0.943-1.407-2.549-1.741c0.85-0.597,1.215-1.362,1.215-1.362s-0.541-0.653-1.512-1.025
					c1.478-0.714,2.057-2.309,2.057-2.309l-4.68-0.739c0,0-11.41-14.375-11.91-14.813s-1.625-1.406-2.701-2.184
					c-0.08,3.434,1.131,6.9,1.363,7.444c-2.287,7.489-19.162,28.634-23.975,32.489l-0.25,0.875l-0.58,1.103
					c0,0,0.369,0.235,0.932,0.401c0.563,0.172,1.324,0.286,2.121,0.09c-0.512,0.909-0.508,1.757-0.508,1.758
					c0,0,0.773,0.352,1.81,0.264c-1.021,1.287-0.83,2.964-0.83,2.964s1.477,0.821,3.057,0.375c-0.48,0.923-0.455,1.772-0.455,1.772
					s0.781,0.33,1.818,0.209c-0.977,1.314-0.744,2.99-0.744,2.99s1.51,0.772,3.07,0.281c-0.453,0.938-0.402,1.788-0.402,1.788
					c0-0.001,0.793,0.305,1.826,0.149c-0.934,1.344-0.641,3.016-0.641,3.016s1.535,0.725,3.08,0.172
					c-0.416,0.953-0.33,1.802-0.33,1.802s0.795,0.284,1.826,0.081c-0.875,1.378-0.498,3.04-0.498,3.04s1.557,0.672,3.084,0.03
					c-0.363,0.972-0.228,1.816-0.228,1.816s0.82,0.234,1.822-0.015c-0.799,1.429-0.289,3.067-0.289,3.067s0.404,0.143,0.988,0.194
					c0.582,0.055,1.352,0.006,2.09-0.376c-0.281,0.994-0.064,1.828-0.064,1.828s0.846,0.167,1.816-0.176
					c-0.34,0.765-0.32,1.521-0.219,2.11c0.102,0.586,0.285,0.988,0.285,0.988s1.691,0.43,3.055-0.576
					c-0.129,1.023,0.244,1.834,0.244,1.834s0.217,0.011,0.545-0.043c0.324-0.048,0.762-0.178,1.209-0.449
					c-0.18,0.802-0.018,1.562,0.209,2.132c0.244,0.561,0.539,0.929,0.539,0.929s0.488,0.01,1.088-0.148
					c0.625-0.179,1.34-0.526,1.801-1.225c0.121,0.495,0.363,0.928,0.602,1.191c0.24,0.261,0.449,0.398,0.449,0.398
					s0.23-0.081,0.521-0.298c0.297-0.237,0.633-0.6,0.822-1.065c0.176,0.37,0.441,0.649,0.768,0.874
					c0.326,0.227,0.707,0.385,1.055,0.421c0.715,0.115,1.33-0.008,1.309-0.022c0,0,0.357-0.488,0.564-1.145
					c0.152-0.686,0.1-1.531-0.342-2.188c0.996,0.147,1.85-0.339,1.85-0.339s0.014-0.231-0.09-0.573
					c-0.094-0.341-0.268-0.78-0.584-1.189c0.838,0.083,1.572-0.214,2.078-0.543c0.52-0.327,0.836-0.675,0.836-0.675
					s-0.047-0.456-0.326-1.006c-0.266-0.553-0.711-1.196-1.41-1.61c0.512-0.145,0.91-0.382,1.164-0.579
					c0.26-0.197,0.4-0.357,0.4-0.357s-0.344-0.805-1.176-1.438c1.609-0.26,2.603-1.695,2.603-1.695s-0.135-0.408-0.453-0.896
					c-0.328-0.487-0.883-1.053-1.631-1.388c0.949-0.403,1.461-1.083,1.461-1.083s-0.4-0.758-1.277-1.316
					C302.014,282.379,302.9,280.899,302.9,280.899z"/>
				<path style="fill:#43454A;" d="M260.141,264.999l1.125-0.686c-13.75-7.938-30.043-39.348-30.043-39.348
					c2.207-2.723,2.99-6.009,2.99-6.009s-2.385,0.044-3.197,0.732s0.25,1-4.563,5.063s-13.125,4.75-17.545,5.6
					c0,0,0.707,1.542,2.236,2.146c-0.936,0.44-1.422,1.127-1.422,1.127s0.426,0.733,1.322,1.268
					c-1.574,0.444-2.408,1.906-2.408,1.906s0.709,1.523,2.24,2.09c-0.938,0.462-1.424,1.16-1.424,1.16s0.428,0.723,1.322,1.236
					c-0.787,0.241-1.389,0.73-1.795,1.161c-0.414,0.429-0.588,0.803-0.588,0.803s0.783,1.511,2.342,2.035
					c-0.912,0.488-1.363,1.202-1.363,1.202s0.463,0.711,1.385,1.196c-1.549,0.53-2.309,2.044-2.309,2.044s0.785,1.484,2.344,1.955
					c-0.912,0.52-1.363,1.249-1.363,1.249s0.113,0.174,0.348,0.404c0.246,0.23,0.609,0.518,1.086,0.742
					c-1.516,0.584-2.182,2.134-2.182,2.134s0.877,1.458,2.463,1.857c-0.881,0.559-1.287,1.311-1.287,1.311s0.508,0.675,1.453,1.081
					c-0.754,0.33-1.297,0.89-1.65,1.369c-0.365,0.479-0.498,0.875-0.5,0.875c0,0,0.982,1.419,2.598,1.729
					c-0.838,0.604-1.189,1.38-1.189,1.38s0.555,0.647,1.531,0.993c-1.463,0.748-2.006,2.383-2.006,2.383s0.246,0.343,0.689,0.711
					c0.455,0.367,1.158,0.75,1.971,0.851c-0.787,0.659-1.074,1.459-1.074,1.459s0.608,0.606,1.611,0.879
					c-1.398,0.852-1.803,2.535-1.803,2.535s1.076,1.298,2.768,1.345c-0.73,0.723-0.945,1.547-0.945,1.547s0.66,0.554,1.682,0.735
					c-1.318,0.974-1.572,2.693-1.572,2.693s0.285,0.306,0.814,0.584c0.533,0.276,1.27,0.537,2.092,0.492
					c-0.664,0.789-0.809,1.632-0.809,1.632s0.699,0.492,1.729,0.583c-0.613,0.548-0.949,1.251-1.131,1.823
					c-0.191,0.577-0.184,0.99-0.184,0.99s1.371,1.036,2.994,0.815c-0.607,0.844-0.697,1.695-0.697,1.695s0.725,0.438,1.756,0.456
					c-1.146,1.168-1.059,2.913-1.059,2.913s0.354,0.248,0.934,0.438c0.572,0.191,1.336,0.322,2.123,0.116
					c-0.502,0.911-0.424,1.794-0.424,1.794s0.807,0.358,1.844,0.14c-0.426,0.695-0.543,1.499-0.432,2.124
					c0.045,0.314,0.119,0.59,0.184,0.785c0.057,0.196,0.127,0.308,0.127,0.308s0.52,0.163,1.172,0.165
					c0.695-0.02,1.51-0.222,2.037-0.884c0.072,0.496,0.307,0.983,0.578,1.229c0.264,0.271,0.504,0.414,0.506,0.414
					c0,0.001,0.063-0.015,0.162-0.073c0.102-0.06,0.24-0.149,0.389-0.27c0.301-0.226,0.602-0.629,0.738-1.137
					c0.217,0.357,0.518,0.632,0.842,0.815c0.33,0.194,0.703,0.317,1.012,0.377c0.658,0.131,1.121,0.081,1.121,0.081
					s0.295-0.381,0.475-0.946c0.189-0.572,0.297-1.304,0.111-2.127c0.887,0.503,1.766,0.458,1.766,0.458s0.361-0.802,0.217-1.813
					c1.336,0.933,3.039,0.529,3.039,0.529s0.182-0.397,0.279-0.978c0.105-0.575,0.072-1.373-0.252-2.121
					c0.975,0.347,1.82,0.186,1.82,0.186s0.221-0.824-0.064-1.819c1.445,0.743,3.066,0.192,3.066,0.192s0.521-1.618-0.287-3.068
					c1.002,0.261,1.824,0.037,1.824,0.037s0.145-0.839-0.211-1.811c1.52,0.656,3.074,0.005,3.074,0.005s0.395-1.649-0.465-3.036
					c1.016,0.206,1.82-0.058,1.82-0.058s0.096-0.844-0.307-1.802c1.543,0.58,3.074-0.122,3.076-0.122c0,0,0.316-1.66-0.596-3.017
					c1.031,0.175,1.822-0.118,1.822-0.118s0.064-0.846-0.373-1.79c1.555,0.521,3.07-0.222,3.07-0.222s0.26-1.666-0.693-2.996
					c1.035,0.143,1.818-0.172,1.818-0.172s0.041-0.846-0.422-1.777c1.57,0.479,3.059-0.308,3.059-0.308s0.223-1.667-0.773-2.974
					c1.033,0.11,1.813-0.223,1.813-0.223s0.02-0.846-0.471-1.765c0.791,0.215,1.555,0.119,2.119-0.039
					c0.564-0.152,0.939-0.377,0.939-0.376L260.141,264.999z"/>
				<path style="opacity:0.2;fill:#43454A;" d="M168.141,339.875c0,0,5.75,21.875,5.75,24.625c0,0.352-0.023,0.794-0.059,1.304
					c2.215-5.908,4.891-15.777,6.061-30.804c2.166-27.834-5.834-82.166-6.668-84.167c-0.832-2.001-1.832-3.666-1.084,0
					c0.75,3.667,6,64.167,4,71.917C175.141,326.25,168.141,339.875,168.141,339.875z"/>
				<path style="fill:#43454A;" d="M86.52,327.678c0,0-14.795,12.489-15.961,13.989c-1.168,1.5-0.166,3.333,1,5.333
					s30.834,32.833,32,34c1.166,1.167,3.832,1,4.832,0s15.668-13.166,15.668-13.166S110.482,351.355,86.52,327.678z"/>
				<path style="fill:#43454A;" d="M393.238,294.054c-12.18,6.279-18.848,21.445-21.348,29.779
					c-2.5,8.334-1.064,28.649-1.064,28.649s17.23,9.184,18.898,9.851c1.666,0.667,8.834-4.5,8.834-4.5l-9.168-6.333
					c0,0-2.5-15.834,3-27.667c5.5-11.833,16.5-18.797,16.5-18.797s1.168-1.535,0-2.869
					C407.725,300.833,393.238,294.054,393.238,294.054z"/>
				<path style="fill:#FFFFFF;" d="M199.391,452.25l-12.762,11.892c0,0-21.488,20.358-35.238,35.858h206.75c0,0-13.5-28-35.75-51
					h-103.5L199.391,452.25z"/>
				<path style="opacity:0.2;fill:#43454A;" d="M247.104,499.054c0.424-0.602,0.818-1.432,0.787-2.363
					c0.98,0.769,2.066,0.907,2.066,0.907s0.162-0.206,0.334-0.561c0.176-0.351,0.354-0.855,0.389-1.465
					c0.703,0.674,1.6,1.009,2.33,1.17c0.736,0.167,1.277,0.145,1.277,0.145s1.271-1.656,0.883-3.499
					c1.098,0.619,2.174,0.637,2.174,0.637s0.502-0.882,0.434-2.085c1.559,1.196,3.705,0.981,3.705,0.981s1.078-1.732,0.543-3.547
					c1.154,0.55,2.217,0.496,2.217,0.496s0.424-0.913,0.277-2.105c1.641,1.102,3.754,0.778,3.754,0.778s0.971-1.77,0.332-3.565
					c1.18,0.489,2.244,0.396,2.244,0.396s0.26-0.669,0.217-1.59c0.131,0.032,0.588,0.13,1.207,0.124
					c0.17-0.003,0.354-0.015,0.545-0.034c0.256,0.038,0.504,0.064,0.729,0.07c0.545,0.017,0.978-0.048,1.168-0.083
					c-0.06,0.872,0.166,1.488,0.166,1.488s1.049,0.099,2.217-0.384c-0.695,1.788,0.236,3.523,0.236,3.523s2.068,0.318,3.695-0.786
					c-0.178,1.195,0.238,2.077,0.238,2.076c0,0,1.053,0.029,2.188-0.529c-0.555,1.81,0.475,3.528,0.475,3.528
					s2.115,0.159,3.654-1.061c-0.074,1.191,0.394,2.071,0.394,2.071s1.043-0.026,2.121-0.65c-0.4,1.832,0.822,3.428,0.82,3.428
					c0,0,2.117,0.03,3.523-1.3c0.018,0.602,0.16,1.122,0.303,1.482c0.152,0.347,0.299,0.547,0.299,0.547s1.057-0.149,2.065-0.888
					c0.002,0.001,0.006,0.002,0.01,0.004c-0.191,1.859,1.203,3.372,1.201,3.372l1.057-2.485c0.418,0.154,0.838,0.306,1.26,0.451
					c0.412-0.191,0.801-0.393,1.201-0.59l1.346,2.38c0,0,1.197-1.634,0.783-3.464c0.002,0,0.002,0,0.002,0
					c1.086,0.643,2.148,0.693,2.148,0.693s0.119-0.213,0.229-0.571c0.111-0.357,0.182-0.9,0.129-1.497
					c1.541,1.186,3.641,0.933,3.641,0.933s1.02-1.71,0.373-3.477c1.141,0.494,2.178,0.389,2.178,0.389s0.338-0.933,0.08-2.096
					c0.002,0,0.002-0.001,0.004-0.002c0.853,0.504,1.797,0.651,2.531,0.666c0.369,0.007,0.686-0.018,0.908-0.044
					c0.227-0.022,0.346-0.064,0.346-0.064s0.721-1.875-0.164-3.56v-0.001c1.217,0.371,2.256,0.169,2.256,0.169
					s0.058-0.235,0.068-0.609c0.016-0.368-0.041-0.896-0.26-1.468c1.809,0.793,3.781,0.061,3.781,0.061s0.133-0.475,0.129-1.143
					c0.008-0.659-0.162-1.534-0.73-2.331c1.246,0.217,2.232-0.12,2.232-0.12s0.086-0.976-0.471-2.036
					c1.965,0.613,3.771-0.375,3.771-0.375c0,0.001,0.238-1.958-1.061-3.373c1.277,0.077,2.195-0.38,2.195-0.38
					s-0.053-0.982-0.752-1.972c0.99,0.173,1.953-0.002,2.613-0.257c0.666-0.251,1.086-0.546,1.086-0.546
					c0.002,0.001-0.014-1.966-1.506-3.228c1.266-0.076,2.133-0.629,2.133-0.629s-0.176-0.964-0.996-1.864
					c2.016,0.125,3.559-1.233,3.559-1.233s-0.049-0.48-0.346-1.111c-0.287-0.628-0.785-1.382-1.609-1.92
					c0.746-0.127,1.311-0.405,1.656-0.616c-3.57-4.518-7.49-9.081-11.73-13.464h-103.5l-19.5,3.25l-12.762,11.892
					c0,0-1.791,1.698-4.662,4.478c0.527-0.042,1.09-0.156,1.631-0.422c-0.334,1.167-0.029,2.127-0.029,2.127
					s1.051,0.197,2.275-0.227c-0.383,0.871-0.365,1.768-0.244,2.45c0.115,0.686,0.342,1.138,0.342,1.138s2.111,0.443,3.805-0.581
					c-0.217,1.195,0.174,2.114,0.174,2.114s1.07,0.091,2.244-0.406c-0.637,1.815,0.387,3.561,0.387,3.561s2.123,0.302,3.736-0.826
					c-0.129,1.208,0.326,2.097,0.326,2.097s1.074,0.022,2.213-0.547c-0.246,0.916-0.1,1.804,0.115,2.464
					c0.211,0.665,0.496,1.081,0.496,1.081s2.145,0.163,3.689-1.058c-0.047,1.203,0.445,2.092,0.445,2.092s1.059-0.011,2.17-0.657
					c-0.379,1.846,0.834,3.481,0.834,3.481s2.135,0.08,3.601-1.206c0.025,1.197,0.576,2.041,0.576,2.041s1.07-0.09,2.137-0.77
					c-0.281,1.868,1.008,3.464,1.008,3.464s0.527,0.008,1.24-0.177c0.713-0.187,1.6-0.545,2.307-1.229
					c0.088,1.195,0.678,2.023,0.678,2.023s1.059-0.13,2.086-0.854c-0.092,0.943,0.199,1.801,0.518,2.424
					c0.313,0.631,0.666,0.991,0.666,0.991c0-0.001,2.139-0.147,3.475-1.569c0.146,1.193,0.773,2,0.773,2s1.049-0.171,2.039-0.934
					c-0.104,1.915,1.355,3.341,1.355,3.341s2.125-0.227,3.393-1.702c0.201,1.189,0.863,1.972,0.863,1.972s1.037-0.211,1.99-1.012
					c-0.004,0.956,0.371,1.778,0.752,2.351c0.379,0.579,0.76,0.923,0.76,0.923s2.111-0.309,3.311-1.83
					c0.254,1.18,0.951,1.936,0.951,1.936s1.025-0.25,1.945-1.086c0.031,0.478,0.238,0.948,0.584,1.4
					c0.342,0.293,0.854,0.458,1.328,0.594c0.703,0.312,1.309,0.409,1.309,0.409s0.123-0.079,0.295-0.237
					C246.676,499.596,246.893,499.353,247.104,499.054z"/>
				<path style="fill:#43454A;" d="M331.08,454.138l-2.689-0.388l-4.25-6.25c0,0,2.08-37.871-0.084-64.06
					c-24.227-8.986-79.631-12.004-138.148,1.528c0,0-2.018,1.866-1.684,5.366c0.332,3.5,5.832,66.667,5.832,66.667L187.121,462
					l-2.021,1.815c0.055,0.089,1.982,0.766,3.656-0.117c-0.311,1.167-0.027,2.127-0.027,2.127s0.979,0.197,2.117-0.228
					c-0.357,0.871-0.34,1.768-0.228,2.45c0.109,0.686,0.318,1.138,0.318,1.139c0,0,1.965,0.442,3.539-0.582
					c-0.201,1.195,0.162,2.114,0.162,2.114s0.996,0.091,2.088-0.406c-0.592,1.815,0.359,3.561,0.359,3.561s1.977,0.302,3.479-0.826
					c-0.121,1.208,0.303,2.097,0.303,2.097s0.998,0.022,2.059-0.547c-0.23,0.916-0.092,1.804,0.107,2.464
					c0.195,0.665,0.461,1.081,0.461,1.081s1.994,0.163,3.432-1.058c-0.043,1.203,0.414,2.092,0.414,2.092s0.984-0.011,2.02-0.657
					c-0.354,1.846,0.777,3.482,0.777,3.482s1.984,0.08,3.35-1.206c0.023,1.197,0.535,2.041,0.535,2.041s0.996-0.09,1.988-0.771
					c-0.262,1.868,0.938,3.464,0.938,3.464s0.49,0.008,1.154-0.177c0.664-0.187,1.488-0.545,2.145-1.229
					c0.082,1.195,0.631,2.023,0.631,2.023s0.984-0.13,1.941-0.854c-0.086,0.943,0.186,1.801,0.48,2.424
					c0.293,0.631,0.621,0.991,0.621,0.991s1.99-0.147,3.232-1.569c0.137,1.193,0.719,2,0.719,2s0.977-0.171,1.896-0.934
					c-0.096,1.915,1.262,3.341,1.262,3.341s1.977-0.228,3.156-1.702c0.188,1.189,0.803,1.972,0.803,1.972s0.967-0.211,1.854-1.012
					c-0.006,0.956,0.344,1.778,0.697,2.351c0.354,0.579,0.707,0.923,0.707,0.923s1.965-0.309,3.08-1.83
					c0.236,1.18,0.885,1.936,0.885,1.936s0.955-0.25,1.811-1.086c0.029,0.479,0.221,0.948,0.543,1.4
					c0.318,0.293,0.795,0.458,1.236,0.594c0.654,0.311,1.217,0.409,1.217,0.409s0.115-0.079,0.273-0.237
					c0.15-0.167,0.352-0.409,0.547-0.709c0.396-0.602,0.764-1.432,0.732-2.363c0.912,0.769,1.924,0.907,1.924,0.907
					s0.15-0.206,0.311-0.561c0.164-0.351,0.33-0.854,0.361-1.465c0.654,0.674,1.488,1.009,2.168,1.17
					c0.686,0.167,1.189,0.145,1.189,0.145s1.182-1.656,0.82-3.499c1.021,0.619,2.023,0.637,2.023,0.637s0.465-0.882,0.402-2.085
					c1.451,1.196,3.447,0.982,3.447,0.982s1.002-1.732,0.504-3.547c1.074,0.55,2.064,0.496,2.064,0.496s0.393-0.913,0.258-2.105
					c1.525,1.102,3.492,0.778,3.492,0.778s0.902-1.77,0.309-3.564c1.096,0.489,2.086,0.396,2.086,0.396s0.242-0.669,0.203-1.59
					c0.123,0.032,0.547,0.13,1.123,0.124c0.158-0.003,0.33-0.015,0.506-0.034c0.238,0.038,0.469,0.064,0.68,0.07
					c0.506,0.017,0.91-0.048,1.086-0.083c-0.057,0.872,0.154,1.488,0.154,1.488s0.975,0.099,2.063-0.384
					c-0.648,1.788,0.219,3.522,0.219,3.522s1.926,0.318,3.438-0.786c-0.164,1.195,0.223,2.077,0.223,2.077s0.98,0.028,2.035-0.53
					c-0.516,1.81,0.441,3.528,0.441,3.528s1.967,0.159,3.4-1.06c-0.07,1.191,0.365,2.071,0.365,2.071s0.973-0.026,1.975-0.65
					c-0.373,1.832,0.766,3.428,0.764,3.428c0,0,1.969,0.03,3.277-1.3c0.016,0.602,0.148,1.122,0.283,1.482
					c0.141,0.347,0.275,0.547,0.275,0.547s0.984-0.149,1.922-0.888c0.002,0.001,0.006,0.002,0.008,0.004
					c-0.178,1.859,1.121,3.372,1.119,3.372l0.982-2.485c0.389,0.154,0.779,0.306,1.172,0.451c0.383-0.191,0.744-0.394,1.117-0.59
					l1.252,2.38c0,0,1.113-1.634,0.73-3.464l0,0c1.01,0.643,2,0.693,2,0.693s0.111-0.213,0.213-0.571
					c0.102-0.356,0.168-0.9,0.119-1.497c1.434,1.185,3.387,0.933,3.387,0.933s0.949-1.71,0.348-3.477
					c1.061,0.494,2.025,0.389,2.025,0.389s0.314-0.933,0.074-2.096c0.002,0,0.002-0.001,0.004-0.002
					c0.793,0.504,1.672,0.651,2.355,0.666c0.344,0.007,0.637-0.018,0.844-0.044c0.211-0.022,0.322-0.064,0.322-0.064
					s0.672-1.875-0.152-3.56v-0.001c1.131,0.371,2.1,0.169,2.1,0.169s0.053-0.235,0.063-0.609c0.016-0.368-0.039-0.896-0.242-1.468
					c1.684,0.793,3.518,0.061,3.518,0.061s0.123-0.475,0.121-1.143c0.008-0.659-0.152-1.534-0.68-2.331
					c1.158,0.217,2.076-0.12,2.076-0.12s0.08-0.976-0.438-2.036c1.828,0.613,3.508-0.375,3.508-0.375s0.223-1.958-0.986-3.373
					c1.189,0.077,2.043-0.38,2.043-0.38s-0.049-0.981-0.699-1.972c0.92,0.173,1.816-0.002,2.432-0.257
					c0.619-0.251,1.01-0.546,1.01-0.546c0.002,0.001-0.014-1.966-1.402-3.228c1.178-0.076,1.984-0.629,1.984-0.629
					s-0.162-0.964-0.926-1.864c1.875,0.125,3.31-1.232,3.31-1.231c0,0-0.045-0.482-0.32-1.112c-0.268-0.628-0.73-1.382-1.498-1.92
					c1.187-0.218,1.902-0.884,1.902-0.884s-0.281-0.939-1.182-1.728C329.853,455.834,331.086,454.249,331.08,454.138z"/>
				<g style="opacity:0.8;">
					<path style="fill:#212124;" d="M275.191,480.664c0.18-0.052,0.361-0.113,0.551-0.197c-0.648,1.788,0.219,3.522,0.219,3.522
						s0.074,0.01,0.176,0.02c0.789-43.635-1.266-91.673-2.063-108.13c-0.336-0.009-0.666-0.022-1.004-0.03
						C273.846,391.803,275.822,437.901,275.191,480.664z"/>
					<path style="fill:#212124;" d="M262.363,375.771c0.789,16.232,2.846,64.121,2.08,107.734c0.33,0.182,0.664,0.311,0.992,0.397
						c0.785-43.715-1.279-91.819-2.07-108.145C263.033,375.76,262.697,375.767,262.363,375.771z"/>
				</g>
			</g>
			<g>
				<path style="fill:#F5D7CD;" d="M356.938,180.971l-7.531-5.897c-1.275-1.36-10.271-15.778-12.307-18.501
					c-2.033-2.723-7.859-15.745-11.658-19.622c-3.803-3.878-9.064-4.85-10.518-3.918c-1.455,0.933-0.727,4.025,1.391,8.562
					c2.117,4.537,8.445,19.212,10.092,22.393c1.648,3.182,9.734,17.795,12.383,22.117c2.642,4.322,6.426,11.786,6.426,11.786
					L356.938,180.971z"/>
				<path style="fill:#F5D7CD;" d="M368.418,175.303l-6.488-7.029c-1.041-1.548-7.607-17.221-9.18-20.235
					c-1.57-3.013-5.234-16.802-8.363-21.238c-3.131-4.436-8.17-6.239-9.754-5.552c-1.584,0.687-1.359,3.854,0.002,8.672
					c1.361,4.818,5.252,20.319,6.369,23.723c1.119,3.405,6.758,19.125,8.674,23.816c1.918,4.689,4.457,12.664,4.457,12.664
					L368.418,175.303z"/>
				<path style="fill:#F5D7CD;" d="M363.725,228.458c6.039,5.117,15.473,19.778,24.924,46.016
					c9.449,26.244,8.914,35.412,13.992,53.748c5.082,18.336,3.77,23.527,21,37.581c8.393,6.845,26.5,9.946,36.307,6.891
					c5.443-4.694,14.166-24.138-4.807-58.444c-18.971-34.31-49.586-77.294-52.285-92.847c-2.697-15.554-1.543-16.57-3.83-23.762
					c-2.289-7.191-8.355-18.902-9.834-20.542c-1.478-1.638-22.918-4.75-23.684-4.388c-0.762,0.363-15.35,13.78-13.926,26.056
					C353.006,211.042,363.725,228.458,363.725,228.458z"/>
				<path style="opacity:0.6;fill:#E79893;" d="M375.588,188.246c1.623,0.256,3.279,1.513,5.934,4.777
					c3.619,4.456,7.805,7.058,13.137,7.589c2.084,0.206,3.848,0.177,5.223,0.064c-0.219-0.912-0.494-1.896-0.855-3.035
					c-1.529-4.805-4.738-11.613-7.147-16.101l-0.85-0.134c0.4-0.166,0.637-0.263,0.637-0.263c-1.102-2.036-2.012-3.531-2.475-4.044
					c-1.076-1.192-12.742-3.167-19.297-4.012c-0.65,0.414-1.412,0.89-2.238,1.391l-2.189-2.374
					c-3.727,1.035-14.441,4.057-15.129,4.808c-0.58,0.634-5.895,8.709-9.057,13.536c2.043,3.712,3.934,7.443,3.934,7.443
					l7.783-11.233c0.215,0.638,0.404,1.21,0.565,1.706c-1.49,3.344-2.387,6.918-1.98,10.403c0.322,2.772,1.121,5.807,2.16,8.845
					l29.699,3.116c-1.908-3.624-12.391-12.916-17.373-15.137c1.113-3.567,2.639-3.093,4.053-3.426
					C371.18,191.915,373.727,189.655,375.588,188.246z"/>
				<path style="fill:#F5D7CD;" d="M363.83,178.838c2.342-0.085,3.824-0.365,4.609,0.011c0.787,0.375,2.127,4.183-1.416,7.171
					c-3.539,2.988-6.607,2.386-8.279,1.915c0,0-0.422,7.891-0.551,10.43c0.748,0.044,16.973,2.312,26.355,13.621
					c9.387,11.309,3.035,19.417-3.637,22.112c-6.67,2.696-11.182,0.025-14.439-3.017c-3.256-3.042-18.221-17.643-20.623-20.245
					c-2.402-2.601-3.289-6.834-2.684-11.131c0.605-4.296,5.158-16.929,5.623-18.096c0.463-1.168,2.975-3.34,5.072-3.948
					C355.957,177.052,358.736,179.019,363.83,178.838z"/>
				<path style="fill:#F5D7CD;" d="M376.658,169.504c0.959-2.069,6.719-4.518,9.973-2.39c3.254,2.127,8.234,7.108,9.017,8.022
					c0.783,0.914,2.631,6.679,3.881,9.22c1.252,2.54,2.201,3.704,1.75,4.431c-0.451,0.728-5.879,4.516-11.846-3.877
					C383.469,176.517,376.658,169.504,376.658,169.504z"/>
				<path style="fill:#F5D7CD;" d="M365.32,172.845c0.557-2.365,4.742-6.104,8.424-5.442c3.68,0.663,5.352,1.671,7.883,4.493
					c2.531,2.822,6.142,8.17,7.346,9.773c1.205,1.603,1.072,4.22,2.926,7.831c1.854,3.612,2.094,4.457,1.44,5.289
					c-0.648,0.831-4.955,2.498-8.904-1.194c-3.949-3.692-4.451-7.687-5.936-9.028C377.014,183.224,365.32,172.845,365.32,172.845z"
					/>
				<path style="opacity:0.6;fill:#E79893;" d="M381.627,171.895c0,0,1.156,0.977,2.654,2.696c0.748,0.855,1.578,1.883,2.43,3.009
					c0.85,1.124,1.727,2.36,2.58,3.571l0.08,0.114l0.1,0.141l0.152,0.238c0.098,0.171,0.205,0.382,0.291,0.567
					c0.16,0.364,0.297,0.725,0.422,1.083c0.244,0.715,0.463,1.412,0.654,2.093c0.395,1.351,0.75,2.611,1.094,3.678
					c0.328,1.072,0.65,1.952,0.894,2.562c0.246,0.611,0.389,0.96,0.389,0.96s-0.875-1.241-1.816-3.317
					c-0.463-1.037-0.945-2.274-1.426-3.599c-0.244-0.656-0.494-1.331-0.75-2.019c-0.135-0.334-0.275-0.665-0.434-0.981l-0.228-0.426
					l-0.156-0.234l-0.041-0.06c0.027,0.038-0.016-0.021-0.02-0.029l-0.09-0.114c-1.809-2.434-3.447-4.922-4.701-6.797
					C382.457,173.15,381.627,171.895,381.627,171.895z"/>
			</g>
			<g>
				<path style="fill:#F5D7CD;" d="M143.064,214.511l7.529-5.897c1.275-1.36,10.273-15.778,12.307-18.501
					c2.035-2.723,7.861-15.745,11.66-19.622c3.803-3.878,9.064-4.85,10.518-3.918c1.453,0.933,0.727,4.025-1.391,8.562
					c-2.119,4.537-8.445,19.212-10.094,22.393c-1.648,3.182-9.732,17.795-12.381,22.117c-2.645,4.322-6.428,11.786-6.428,11.786
					L143.064,214.511z"/>
				<path style="fill:#F5D7CD;" d="M131.584,208.843l6.488-7.029c1.041-1.548,7.607-17.221,9.18-20.235
					c1.57-3.013,5.234-16.802,8.363-21.238c3.129-4.436,8.168-6.239,9.754-5.552c1.584,0.686,1.357,3.854-0.002,8.672
					c-1.361,4.818-5.252,20.319-6.369,23.723c-1.119,3.405-6.758,19.125-8.676,23.816c-1.918,4.689-4.457,12.665-4.457,12.665
					L131.584,208.843z"/>
				<path style="fill:#F5D7CD;" d="M136.275,261.998c-6.037,5.117-15.473,19.779-24.922,46.017
					c-9.449,26.244-8.914,35.412-13.994,53.748s-3.768,23.527-21,37.581c-8.393,6.845-26.5,9.946-36.307,6.891
					c-5.443-4.694-14.164-24.138,4.807-58.444c18.973-34.311,49.588-77.294,52.285-92.847c2.699-15.554,1.545-16.57,3.832-23.762
					c2.287-7.191,8.355-18.902,9.834-20.542c1.477-1.638,22.918-4.75,23.684-4.388c0.762,0.363,15.35,13.78,13.924,26.056
					C146.994,244.582,136.275,261.998,136.275,261.998z"/>
				<path style="opacity:0.6;fill:#E79893;" d="M124.412,221.786c-1.621,0.256-3.277,1.513-5.932,4.777
					c-3.621,4.456-7.805,7.058-13.137,7.589c-2.086,0.206-3.848,0.177-5.223,0.064c0.217-0.912,0.492-1.896,0.856-3.035
					c1.527-4.805,4.738-11.613,7.146-16.101l0.85-0.134c-0.4-0.165-0.639-0.263-0.639-0.263c1.104-2.036,2.014-3.531,2.476-4.044
					c1.076-1.192,12.742-3.167,19.297-4.012c0.65,0.414,1.41,0.89,2.238,1.391l2.189-2.375c3.727,1.035,14.441,4.057,15.129,4.808
					c0.578,0.634,5.895,8.709,9.055,13.536c-2.043,3.712-3.934,7.443-3.934,7.443l-7.783-11.233
					c-0.213,0.638-0.402,1.211-0.563,1.706c1.49,3.344,2.385,6.918,1.979,10.403c-0.322,2.773-1.119,5.807-2.16,8.845l-29.699,3.116
					c1.91-3.624,12.393-12.916,17.375-15.137c-1.113-3.567-2.641-3.093-4.053-3.426C128.82,225.455,126.275,223.195,124.412,221.786
					z"/>
				<path style="fill:#F5D7CD;" d="M136.172,212.378c-2.342-0.085-3.826-0.365-4.611,0.011c-0.785,0.375-2.125,4.183,1.418,7.171
					c3.539,2.988,6.605,2.386,8.277,1.915c0,0,0.422,7.891,0.551,10.43c-0.746,0.044-16.971,2.311-26.355,13.621
					c-9.385,11.31-3.035,19.417,3.637,22.112c6.672,2.696,11.184,0.025,14.439-3.018c3.258-3.041,18.223-17.642,20.625-20.245
					c2.4-2.601,3.289-6.834,2.684-11.131c-0.605-4.296-5.16-16.929-5.623-18.096c-0.463-1.168-2.977-3.34-5.072-3.948
					C144.045,210.592,141.266,212.559,136.172,212.378z"/>
				<path style="fill:#F5D7CD;" d="M123.342,203.044c-0.959-2.069-6.717-4.518-9.971-2.39c-3.254,2.127-8.234,7.108-9.019,8.023
					c-0.783,0.914-2.629,6.679-3.879,9.22c-1.252,2.54-2.201,3.704-1.752,4.431c0.451,0.728,5.881,4.516,11.848-3.877
					C116.533,210.057,123.342,203.044,123.342,203.044z"/>
				<path style="fill:#F5D7CD;" d="M134.682,206.385c-0.557-2.365-4.744-6.104-8.426-5.442c-3.68,0.663-5.352,1.671-7.881,4.493
					c-2.533,2.822-6.143,8.17-7.348,9.773c-1.203,1.603-1.072,4.22-2.926,7.831c-1.852,3.612-2.092,4.456-1.44,5.288
					c0.65,0.831,4.957,2.498,8.904-1.194c3.949-3.692,4.453-7.687,5.936-9.028C122.988,216.764,134.682,206.385,134.682,206.385z"/>
				<path style="opacity:0.6;fill:#E79893;" d="M118.375,205.436c0,0-1.158,0.977-2.654,2.696c-0.748,0.854-1.578,1.883-2.432,3.009
					c-0.85,1.125-1.725,2.36-2.578,3.571l-0.08,0.114l-0.1,0.141l-0.152,0.238c-0.098,0.171-0.205,0.382-0.293,0.567
					c-0.158,0.364-0.295,0.725-0.42,1.083c-0.244,0.715-0.463,1.412-0.656,2.093c-0.395,1.351-0.75,2.611-1.092,3.678
					c-0.328,1.072-0.65,1.952-0.895,2.562c-0.248,0.611-0.389,0.96-0.389,0.96s0.875-1.241,1.814-3.317
					c0.465-1.037,0.947-2.274,1.426-3.599c0.244-0.656,0.496-1.331,0.752-2.019c0.135-0.334,0.275-0.665,0.432-0.981l0.231-0.426
					l0.156-0.234l0.039-0.061c-0.025,0.038,0.018-0.021,0.021-0.029l0.088-0.114c1.811-2.434,3.449-4.922,4.703-6.797
					C117.543,206.69,118.375,205.436,118.375,205.436z"/>
			</g>
		</g>
		<g>
			<g>
				<path style="fill:none;stroke:#43454A;stroke-width:3;stroke-linecap:round;stroke-miterlimit:10;" d="M33.905,462.518
					c0-6.783,5.501-12.281,12.282-12.281c6.782,0,12.283,5.498,12.283,12.281"/>
				<path style="fill:none;stroke:#43454A;stroke-width:3;stroke-linecap:round;stroke-miterlimit:10;" d="M41.159,462.518
					c0-2.777,2.252-5.027,5.028-5.027c2.778,0,5.028,2.25,5.028,5.027"/>
				<path style="fill:none;stroke:#43454A;stroke-width:3;stroke-linecap:round;stroke-miterlimit:10;" d="M58.471,462.518
					c0-6.783,5.499-12.281,12.281-12.281c6.783,0,12.283,5.498,12.283,12.281"/>
				<path style="fill:none;stroke:#43454A;stroke-width:3;stroke-linecap:round;stroke-miterlimit:10;" d="M65.725,462.518
					c0-2.777,2.25-5.027,5.027-5.027c2.778,0,5.028,2.25,5.028,5.027"/>
				<path style="fill:none;stroke:#43454A;stroke-width:3;stroke-linecap:round;stroke-miterlimit:10;" d="M46.188,450.236
					c0-6.784,5.5-12.283,12.283-12.283s12.281,5.499,12.281,12.283"/>
				<path style="fill:none;stroke:#43454A;stroke-width:3;stroke-linecap:round;stroke-miterlimit:10;" d="M53.442,452.616v-2.38
					c0-2.777,2.25-5.028,5.028-5.028c2.778,0,5.027,2.251,5.027,5.028v2.38"/>
			</g>
			<g>
				<path style="fill:none;stroke:#43454A;stroke-width:3;stroke-linecap:round;stroke-miterlimit:10;" d="M424.074,189.707
					c0-6.783,5.501-12.281,12.282-12.281c6.782,0,12.283,5.498,12.283,12.281"/>
				<path style="fill:none;stroke:#43454A;stroke-width:3;stroke-linecap:round;stroke-miterlimit:10;" d="M431.328,189.707
					c0-2.777,2.252-5.027,5.028-5.027c2.778,0,5.028,2.25,5.028,5.027"/>
				<path style="fill:none;stroke:#43454A;stroke-width:3;stroke-linecap:round;stroke-miterlimit:10;" d="M448.64,189.707
					c0-6.783,5.499-12.281,12.281-12.281c6.783,0,12.283,5.498,12.283,12.281"/>
				<path style="fill:none;stroke:#43454A;stroke-width:3;stroke-linecap:round;stroke-miterlimit:10;" d="M455.894,189.707
					c0-2.777,2.25-5.027,5.027-5.027c2.778,0,5.028,2.25,5.028,5.027"/>
				<path style="fill:none;stroke:#43454A;stroke-width:3;stroke-linecap:round;stroke-miterlimit:10;" d="M436.356,177.426
					c0-6.784,5.5-12.283,12.283-12.283c6.783,0,12.281,5.499,12.281,12.283"/>
				<path style="fill:none;stroke:#43454A;stroke-width:3;stroke-linecap:round;stroke-miterlimit:10;" d="M443.611,179.806v-2.38
					c0-2.777,2.25-5.028,5.028-5.028c2.778,0,5.027,2.251,5.027,5.028v2.38"/>
			</g>
			<g>
				<path style="fill:none;stroke:#FFFFFF;stroke-width:3;stroke-linecap:round;stroke-miterlimit:10;" d="M51.216,69.721
					c0-6.783,5.501-12.281,12.282-12.281c6.782,0,12.283,5.498,12.283,12.281"/>
				<path style="fill:none;stroke:#FFFFFF;stroke-width:3;stroke-linecap:round;stroke-miterlimit:10;" d="M58.47,69.721
					c0-2.777,2.252-5.027,5.028-5.027c2.778,0,5.028,2.25,5.028,5.027"/>
				<path style="fill:none;stroke:#FFFFFF;stroke-width:3;stroke-linecap:round;stroke-miterlimit:10;" d="M75.781,69.721
					c0-6.783,5.499-12.281,12.281-12.281c6.783,0,12.283,5.498,12.283,12.281"/>
				<path style="fill:none;stroke:#FFFFFF;stroke-width:3;stroke-linecap:round;stroke-miterlimit:10;" d="M83.035,69.721
					c0-2.777,2.25-5.027,5.027-5.027c2.778,0,5.028,2.25,5.028,5.027"/>
				<path style="fill:none;stroke:#FFFFFF;stroke-width:3;stroke-linecap:round;stroke-miterlimit:10;" d="M63.498,57.44
					c0-6.784,5.5-12.283,12.283-12.283c6.783,0,12.281,5.499,12.281,12.283"/>
				<path style="fill:none;stroke:#FFFFFF;stroke-width:3;stroke-linecap:round;stroke-miterlimit:10;" d="M70.753,59.82v-2.38
					c0-2.777,2.25-5.028,5.028-5.028c2.778,0,5.027,2.251,5.027,5.028v2.38"/>
			</g>
			<g>
				<path style="fill:#CC3D4B;" d="M400.926,74.543c-4.078-4.078-10.443-4.326-10.538-4.329c0.103-0.005,6.461-0.255,10.535-4.329
					c4.109-4.11,4.332-10.548,4.332-10.548s-6.439,0.222-10.548,4.332c-4.077,4.078-4.325,10.441-4.331,10.537
					c-0.002-0.105-0.254-6.464-4.327-10.537c-4.108-4.108-10.546-4.331-10.546-4.331s0.222,6.439,4.33,10.547
					c4.077,4.077,10.441,4.328,10.538,4.331c-0.105,0.002-6.462,0.253-10.537,4.328c-4.108,4.108-4.331,10.546-4.331,10.546
					s6.438-0.222,10.547-4.331c4.077-4.078,4.328-10.441,4.33-10.537c0.002,0.105,0.256,6.462,4.33,10.536
					c4.107,4.108,10.545,4.33,10.545,4.33S405.033,78.65,400.926,74.543z M390.379,70.213L390.379,70.213L390.379,70.213
					L390.379,70.213L390.379,70.213z"/>
				<path style="fill:#FFFFFF;" d="M430.679,74.542c-4.078-4.078-10.443-4.326-10.539-4.33c0.105-0.004,6.463-0.254,10.537-4.328
					c4.109-4.11,4.33-10.548,4.33-10.548s-6.436,0.222-10.547,4.332c-4.077,4.078-4.325,10.441-4.33,10.537
					c-0.002-0.105-0.255-6.464-4.328-10.538c-4.108-4.107-10.547-4.33-10.547-4.33s0.224,6.439,4.331,10.546
					c4.078,4.078,10.441,4.328,10.538,4.332c-0.105,0.002-6.461,0.253-10.537,4.328c-4.107,4.108-4.33,10.546-4.33,10.546
					s6.438-0.222,10.547-4.33c4.077-4.078,4.328-10.441,4.33-10.537c0.002,0.105,0.254,6.461,4.328,10.536
					c4.109,4.109,10.547,4.331,10.547,4.331S434.787,78.651,430.679,74.542z M420.132,70.214L420.132,70.214L420.132,70.214
					L420.132,70.214L420.132,70.214z"/>
				<path style="fill:#CC3D4B;" d="M430.679,104.117c-4.078-4.078-10.443-4.326-10.538-4.33c0.104-0.005,6.462-0.255,10.536-4.329
					c4.109-4.109,4.331-10.548,4.331-10.548s-6.439,0.222-10.548,4.332c-4.077,4.078-4.326,10.441-4.33,10.538
					c-0.003-0.105-0.255-6.464-4.328-10.537c-4.108-4.107-10.547-4.33-10.547-4.33s0.225,6.438,4.331,10.546
					c4.078,4.078,10.441,4.328,10.538,4.331c-0.105,0.003-6.461,0.253-10.537,4.328c-4.108,4.109-4.33,10.546-4.33,10.546
					s6.438-0.222,10.547-4.33c4.077-4.078,4.327-10.441,4.329-10.538c0.003,0.105,0.256,6.462,4.33,10.536
					c4.108,4.109,10.546,4.331,10.546,4.331S434.787,108.226,430.679,104.117z M420.132,99.79L420.132,99.79L420.132,99.79
					L420.132,99.79L420.132,99.79z"/>
				<path style="fill:#43454A;" d="M460.432,74.542c-4.077-4.078-10.443-4.326-10.538-4.329c0.105-0.004,6.462-0.255,10.536-4.329
					c4.109-4.11,4.331-10.548,4.331-10.548s-6.438,0.223-10.547,4.332c-4.078,4.078-4.326,10.441-4.33,10.537
					c-0.002-0.105-0.256-6.464-4.328-10.537c-4.108-4.107-10.547-4.331-10.547-4.331s0.223,6.439,4.33,10.546
					c4.078,4.078,10.441,4.328,10.539,4.332c-0.105,0.002-6.462,0.252-10.537,4.328c-4.109,4.108-4.33,10.546-4.33,10.546
					s6.438-0.222,10.546-4.33c4.077-4.077,4.327-10.441,4.329-10.538c0.003,0.105,0.256,6.462,4.33,10.537
					c4.108,4.108,10.547,4.33,10.547,4.33S464.54,78.651,460.432,74.542z M449.886,70.214L449.886,70.214L449.886,70.214
					L449.886,70.214L449.886,70.214z"/>
			</g>
			<path style="fill:#43454A;" d="M83.781,159.982c0,0-4.817-4.496-10.758-4.496c-5.893,0-10.673,4.414-10.75,4.489
				c0.067-0.071,4.489-4.854,4.489-10.751c0-5.942-4.495-10.758-4.495-10.758s-4.496,4.816-4.496,10.758
				c0,5.895,4.416,10.672,4.491,10.749c-0.072-0.067-4.856-4.488-10.754-4.488c-5.94,0-10.758,4.495-10.758,4.495
				s4.817,4.495,10.758,4.495c5.892,0,10.673-4.415,10.749-4.49c-0.065,0.073-4.487,4.854-4.487,10.752
				c0,5.943,4.495,10.76,4.495,10.76s4.495-4.816,4.495-10.76c0-5.893-4.416-10.67-4.489-10.75c0.072,0.066,4.854,4.49,10.752,4.49
				C78.965,164.477,83.781,159.982,83.781,159.982z M62.268,159.981L62.268,159.981L62.268,159.981L62.268,159.981L62.268,159.981z"
				/>
			<path style="fill:#FFFFFF;" d="M337.145,414.405c3.862,0,6.99-3.131,6.99-6.993s-3.128-6.993-6.99-6.993h-41.148
				c-3.862,0-6.992,3.131-6.992,6.993s3.13,6.993,6.992,6.993H337.145z"/>
		</g>
	</g>
</g>
</svg>
