<?xml version="1.0" encoding="utf-8"?>
<!-- Generator: Adobe Illustrator 27.5.0, SVG Export Plug-In . SVG Version: 6.00 Build 0)  -->
<svg version="1.1" id="Capa_1" xmlns="http://www.w3.org/2000/svg" xmlns:xlink="http://www.w3.org/1999/xlink" x="0px" y="0px"
	 viewBox="0 0 1898 2372" style="enable-background:new 0 0 1898 2372;" xml:space="preserve">
<path style="fill:#203D49;" d="M1209.762,630.2c1.599-1.07,3.181-2.164,4.746-3.283c5.006-3.579,9.833-7.405,14.464-11.455
	c1.158-1.012,2.304-2.039,3.437-3.078c1.133-1.04,2.254-2.094,3.361-3.161c1.108-1.067,2.204-2.147,3.285-3.241
	c1.623-1.64,3.218-3.309,4.781-5.007c2.086-2.262,4.118-4.575,6.094-6.935c0.495-0.59,0.985-1.183,1.473-1.779
	c3.897-4.766,7.571-9.717,11.005-14.832c3.863-5.754,7.423-11.713,10.657-17.848c0.719-1.363,1.421-2.735,2.107-4.115
	c4.461-8.971,8.229-18.293,11.24-27.868c-0.969,0.181-1.94,0.357-2.912,0.527l-1.009,0.171c-0.634,0.108-1.267,0.218-1.901,0.321
	l-1.147,0.181c-0.599,0.095-1.198,0.191-1.799,0.281l-1.104,0.161c-0.605,0.089-1.21,0.178-1.817,0.262l-1.241,0.166
	c-0.563,0.075-1.125,0.152-1.688,0.223l-1.28,0.157c-0.55,0.067-1.101,0.136-1.652,0.199l-1.35,0.149
	c-0.53,0.058-1.06,0.118-1.59,0.173l-1.304,0.129c-0.557,0.055-1.115,0.11-1.673,0.162l-1.228,0.108
	c-0.573,0.05-1.146,0.1-1.72,0.146l-1.287,0.098c-0.545,0.041-1.089,0.081-1.635,0.119l-1.369,0.089
	c-0.529,0.033-1.058,0.067-1.587,0.098l-1.348,0.073c-0.541,0.028-1.082,0.056-1.623,0.08l-1.334,0.057
	c-0.534,0.022-1.068,0.042-1.602,0.061l-1.381,0.044c-0.534,0.016-1.069,0.03-1.604,0.042l-1.31,0.026
	c-0.549,0.01-1.099,0.019-1.648,0.025l-1.342,0.012c-0.538,0.003-1.076,0.006-1.614,0.006l-1.338-0.003
	c-0.546-0.003-1.092-0.007-1.638-0.013l-1.308-0.018c-0.559-0.009-1.12-0.02-1.678-0.032l-1.271-0.031
	c-0.558-0.016-1.117-0.033-1.675-0.051l-1.309-0.046c-0.551-0.021-1.102-0.045-1.652-0.07l-1.292-0.06
	c-0.558-0.028-1.117-0.059-1.675-0.09l-1.297-0.075c-0.553-0.034-1.106-0.07-1.659-0.108l-1.281-0.088
	c-0.551-0.04-1.101-0.083-1.651-0.125l-1.337-0.107c-0.542-0.045-1.084-0.094-1.626-0.142l-1.291-0.118
	c-0.574-0.054-1.148-0.112-1.721-0.171l-1.221-0.124c-0.591-0.063-1.181-0.129-1.771-0.196l-1.158-0.131
	c-0.598-0.07-1.196-0.144-1.795-0.219l-1.164-0.145c-0.584-0.075-1.167-0.154-1.75-0.233l-1.191-0.162
	c-0.573-0.08-1.145-0.164-1.719-0.249l-1.22-0.179c-0.603-0.092-1.205-0.188-1.807-0.283l-1.105-0.174
	c-0.701-0.114-1.401-0.234-2.101-0.354l-0.81-0.137c-0.841-0.146-1.681-0.299-2.52-0.453l-0.38-0.068
	c-16.568,22.483-37.91,41.402-62.537,54.684H638.281c0.182,0.255,0.367,0.508,0.549,0.761c0.184,0.255,0.368,0.51,0.553,0.764
	c0.396,0.543,0.795,1.084,1.197,1.622c0.137,0.184,0.276,0.366,0.413,0.55c0.339,0.451,0.679,0.902,1.021,1.35
	c0.17,0.221,0.34,0.441,0.51,0.662c0.293,0.381,0.588,0.762,0.885,1.141c0.181,0.232,0.364,0.463,0.546,0.694
	c0.283,0.359,0.568,0.715,0.854,1.072c0.185,0.232,0.371,0.464,0.558,0.695c0.327,0.404,0.656,0.807,0.987,1.209
	c0.139,0.169,0.277,0.339,0.417,0.508c0.481,0.581,0.964,1.159,1.452,1.734l0.067,0.079c1.442,1.698,2.912,3.372,4.41,5.02
	c1.498,1.647,3.024,3.269,4.578,4.864l0.196,0.2c0.554,0.567,1.112,1.131,1.673,1.691l0.197,0.198
	c0.578,0.576,1.161,1.149,1.747,1.717l0.136,0.133c1.905,1.845,3.848,3.651,5.828,5.416l0.253,0.224
	c0.553,0.491,1.109,0.979,1.667,1.464l0.431,0.373c0.504,0.435,1.011,0.867,1.519,1.296l0.503,0.424
	c0.52,0.436,1.043,0.869,1.567,1.299l0.415,0.341c0.638,0.52,1.277,1.036,1.922,1.547l0.079,0.064
	c0.686,0.544,1.376,1.083,2.07,1.618l0.296,0.227c0.574,0.441,1.151,0.879,1.73,1.313l0.585,0.434l1.45,1.068l0.699,0.507
	l1.396,0.996l0.711,0.502l1.46,1.011l0.643,0.441c0.617,0.42,1.236,0.836,1.859,1.248l0.25,0.167
	c0.701,0.462,1.405,0.92,2.112,1.373l0.673,0.426l1.481,0.932l0.79,0.486l1.378,0.84l0.868,0.519l1.314,0.774l0.897,0.521
	l1.359,0.773l0.858,0.485c0.633,0.353,1.268,0.701,1.905,1.046l0.277,0.152h492.448
	C1200.013,636.396,1204.964,633.41,1209.762,630.2z"/>
<path style="fill:#B72D28;" d="M1136.725,670.564H760.671v84.482h376.054V670.564z"/>
<polygon style="fill:#931914;" points="1194.922,639.142 702.474,639.142 760.671,670.564 1136.725,670.564 "/>
<rect x="560.906" y="1992.353" style="fill:#931914;" width="775.805" height="37.717"/>
<rect x="538.924" y="2030.071" style="fill:#871710;" width="819.769" height="38.684"/>
<rect x="515.042" y="2068.754" style="fill:#7E1710;" width="867.535" height="65.783"/>
<polygon style="fill:#B72D28;" points="560.906,1729.639 560.906,1810.162 1336.712,1810.162 1336.712,1729.502 1336.582,1729.639 
	"/>
<path style="fill:#931914;" d="M515.74,1681.904l45.126,47.735h775.716l0.129-0.137l44.986-47.586H515.762
	C515.754,1681.912,515.747,1681.908,515.74,1681.904z"/>
<path style="fill:#264856;" d="M445.583,1630.647h811.15c59.23-32.091,107.654-82.801,138.572-142.776
	c-38.666-5.494-76.659-15.857-112.751-30.84H614.98c-81.71,33.92-173.159,44.177-260.111,27.818
	C372.199,1540.242,403.85,1590.809,445.583,1630.647z"/>
<path style="fill:#203D49;" d="M1256.733,1630.647H445.581c0.612,0.585,1.228,1.166,1.844,1.746l0.277,0.26
	c0.583,0.547,1.168,1.092,1.755,1.635l0.131,0.122c1.283,1.185,2.575,2.36,3.877,3.525l0.241,0.216
	c0.627,0.561,1.256,1.119,1.888,1.675l0.034,0.03c0.678,0.597,1.359,1.192,2.041,1.783l0.001,0.002
	c0.63,0.545,1.262,1.088,1.897,1.629l0.332,0.283c0.607,0.516,1.216,1.032,1.827,1.544l0.117,0.098
	c0.677,0.568,1.357,1.133,2.039,1.695l0.099,0.082c0.615,0.507,1.232,1.011,1.851,1.513l0.364,0.295
	c1.32,1.069,2.648,2.127,3.984,3.176l0.332,0.259c0.561,0.438,1.122,0.875,1.685,1.31l0.425,0.327
	c1.352,1.041,2.712,2.07,4.081,3.09l0.208,0.154c0.617,0.459,1.237,0.916,1.856,1.37l0.35,0.257c0.658,0.481,1.317,0.96,1.978,1.435
	l0.08,0.058c0.694,0.499,1.391,0.995,2.088,1.489l0.388,0.273c0.541,0.381,1.083,0.76,1.626,1.139l0.59,0.41
	c0.629,0.436,1.261,0.87,1.893,1.302l0.109,0.075c0.703,0.479,1.408,0.955,2.115,1.428l0.399,0.267
	c0.551,0.368,1.103,0.735,1.657,1.099l0.594,0.391c0.667,0.438,1.337,0.875,2.007,1.309l0.021,0.013
	c0.711,0.458,1.424,0.914,2.139,1.367l0.482,0.305c0.539,0.341,1.079,0.679,1.62,1.017l0.612,0.381
	c0.606,0.376,1.213,0.75,1.821,1.122l0.294,0.181c0.702,0.428,1.405,0.852,2.109,1.275l0.5,0.298
	c0.56,0.335,1.121,0.667,1.683,0.998l0.568,0.335c0.681,0.399,1.363,0.796,2.047,1.19l0.094,0.054
	c0.708,0.408,1.42,0.813,2.132,1.215l0.618,0.348c0.52,0.293,1.042,0.584,1.565,0.875l0.693,0.384c0.699,0.385,1.399,0.769,2.1,1.15
	c0.007,0.003,0.013,0.008,0.021,0.011h866.011c76.406-41.398,134.833-113.778,160.892-197.067c-1.272,0.239-2.544,0.472-3.818,0.699
	l-0.393,0.07c-1.206,0.215-2.414,0.424-3.621,0.629l-0.605,0.102c-1.176,0.197-2.351,0.389-3.527,0.577l-0.688,0.109
	c-1.186,0.187-2.371,0.37-3.558,0.548l-0.446,0.065c-1.218,0.181-2.435,0.358-3.654,0.528l-0.192,0.027
	c-1.227,0.171-2.454,0.335-3.682,0.496l-0.587,0.076c-1.18,0.153-2.362,0.301-3.543,0.444l-0.684,0.083
	c-1.165,0.139-2.33,0.274-3.496,0.404l-0.712,0.079c-1.188,0.131-2.376,0.258-3.565,0.379l-0.483,0.048
	c-1.122,0.113-2.245,0.222-3.367,0.326l-0.566,0.053c-1.133,0.104-2.267,0.203-3.402,0.298l-0.949,0.079
	c-1.082,0.089-2.165,0.173-3.248,0.254l-1.003,0.073c-1.096,0.08-2.192,0.156-3.288,0.227l-0.916,0.058
	c-1.069,0.068-2.138,0.132-3.207,0.191l-1.015,0.054c-0.915,0.049-1.83,0.095-2.745,0.139l-1.034,0.049
	c-1.023,0.046-2.045,0.088-3.068,0.127l-1.315,0.049c-0.99,0.035-1.979,0.066-2.969,0.095l-1.358,0.036
	c-0.979,0.026-1.959,0.049-2.94,0.068l-1.297,0.022c-0.843,0.014-1.687,0.026-2.53,0.035c-0.56,0.006-1.12,0.011-1.679,0.015
	c-0.767,0.006-1.534,0.01-2.301,0.011c-0.543,0-1.088,0.002-1.631,0.001c-0.841-0.001-1.682-0.005-2.523-0.011
	c-0.558-0.004-1.117-0.008-1.676-0.014c-0.883-0.01-1.765-0.022-2.647-0.036c-0.572-0.01-1.143-0.02-1.715-0.032
	c-0.663-0.013-1.326-0.028-1.99-0.045c-0.788-0.02-1.577-0.041-2.365-0.064c-0.543-0.016-1.086-0.033-1.629-0.051
	c-0.898-0.03-1.796-0.062-2.693-0.097c-0.541-0.021-1.08-0.043-1.62-0.066c-0.826-0.036-1.652-0.073-2.477-0.113
	c-0.602-0.029-1.204-0.058-1.806-0.089c-0.632-0.033-1.263-0.067-1.893-0.102c-0.707-0.04-1.413-0.081-2.119-0.124
	c-0.765-0.046-1.531-0.095-2.296-0.145l-1.339-0.09c-0.996-0.069-1.992-0.14-2.987-0.215l-1.357-0.104
	c-1.006-0.079-2.011-0.16-3.018-0.245l-1.25-0.107c-1.182-0.103-2.365-0.212-3.546-0.325l-0.746-0.07
	c-0.717-0.069-1.435-0.141-2.151-0.213l-0.654-0.068c-1.229-0.127-2.459-0.258-3.687-0.394l-1.132-0.128
	c-1.087-0.123-2.172-0.25-3.258-0.382l-1.04-0.127c-1.217-0.149-2.434-0.304-3.65-0.464l-0.592-0.077
	c-1.474-0.195-2.948-0.397-4.421-0.606C1364.387,1547.846,1315.963,1598.556,1256.733,1630.647z"/>
<polygon style="fill:#931914;" points="1246.294,1326.981 1277.683,1294.307 619.396,1294.307 650.957,1327.16 1246.123,1327.16 "/>
<path style="fill:#264856;" d="M1291.81,1147.106c-30.373-4.028-60.24-12.003-88.574-23.715l-0.49-0.2h-507.96l-0.784,0.321
	c-61.974,25.551-131.251,33.241-197.137,20.845c11.213,35.836,30.301,69.016,55.283,96.782H1194.5
	C1234.674,1219.372,1268.313,1186.347,1291.81,1147.106z"/>
<path style="fill:#203D49;" d="M1278.244,1294.307c36.336-19.687,67.328-48.584,90.303-82.96c1.149-1.719,2.277-3.452,3.386-5.197
	c2.771-4.364,5.414-8.812,7.926-13.334c8.537-15.377,15.542-31.625,20.808-48.459c-1.08,0.204-2.161,0.401-3.243,0.593l-1.042,0.181
	c-0.733,0.128-1.465,0.255-2.199,0.379l-1.324,0.217c-0.64,0.105-1.28,0.209-1.921,0.31l-1.37,0.211
	c-0.641,0.098-1.282,0.196-1.923,0.291l-1.354,0.195c-0.635,0.091-1.268,0.18-1.903,0.268l-1.392,0.187
	c-0.64,0.085-1.28,0.169-1.92,0.25l-1.321,0.165c-0.668,0.082-1.337,0.162-2.006,0.241l-1.281,0.148
	c-0.681,0.077-1.36,0.151-2.042,0.224l-1.226,0.13c-0.737,0.076-1.476,0.149-2.213,0.22l-1.044,0.101
	c-0.848,0.08-1.697,0.154-2.546,0.228l-0.719,0.063c-3.349,0.281-6.702,0.513-10.059,0.695l-0.244,0.012
	c-1.043,0.056-2.087,0.108-3.131,0.154l-0.368,0.015c-0.969,0.042-1.939,0.081-2.909,0.114l-0.724,0.024
	c-0.885,0.029-1.769,0.055-2.653,0.078l-0.677,0.016c-0.895,0.021-1.79,0.038-2.685,0.052l-0.703,0.01
	c-0.873,0.012-1.745,0.02-2.618,0.025l-0.763,0.004c-0.894,0.003-1.788,0.002-2.682-0.002l-0.623-0.003
	c-0.929-0.006-1.857-0.015-2.786-0.028l-0.564-0.008c-1.013-0.016-2.027-0.036-3.041-0.061l-0.245-0.006
	c-7.942-0.199-15.879-0.67-23.79-1.409l-0.06-0.006c-1.077-0.1-2.154-0.206-3.231-0.317l-0.298-0.031
	c-1.039-0.108-2.077-0.22-3.114-0.337l-0.222-0.025c-1.073-0.122-2.145-0.248-3.217-0.379l-0.12-0.015
	c-1.114-0.137-2.228-0.279-3.342-0.427v0.001c-23.497,39.241-57.136,72.266-97.31,94.033H552.149l0.123,0.134
	c1.686,1.871,3.4,3.718,5.139,5.539l0.274,0.288l1.436,1.486l0.57,0.585l1.374,1.392l0.615,0.617l1.403,1.391l0.591,0.579
	l1.444,1.403l0.504,0.482c2.325,2.226,4.691,4.408,7.097,6.544l0.542,0.482l1.425,1.245l0.77,0.669l1.358,1.164l0.828,0.699
	l1.349,1.132l0.837,0.691l1.376,1.128l0.833,0.671l1.397,1.121l0.414,0.326c0.987,0.78,1.978,1.551,2.976,2.315l0.987,0.756
	l1.263,0.949l1.049,0.784l1.237,0.909l1.132,0.823l1.195,0.859l1.183,0.838l1.166,0.818l1.29,0.891l1.091,0.748l1.45,0.975
	l0.962,0.645c0.771,0.51,1.545,1.016,2.322,1.518l0.969,0.62c0.507,0.323,1.013,0.648,1.522,0.968l1.011,0.63l1.456,0.9l1.074,0.653
	l1.44,0.866l1.083,0.643l1.463,0.854l1.059,0.613c0.529,0.303,1.06,0.603,1.592,0.902l0.941,0.53
	c0.73,0.407,1.462,0.809,2.196,1.208l0.334,0.183H1278.244z"/>
<path style="fill:#B72D28;" d="M1202.747,1123.191l0.49,0.2V999.917l-0.147,0.153H694.003v123.441l0.784-0.321H1202.747z"/>
<polygon style="fill:#931914;" points="1203.236,999.917 1232.48,969.476 664.599,969.476 693.99,1000.071 1203.089,1000.071 "/>
<path style="fill:#264856;" d="M1242.229,842.84l0.009,0.001c-31.422-4.371-62.174-13.62-90.722-27.452H745.88
	c-57.534,27.877-124.019,37.145-186.892,25.371c9.418,29.967,25.286,57.771,46.019,81.222h554.262
	C1193.373,903.589,1222.014,875.832,1242.229,842.84z"/>
<path style="fill:#203D49;" d="M1232.832,969.476c4.524-2.44,8.951-5.047,13.276-7.807c0.57-0.364,1.137-0.731,1.704-1.099
	c0.72-0.47,1.438-0.944,2.154-1.422c0.596-0.399,1.191-0.801,1.783-1.205c1.768-1.209,3.516-2.443,5.246-3.704
	c1.085-0.791,2.164-1.591,3.235-2.403c2.536-1.921,5.03-3.898,7.479-5.928l0.686-0.57c1.857-1.552,3.69-3.135,5.495-4.748
	l0.413-0.369c1.213-1.088,2.412-2.19,3.6-3.306l0.231-0.217c1.246-1.172,2.477-2.358,3.694-3.558l0.052-0.05
	c1.585-1.565,3.145-3.155,4.683-4.767c0.912-0.956,1.819-1.917,2.715-2.888c0.601-0.653,1.199-1.309,1.793-1.969
	c1.187-1.32,2.359-2.654,3.516-4.002c1.156-1.348,2.297-2.709,3.422-4.084c0.562-0.688,1.12-1.378,1.674-2.072
	c17.176-21.517,30.443-46.196,38.725-72.547h-0.001c-1.584,0.297-3.17,0.576-4.759,0.846l-1.164,0.199l-1.386,0.223
	c-0.528,0.085-1.056,0.172-1.584,0.254l-1.188,0.179c-0.602,0.091-1.204,0.183-1.807,0.27l-1.152,0.161
	c-0.601,0.084-1.203,0.171-1.805,0.251l-1.304,0.168c-0.568,0.073-1.136,0.148-1.705,0.219l-0.916,0.109
	c-0.696,0.084-1.392,0.168-2.088,0.247l-0.938,0.101c-0.674,0.074-1.35,0.148-2.024,0.218l-1.163,0.114
	c-0.619,0.061-1.237,0.123-1.856,0.181l-0.933,0.081c-0.693,0.061-1.385,0.124-2.078,0.18l-0.738,0.057
	c-0.765,0.061-1.531,0.121-2.296,0.176l-0.521,0.035c-0.823,0.057-1.647,0.113-2.471,0.164l-0.574,0.033
	c-0.825,0.049-1.649,0.096-2.473,0.139l-0.322,0.015c-0.883,0.044-1.765,0.085-2.649,0.122l-0.589,0.022
	c-0.825,0.032-1.651,0.063-2.475,0.088l-0.244,0.007c-0.912,0.027-1.826,0.052-2.74,0.071l-0.45,0.008
	c-0.865,0.017-1.73,0.031-2.594,0.041l-0.253,0.002c-0.926,0.01-1.852,0.015-2.778,0.016l-0.164,0c-0.952,0-1.902-0.004-2.853-0.012
	l-0.175-0.002c-0.946-0.01-1.892-0.023-2.839-0.041l-0.189-0.004c-0.947-0.019-1.893-0.042-2.839-0.07l-0.122-0.004
	c-0.969-0.028-1.938-0.062-2.906-0.1l-0.058-0.002c-1.992-0.079-3.984-0.177-5.976-0.295l-0.042-0.003
	c-4.004-0.238-8.004-0.554-11.996-0.951l-0.041-0.004c-3.993-0.396-7.978-0.871-11.952-1.424l-0.009-0.001
	c-20.214,32.992-48.856,60.749-82.96,79.142H605.006l0.051,0.057c0.611,0.691,1.228,1.378,1.847,2.062
	c0.058,0.064,0.116,0.128,0.175,0.192c0.614,0.676,1.234,1.349,1.856,2.018c0.067,0.071,0.132,0.141,0.199,0.212
	c0.622,0.667,1.249,1.331,1.879,1.99c0.059,0.061,0.118,0.122,0.177,0.184c0.65,0.677,1.302,1.35,1.96,2.019l0.017,0.017
	c0.514,0.523,1.032,1.043,1.551,1.56l0.199,0.198l1.492,1.47l0.268,0.26l1.471,1.417l0.299,0.284l1.464,1.381l0.346,0.321
	l1.475,1.361l0.197,0.18c1.113,1.013,2.236,2.016,3.37,3.006c1.133,0.991,2.276,1.97,3.429,2.937l0.289,0.243l1.374,1.136
	l0.573,0.471l1.265,1.022l0.708,0.569l1.2,0.948l0.802,0.628l1.175,0.908l0.797,0.608l1.213,0.916l0.771,0.573l1.243,0.918
	l0.821,0.594l1.191,0.86l1.026,0.724c0.595,0.418,1.191,0.834,1.789,1.247l1.223,0.841l1.037,0.696l1.076,0.72l1.046,0.685
	l1.077,0.701l1.03,0.658l1.14,0.721l0.992,0.618l1.179,0.726l0.994,0.604l1.208,0.723l0.974,0.577l1.238,0.719l0.967,0.558
	l1.284,0.725l0.939,0.528c0.585,0.324,1.171,0.644,1.758,0.962l0.437,0.239H1232.832z"/>
<path style="fill:#264856;" d="M1190.9,527.492l0.38,0.068c-29.76-5.479-58.585-16.033-84.686-31.354
	c-44.385-26.054-114.59-99.72-148.674-157.745l-3.715-40.801l-5.507-60.489l-5.508,60.489l-3.714,40.802
	c-34.085,58.025-104.289,131.69-148.674,157.744c-53.611,31.47-118.715,42.836-179.818,31.394
	c6.136,19.521,15.432,37.981,27.3,54.576h490.078C1152.99,568.894,1174.332,549.975,1190.9,527.492z"/>
<rect x="914.477" y="1837.212" style="fill:#B72D28;" width="68.391" height="155.142"/>
<rect x="1193.465" y="1839.718" style="fill:#B72D28;" width="68.39" height="152.635"/>
<rect x="640.438" y="1839.718" style="fill:#B72D28;" width="68.391" height="152.635"/>
<path style="fill:#931914;" d="M731.238,1839.718c14.878,0,27.05-12.172,27.05-27.05c0-0.844-0.041-1.68-0.118-2.506H591.095
	c-0.076,0.825-0.118,1.661-0.118,2.506c0,14.878,12.172,27.05,27.051,27.05H731.238z"/>
<path style="fill:#931914;" d="M1144.005,1812.668c0,14.878,12.172,27.05,27.05,27.05h113.21c14.878,0,27.05-12.172,27.05-27.05
	c0-0.844-0.041-1.68-0.118-2.506h-167.074C1144.046,1810.988,1144.005,1811.823,1144.005,1812.668z"/>
<path style="fill:#931914;" d="M892.073,1837.212h113.211c14.877,0,27.049-12.172,27.049-27.049h-167.31
	C865.023,1825.04,877.196,1837.212,892.073,1837.212z"/>
<rect x="727.962" y="1016.142" style="fill:#EDE9EA;" width="46.661" height="74.522"/>
<polygon style="fill:#D7D5D5;" points="786.373,1016.142 774.624,1016.142 774.624,1090.665 727.962,1090.665 727.962,1104.55 
	786.373,1104.55 "/>
<path style="fill:#B72D28;" d="M1246.294,1326.981l-0.172,0.178h-595.15v129.871h595.322V1326.981z"/>
<rect x="797.677" y="681.51" style="fill:#EDE9EA;" width="60.495" height="49.924"/>
<polygon style="fill:#D7D5D5;" points="858.172,731.434 797.677,731.434 797.677,746.625 872.335,746.625 872.335,681.51 
	858.172,681.51 "/>
<path style="fill:#67240B;" d="M765.38,799.33h13.492v16.059h19.768V799.33h12.32v16.059h19.767V799.33h12.321v16.059h19.766V799.33
	h12.32v16.059h19.768V799.33h12.32v16.059h19.767V799.33h12.32v16.059h19.767V799.33h12.32v16.059h19.768V799.33h12.321v16.059
	h19.766V799.33h12.321v16.059h19.767V799.33h12.32v16.059h19.767V799.33h12.32v16.059h19.767V799.33h12.321v16.059h19.767v-60.344
	H745.613v60.344h19.767V799.33z M1119.513,767.895h12.321v18.585h-12.321V767.895z M1087.426,767.895h12.32v18.585h-12.32V767.895z
	 M1055.339,767.895h12.32v18.585h-12.32V767.895z M1023.251,767.895h12.321v18.585h-12.321V767.895z M991.164,767.895h12.321v18.585
	h-12.321V767.895z M959.076,767.895h12.32v18.585h-12.32V767.895z M926.989,767.895h12.32v18.585h-12.32V767.895z M894.902,767.895
	h12.32v18.585h-12.32V767.895z M862.814,767.895h12.32v18.585h-12.32V767.895z M830.727,767.895h12.321v18.585h-12.321V767.895z
	 M798.64,767.895h12.32v18.585h-12.32V767.895z M765.38,767.895h13.492v18.585H765.38V767.895z"/>
<rect x="911.278" y="681.51" style="fill:#EDE9EA;" width="60.495" height="49.924"/>
<polygon style="fill:#D7D5D5;" points="971.773,731.434 911.278,731.434 911.278,746.625 985.936,746.625 985.936,681.51 
	971.773,681.51 "/>
<rect x="1027.937" y="681.51" style="fill:#EDE9EA;" width="60.495" height="49.924"/>
<polygon style="fill:#D7D5D5;" points="1088.432,731.434 1027.937,731.434 1027.937,746.625 1102.596,746.625 1102.596,681.51 
	1088.432,681.51 "/>
<rect x="823.727" y="1016.142" style="fill:#EDE9EA;" width="46.662" height="74.522"/>
<polygon style="fill:#D7D5D5;" points="823.728,1090.665 823.728,1104.55 882.139,1104.55 882.139,1016.142 870.389,1016.142 
	870.389,1090.665 "/>
<rect x="919.128" y="1016.142" style="fill:#EDE9EA;" width="46.662" height="74.522"/>
<polygon style="fill:#D7D5D5;" points="919.128,1090.665 919.128,1104.55 977.539,1104.55 977.539,1016.142 965.79,1016.142 
	965.79,1090.665 "/>
<rect x="1014.528" y="1016.142" style="fill:#EDE9EA;" width="46.662" height="74.522"/>
<polygon style="fill:#D7D5D5;" points="1014.529,1090.665 1014.529,1104.55 1072.939,1104.55 1072.939,1016.142 1061.191,1016.142 
	1061.191,1090.665 "/>
<rect x="1110.293" y="1016.142" style="fill:#EDE9EA;" width="46.662" height="74.522"/>
<polygon style="fill:#D7D5D5;" points="1168.704,1016.142 1156.955,1016.142 1156.955,1090.665 1110.293,1090.665 1110.293,1104.55 
	1168.704,1104.55 "/>
<rect x="690.672" y="1343.451" style="fill:#EDE9EA;" width="54.55" height="87.121"/>
<polygon style="fill:#D7D5D5;" points="745.222,1430.572 690.672,1430.572 690.672,1446.805 758.957,1446.805 758.957,1343.451 
	745.222,1343.451 "/>
<rect x="802.627" y="1343.451" style="fill:#EDE9EA;" width="54.551" height="87.121"/>
<polygon style="fill:#D7D5D5;" points="857.177,1430.572 802.627,1430.572 802.627,1446.805 870.912,1446.805 870.912,1343.451 
	857.177,1343.451 "/>
<rect x="914.582" y="1343.451" style="fill:#EDE9EA;" width="54.55" height="87.121"/>
<polygon style="fill:#D7D5D5;" points="969.133,1430.572 914.582,1430.572 914.582,1446.805 982.868,1446.805 982.868,1343.451 
	969.133,1343.451 "/>
<rect x="1025.684" y="1343.451" style="fill:#EDE9EA;" width="54.551" height="87.121"/>
<polygon style="fill:#D7D5D5;" points="1080.235,1430.572 1025.684,1430.572 1025.684,1446.805 1093.97,1446.805 1093.97,1343.451 
	1080.235,1343.451 "/>
<rect x="1137.639" y="1343.451" style="fill:#EDE9EA;" width="54.551" height="87.121"/>
<polygon style="fill:#D7D5D5;" points="1192.189,1430.572 1137.639,1430.572 1137.639,1446.805 1205.924,1446.805 
	1205.924,1343.451 1192.189,1343.451 "/>
</svg>
